<svg width="25" height="25" viewBox="0 0 25 25" fill="none" xmlns="http://www.w3.org/2000/svg">
<path d="M24.5835 22.5H23.3335V14.5833C23.3333 14.3532 23.1466 14.1668 22.9165 14.167C22.7807 14.1671 22.6535 14.2333 22.5756 14.3446L16.7422 22.6779C16.6104 22.8665 16.6563 23.1263 16.8449 23.2581C16.9149 23.307 16.9981 23.3333 17.0835 23.3333H22.5001V24.5833C22.5001 24.8135 22.6867 25 22.9168 25C23.1469 25 23.3335 24.8135 23.3335 24.5833V23.3333H24.5835C24.8136 23.3333 25.0001 23.1468 25.0001 22.9167C25.0001 22.6866 24.8136 22.5 24.5835 22.5ZM22.5001 22.5H17.8835L22.5001 15.905V22.5Z" fill="white"/>
<path d="M17.083 24.1667H12.1501L16.7363 18.7663C16.7468 18.7539 16.7565 18.741 16.7655 18.7276C17.6283 17.4506 17.3409 15.7217 16.1113 14.7926C14.6163 13.7184 12.5335 14.0595 11.4593 15.5546C11.052 16.1215 10.8329 16.802 10.833 17.5001C10.833 17.7302 11.0196 17.9167 11.2497 17.9167C11.4798 17.9167 11.6663 17.7302 11.6663 17.5001C11.6662 16.1193 12.7854 15 14.1661 14.9998C14.6894 14.9998 15.1996 15.1639 15.6247 15.4692C16.486 16.1292 16.6866 17.3446 16.083 18.2463L10.9322 24.3138C10.7833 24.4893 10.8048 24.7522 10.9803 24.9011C11.0556 24.965 11.151 25 11.2497 25.0001H17.083C17.3131 25.0001 17.4997 24.8135 17.4997 24.5834C17.4997 24.3533 17.3131 24.1667 17.083 24.1667Z" fill="white"/>
<path d="M11.2592 22.0913C11.2679 21.8613 11.0884 21.6679 10.8585 21.6592C10.8584 21.6592 10.8584 21.6592 10.8583 21.6592C5.4224 21.4574 1.05943 17.1022 0.847917 11.6667H2.5C2.7301 11.6667 2.91667 11.4801 2.91667 11.25C2.91667 11.0199 2.7301 10.8333 2.5 10.8333H0.847917C1.05641 5.40734 5.40729 1.05661 10.8333 0.848333V2.08333C10.8333 2.31344 11.0199 2.5 11.25 2.5C11.4801 2.5 11.6667 2.31344 11.6667 2.08333V0.848333C17.0184 1.05531 21.3378 5.29312 21.6467 10.64L20.0217 9.015C19.8561 8.8551 19.5924 8.85969 19.4325 9.02521C19.2766 9.18667 19.2766 9.44266 19.4325 9.60417L21.7583 11.93C21.8021 11.983 21.8586 12.0241 21.9225 12.0496C21.9388 12.0545 21.9554 12.0585 21.9721 12.0617C22.0007 12.072 22.0303 12.0791 22.0604 12.0829C22.0646 12.0829 22.0683 12.0829 22.0725 12.0829C22.0767 12.0829 22.0804 12.0829 22.0842 12.0829C22.1159 12.0805 22.1472 12.0744 22.1775 12.0646C22.1946 12.0625 22.2116 12.0593 22.2283 12.055C22.2847 12.0349 22.3361 12.0028 22.3787 11.9608L24.7362 9.60417C24.8961 9.43865 24.8916 9.1749 24.726 9.015C24.5646 8.85906 24.3086 8.85906 24.1471 9.015L22.4817 10.6792C22.184 4.70677 17.2594 0.0146354 11.2796 0.00583333C11.2692 0.00541667 11.2604 0 11.25 0C11.2396 0 11.2308 0.00541667 11.2204 0.00583333C5.03031 0.0143229 0.0143229 5.03031 0.00583333 11.2204C0.00583333 11.2308 0 11.2396 0 11.25C0 11.2604 0.00541667 11.2692 0.00583333 11.2796C0.0161979 17.3169 4.79432 22.2676 10.8275 22.4921H10.8429C11.0668 22.492 11.2507 22.315 11.2592 22.0913Z" fill="white"/>
<path d="M16.8483 5.65178C16.6856 5.48912 16.4218 5.48912 16.2591 5.65178L11.7816 10.1289C11.4433 9.97803 11.0569 9.97803 10.7187 10.1289L8.5987 8.00886C8.43318 7.84902 8.16938 7.8536 8.00953 8.01912C7.85359 8.18058 7.85359 8.43657 8.00953 8.59803L10.1254 10.7139C9.82828 11.3357 10.0916 12.0807 10.7135 12.3778C11.1909 12.6058 11.7602 12.508 12.1341 12.1339C12.5101 11.761 12.6069 11.1902 12.3749 10.7143L16.8483 6.24094C17.0109 6.07824 17.0109 5.81449 16.8483 5.65178ZM11.5451 11.5442C11.545 11.5442 11.545 11.5442 11.5449 11.5443C11.3802 11.7018 11.1206 11.7018 10.9558 11.5443C10.793 11.3816 10.793 11.1178 10.9557 10.955C11.1184 10.7922 11.3822 10.7922 11.5449 10.9549C11.7077 11.1176 11.7077 11.3815 11.5451 11.5442Z" fill="white"/>
</svg>
