<svg width="27" height="27" viewBox="0 0 27 27" fill="none" xmlns="http://www.w3.org/2000/svg">
<path d="M26.7111 21.1312L26.0899 20.8571C26.0658 20.7701 26.0394 20.6867 26.0113 20.6054L26.3575 20.0089C26.437 19.8713 26.4383 19.7022 26.361 19.5634C26.1789 19.2392 25.9618 18.9359 25.7135 18.659C25.6047 18.5366 25.4377 18.4834 25.2782 18.5206L24.6246 18.67C24.5604 18.6199 24.4945 18.5713 24.4269 18.5241L24.3636 17.8309C24.3491 17.671 24.2503 17.531 24.1045 17.4637C23.7711 17.308 23.4211 17.1905 23.0612 17.1136C22.9008 17.0794 22.7346 17.1357 22.6281 17.2603L22.1704 17.7918H21.9507L21.493 17.2603C21.3867 17.1353 21.2202 17.0789 21.0599 17.1136C20.7 17.1905 20.35 17.3079 20.0166 17.4637C19.8708 17.531 19.772 17.671 19.7575 17.8309L19.6942 18.5241C19.6266 18.5711 19.5607 18.6197 19.4965 18.67L18.8429 18.5206C18.6834 18.4837 18.5165 18.5368 18.4076 18.659C18.1592 18.9358 17.9423 19.2394 17.7605 19.5639C17.6832 19.7025 17.6845 19.8715 17.764 20.0089L18.1097 20.605C18.0816 20.6862 18.0554 20.7703 18.0311 20.8571L17.41 21.1312C17.2468 21.203 17.1415 21.3645 17.1416 21.5428V22.561C17.1415 22.7393 17.2468 22.9007 17.41 22.9725L18.0311 23.2466C18.0553 23.3336 18.0816 23.4171 18.1097 23.4984L17.7636 24.0949C17.6841 24.2324 17.6827 24.4016 17.76 24.5404C17.9421 24.8646 18.1592 25.1679 18.4075 25.4448C18.5164 25.5673 18.6837 25.6204 18.8433 25.5832L19.496 25.4334C19.5602 25.4839 19.6265 25.5327 19.6941 25.5797L19.7574 26.2729C19.7719 26.4328 19.8707 26.5728 20.0165 26.6401C20.3499 26.7958 20.6999 26.9133 21.0598 26.9902C21.2201 27.0243 21.3863 26.968 21.4929 26.8435L21.9506 26.312H22.1702L22.628 26.8435C22.7134 26.9428 22.8379 27 22.9689 26.9999C22.9999 26.9999 23.0308 26.9967 23.0611 26.9902C23.421 26.9133 23.771 26.7959 24.1044 26.6401C24.2503 26.5728 24.3491 26.4328 24.3636 26.2729L24.4268 25.5797C24.4945 25.5327 24.5604 25.4841 24.6245 25.4338L25.2781 25.5832C25.4377 25.6204 25.6047 25.5673 25.7134 25.4448C25.9617 25.168 26.1788 24.8646 26.3609 24.5404C26.4383 24.4016 26.4369 24.2325 26.3574 24.0949L26.0113 23.4984C26.0394 23.4172 26.0658 23.3337 26.0899 23.2467L26.711 22.9726C26.8742 22.9008 26.9795 22.7393 26.9794 22.561V21.5428C26.9795 21.3645 26.8742 21.203 26.7111 21.1312ZM25.5259 22.5123C25.3956 22.5696 25.3002 22.6853 25.269 22.8242C25.2279 23.0094 25.1711 23.1909 25.0994 23.3666C25.0458 23.4963 25.0555 23.6435 25.1258 23.7651L25.446 24.3168C25.3735 24.4293 25.2953 24.5388 25.2114 24.6454L24.6087 24.5075C24.4676 24.4745 24.3194 24.5122 24.2112 24.6085C24.0711 24.7314 23.921 24.8423 23.7623 24.9401C23.642 25.0145 23.5635 25.141 23.5505 25.2819L23.4921 25.9241C23.3713 25.9715 23.2501 26.0128 23.1293 26.0471L22.7173 25.5687C22.6318 25.4695 22.5074 25.4124 22.3764 25.4124H21.7448C21.6138 25.4124 21.4894 25.4695 21.4039 25.5687L20.9919 26.0471C20.8711 26.0129 20.7499 25.9715 20.6291 25.9241L20.5707 25.2819C20.5577 25.141 20.4793 25.0145 20.3589 24.9401C20.2003 24.8425 20.0503 24.7315 19.9104 24.6085C19.8017 24.5125 19.6534 24.4747 19.512 24.507L18.9097 24.6449C18.8259 24.5391 18.7476 24.4293 18.6752 24.3168L18.9954 23.7651C19.0656 23.6435 19.0754 23.4963 19.0217 23.3666C18.95 23.1909 18.8933 23.0094 18.8522 22.8242C18.8209 22.6853 18.7255 22.5696 18.5952 22.5123L18.0413 22.268V21.8358L18.5952 21.5915C18.7255 21.5342 18.8209 21.4185 18.8522 21.2796C18.8933 21.0941 18.9501 20.9123 19.0217 20.7363C19.0754 20.6067 19.0657 20.4596 18.9954 20.3383L18.6756 19.7865C18.7476 19.6745 18.8258 19.5647 18.9097 19.4584L19.5124 19.5963C19.6534 19.6288 19.8015 19.5912 19.9099 19.4953C20.05 19.3724 20.2001 19.2615 20.3588 19.1637C20.4791 19.0893 20.5576 18.9628 20.5706 18.8219L20.629 18.1797C20.7497 18.1323 20.871 18.091 20.9918 18.0567L21.4038 18.5351C21.4893 18.6343 21.6137 18.6914 21.7447 18.6914H22.3764C22.5073 18.6914 22.6317 18.6342 22.7173 18.5351L23.1293 18.0567C23.2501 18.0909 23.3713 18.1323 23.4921 18.1797L23.5505 18.8219C23.5635 18.9628 23.642 19.0893 23.7623 19.1637C23.921 19.2615 24.0711 19.3724 24.2112 19.4953C24.3196 19.5912 24.4677 19.6288 24.6087 19.5963L25.2114 19.4584C25.2953 19.5647 25.3735 19.6742 25.446 19.787L25.1258 20.3387C25.0555 20.4602 25.0458 20.6074 25.0994 20.7372C25.1711 20.9129 25.2279 21.0944 25.269 21.2796C25.3003 21.4185 25.3957 21.5342 25.5259 21.5915L26.0799 21.8358V22.268L25.5259 22.5123Z" fill="white"/>
<path d="M22.0606 19.8027C20.8185 19.8027 19.8115 20.8097 19.8115 22.0518C19.8115 23.2939 20.8185 24.3008 22.0606 24.3008C23.3027 24.3008 24.3096 23.2939 24.3096 22.0518C24.3082 20.8103 23.3021 19.8042 22.0606 19.8027ZM22.0606 23.4012C21.3153 23.4012 20.7111 22.7971 20.7111 22.0518C20.7111 21.3065 21.3153 20.7024 22.0606 20.7024C22.8058 20.7024 23.41 21.3065 23.41 22.0518C23.4092 22.7967 22.8055 23.4004 22.0606 23.4012Z" fill="white"/>
<path d="M12.6153 1.81055C8.88897 1.81055 5.86816 4.83135 5.86816 8.55768C5.87221 12.2823 8.89065 15.3008 12.6153 15.3048C16.3416 15.3048 19.3624 12.284 19.3624 8.55768C19.3624 4.83135 16.3416 1.81055 12.6153 1.81055ZM7.01085 10.2247C6.08958 7.13004 7.85143 3.8745 10.9461 2.95317C11.4878 2.79192 12.0501 2.71005 12.6153 2.71017C13.1799 2.71067 13.7413 2.79332 14.2821 2.95542C14.1723 3.02784 14.058 3.0979 13.9564 3.17448C13.8025 3.29036 13.7395 3.49137 13.7996 3.67439L14.006 4.303C13.9213 4.38295 13.8383 4.46594 13.7583 4.55073L13.1302 4.34427C12.9474 4.28517 12.7472 4.34786 12.6307 4.50063C12.2983 4.93711 12.0205 5.41251 11.8036 5.9164C11.728 6.09363 11.7738 6.29925 11.9173 6.42772L12.4176 6.87579C12.3834 6.98779 12.3531 7.1007 12.3262 7.2136L11.6744 7.35068C11.4663 7.39453 11.3173 7.57811 11.3172 7.79081V9.32472C11.3173 9.53742 11.4662 9.721 11.6744 9.76486L12.3262 9.90194C12.3531 10.0148 12.3834 10.1277 12.4172 10.2397L11.9172 10.6878C11.7737 10.8163 11.7279 11.0219 11.8035 11.1991C12.0205 11.7027 12.298 12.1779 12.6297 12.6145C12.7456 12.7683 12.9466 12.8314 13.1297 12.7713L13.7583 12.5648C13.8382 12.6496 13.9212 12.7326 14.006 12.8125L13.7995 13.4407C13.7396 13.6235 13.8024 13.8242 13.9559 13.9402C14.0576 14.017 14.1721 14.0874 14.2823 14.16C11.1877 15.0812 7.93211 13.3194 7.01085 10.2247ZM15.3255 13.7344C15.1307 13.635 14.9413 13.5253 14.758 13.4059L14.9526 12.8138C15.0097 12.6396 14.9557 12.4482 14.816 12.3297C14.6085 12.1542 14.4158 11.9617 14.2401 11.7543C14.1214 11.6151 13.9304 11.5613 13.7565 11.6181L13.1625 11.8136C13.0151 11.5969 12.8823 11.3707 12.765 11.1363L13.2368 10.7133C13.3734 10.591 13.4222 10.3982 13.3602 10.2257C13.268 9.97098 13.1973 9.70897 13.1489 9.44246C13.1164 9.26236 12.978 9.11989 12.7988 9.08227L12.2168 8.9597V8.15583L12.7988 8.03326C12.978 7.99559 13.1164 7.85317 13.1489 7.67308C13.1975 7.40628 13.2682 7.14405 13.3602 6.88895C13.4222 6.71656 13.3733 6.52387 13.2368 6.4018L12.765 5.97926C12.8824 5.74491 13.0152 5.5186 13.1625 5.30191L13.7569 5.49741C13.931 5.55408 14.1221 5.50016 14.2409 5.36078C14.4164 5.15325 14.6089 4.96062 14.8163 4.78491C14.9557 4.66627 15.0095 4.47516 14.9525 4.30125L14.7579 3.70913C14.9412 3.58994 15.1306 3.48041 15.3253 3.381C15.9403 3.7057 16.4927 4.13696 16.957 4.6548C14.8014 5.23427 13.5237 7.45143 14.1032 9.60698C14.4774 10.9991 15.5649 12.0865 16.957 12.4607C16.4929 12.9785 15.9404 13.4097 15.3255 13.7344ZM14.8964 8.11029C15.0949 6.73056 16.1788 5.64663 17.5586 5.4481C18.7642 7.34584 18.7642 9.76952 17.5586 11.6673C15.8412 11.4202 14.6493 9.82766 14.8964 8.11029Z" fill="white"/>
<path d="M24.4661 7.68794L23.9267 7.44988C23.9083 7.38533 23.8889 7.32208 23.8678 7.26012L24.1687 6.74132C24.2483 6.60396 24.2496 6.43494 24.1723 6.29635C24.007 6.00172 23.81 5.7261 23.5846 5.47449C23.4755 5.3518 23.3082 5.29856 23.1484 5.33567L22.5817 5.46527C22.5338 5.42838 22.4851 5.39234 22.4354 5.35765L22.3801 4.75451C22.3651 4.59494 22.2667 4.45534 22.1213 4.38775C21.8183 4.24589 21.5001 4.13901 21.173 4.06929C21.0179 4.03662 20.8571 4.08823 20.75 4.20502L20.2535 4.74451C18.1581 0.521083 13.0356 -1.20405 8.81222 0.891331C4.5888 2.98671 2.86361 8.10913 4.95899 12.3326C5.0842 12.585 5.22185 12.8311 5.37141 13.0698L4.16811 14.5739C4.09164 14.67 4.05752 14.793 4.07365 14.9147C4.08973 15.0367 4.15535 15.1466 4.25509 15.2187L5.23197 15.9291L0.122025 22.2179C-0.0346771 22.4113 -0.00493345 22.6951 0.188428 22.8518C0.18899 22.8522 0.189553 22.8527 0.190059 22.8531L2.4391 24.6524C2.63224 24.8065 2.91343 24.7763 3.06945 24.5847L8.29331 18.1556L9.20293 18.8172C9.39731 18.9586 9.66854 18.9222 9.81878 18.7346L11.2223 16.98C14.924 17.6216 18.6047 15.742 20.2552 12.3671L20.7473 12.9085C20.8326 13.0023 20.9535 13.0557 21.0802 13.0557C21.1112 13.0557 21.1422 13.0525 21.1725 13.046C21.4999 12.9763 21.8182 12.8694 22.1213 12.7275C22.2666 12.66 22.3651 12.5203 22.3801 12.3608L22.4354 11.7576C22.4851 11.7225 22.5338 11.6865 22.5813 11.65L23.1484 11.7796C23.3082 11.817 23.4757 11.7637 23.5846 11.6408C23.8097 11.3892 24.0066 11.1138 24.1718 10.8194C24.2495 10.6808 24.2484 10.5115 24.1687 10.374L23.8678 9.85518C23.8889 9.79321 23.9083 9.72996 23.9267 9.66541L24.4661 9.42735C24.6293 9.35555 24.7346 9.19407 24.7345 9.01578V8.09946C24.7346 7.92122 24.6294 7.75974 24.4661 7.68794ZM2.65265 23.6711L1.10598 22.4336L5.96077 16.4592L7.56451 17.6258L2.65265 23.6711ZM9.38438 17.8371L8.47728 17.1774L8.42612 17.1402L5.16478 14.768L5.90932 13.838C7.014 15.2409 8.52963 16.2633 10.2442 16.7622L9.38438 17.8371ZM12.6161 16.2044C8.39289 16.2044 4.96933 12.7808 4.96933 8.55765C4.97406 4.33642 8.39485 0.915621 12.6161 0.910898C16.8393 0.910898 20.2628 4.33445 20.2628 8.55765C20.2628 12.7808 16.8393 16.2044 12.6161 16.2044ZM23.8349 8.72284L23.3636 8.93059C23.2333 8.98789 23.1379 9.1036 23.1066 9.24248C23.07 9.40717 23.0198 9.56848 22.9564 9.72479C22.9028 9.85416 22.9125 10.0011 22.9828 10.1223L23.2569 10.5949C23.2019 10.6788 23.1432 10.761 23.0807 10.8414L22.5668 10.7236C22.4256 10.6905 22.2772 10.728 22.1688 10.8242C22.0443 10.9336 21.9109 11.0323 21.7699 11.1194C21.6502 11.1938 21.5721 11.3199 21.5591 11.4603L21.5086 12.0107C21.4168 12.0463 21.3247 12.0775 21.2323 12.1043L20.645 11.4578C21.3359 9.58327 21.3349 7.52371 20.6422 5.64991L21.231 5.01057C21.3233 5.03739 21.4164 5.06899 21.5086 5.10458L21.5591 5.65497C21.5722 5.79554 21.6504 5.92188 21.7704 5.99627C21.9113 6.08308 22.0446 6.18164 22.1688 6.291C22.2774 6.38698 22.4257 6.42449 22.5668 6.39159L23.0808 6.27386C23.1431 6.35426 23.2019 6.43641 23.2569 6.52029L22.9828 6.99293C22.9126 7.1141 22.9029 7.26107 22.9565 7.39045C23.0198 7.54676 23.0701 7.70813 23.1067 7.87276C23.138 8.01164 23.2334 8.12735 23.3636 8.18464L23.835 8.3924V8.72284H23.8349Z" fill="white"/>
</svg>
