<svg width="33" height="33" viewBox="0 0 33 33" fill="none" xmlns="http://www.w3.org/2000/svg">
<path d="M4.95128 23.6514H1.65173C0.741001 23.6523 0.00291979 24.3904 0.00195312 25.3011V32.4501C0.00195312 32.7539 0.24813 33 0.551856 33H6.05108C6.35481 33 6.60099 32.7539 6.60099 32.4501V25.3011C6.60002 24.3904 5.862 23.6524 4.95128 23.6514ZM5.50118 31.9002H1.10176V25.3011C1.10215 24.9976 1.34813 24.7516 1.65166 24.7512H4.95121C5.25474 24.7516 5.50073 24.9976 5.50112 25.3011V31.9002H5.50118Z" fill="white"/>
<path d="M13.7501 15.9521H10.4506C9.53983 15.9531 8.80175 16.6912 8.80078 17.6019V32.4499C8.80078 32.7536 9.04696 32.9998 9.35068 32.9998H14.8499C15.1536 32.9998 15.3998 32.7536 15.3998 32.4499V17.6019C15.3988 16.6911 14.6608 15.9531 13.7501 15.9521ZM14.3 31.8999H9.90059V17.6019C9.90097 17.2984 10.147 17.0524 10.4505 17.052H13.75C14.0536 17.0524 14.2996 17.2984 14.2999 17.6019V31.8999H14.3Z" fill="white"/>
<path d="M22.5489 19.2515H19.2494C18.3387 19.2524 17.6006 19.9905 17.5996 20.9012V32.4497C17.5996 32.7534 17.8458 32.9996 18.1495 32.9996H23.6487C23.9525 32.9996 24.1986 32.7534 24.1986 32.4497V20.9012C24.1977 19.9904 23.4597 19.2524 22.5489 19.2515ZM23.0989 31.8997H18.6995V20.9012C18.6999 20.5977 18.9459 20.3517 19.2494 20.3513H22.5489C22.8525 20.3517 23.0984 20.5977 23.0988 20.9012V31.8997H23.0989Z" fill="white"/>
<path d="M31.3478 14.8521H28.0482C27.1375 14.853 26.3994 15.5911 26.3984 16.5018V32.4497C26.3984 32.7534 26.6446 32.9996 26.9483 32.9996H32.4476C32.7513 32.9996 32.9975 32.7534 32.9975 32.4497V16.5018C32.9965 15.5911 32.2585 14.853 31.3478 14.8521ZM31.8977 31.8997H27.4982V16.5018C27.4986 16.1983 27.7446 15.9523 28.0482 15.9519H31.3477C31.6512 15.9523 31.8972 16.1983 31.8976 16.5018V31.8997H31.8977Z" fill="white"/>
<path d="M27.2348 6.59153C28.2423 7.72549 29.8934 8.02593 31.2357 7.31949C32.578 6.61305 33.2653 5.08198 32.901 3.60949C32.5367 2.13701 31.2148 1.10306 29.698 1.10396C28.5967 1.10313 27.5678 1.65206 26.9554 2.56724C26.3429 3.48241 26.2278 4.64292 26.6486 5.66056L23.3623 7.71473C22.771 7.04444 21.932 6.64411 21.039 6.60609C20.146 6.56807 19.2761 6.89577 18.63 7.5134L15.0307 4.81389C15.7917 3.34205 15.3429 1.53413 13.9819 0.588989C12.621 -0.356151 10.7702 -0.145289 9.65675 1.08179C8.54335 2.30888 8.5128 4.17145 9.58535 5.43436L4.97487 10.9133C3.49652 10.0434 1.59818 10.4514 0.607738 11.8519C-0.382707 13.2523 -0.134983 15.1781 1.17775 16.2822C2.49048 17.3863 4.43019 17.3005 5.64026 16.0848C6.85033 14.869 6.92702 12.9289 5.81671 11.6213L10.4272 6.14241C11.6931 6.89545 13.3058 6.71152 14.3697 5.69279L17.969 8.39229C17.2685 9.74917 17.5909 11.4095 18.7482 12.4057C19.9056 13.4019 21.5954 13.4734 22.8329 12.5787C24.0704 11.6839 24.532 10.0568 23.9487 8.64556L27.2348 6.59153ZM29.698 2.20384C30.9128 2.20384 31.8976 3.18867 31.8976 4.40351C31.8962 5.61777 30.9122 6.60184 29.698 6.60319C28.4831 6.60319 27.4983 5.61835 27.4983 4.40351C27.4983 3.18867 28.4831 2.20384 29.698 2.20384ZM3.30157 15.952C2.08674 15.952 1.1019 14.9672 1.1019 13.7523C1.1019 12.5375 2.08674 11.5526 3.30157 11.5526C4.51641 11.5526 5.50125 12.5375 5.50125 13.7523C5.49983 14.9666 4.51583 15.9506 3.30157 15.952ZM12.1004 5.50338C10.8855 5.50338 9.90067 4.51855 9.90067 3.30371C9.90067 2.08887 10.8855 1.10403 12.1004 1.10403C13.3152 1.10403 14.3 2.08887 14.3 3.30371C14.2987 4.51797 13.3146 5.50203 12.1004 5.50338ZM20.8991 12.1025C19.6843 12.1025 18.6994 11.1176 18.6994 9.9028C18.6994 8.68796 19.6843 7.70313 20.8991 7.70313C22.114 7.70313 23.0988 8.68796 23.0988 9.9028C23.0975 11.1171 22.1135 12.1011 20.8991 12.1025Z" fill="white"/>
</svg>
