<svg width="63" height="63" viewBox="0 0 63 63" fill="none" xmlns="http://www.w3.org/2000/svg">
<path fill-rule="evenodd" clip-rule="evenodd" d="M12.3379 42.8726V54.0476H15.1601C15.5764 54.0476 15.92 54.3027 15.92 54.6154V58.1942H25.9453V54.6154C25.9453 54.3027 26.2889 54.0476 26.7101 54.0476H29.5323V42.8726H26.7101C26.2889 42.8726 25.9453 42.6176 25.9453 42.3085V38.726H15.92V42.3085C15.92 42.6174 15.5764 42.8726 15.1601 42.8726H12.3379Z" fill="#B6B1B7"/>
<path fill-rule="evenodd" clip-rule="evenodd" d="M33.0654 42.8726V54.0476H36.0186C36.4593 54.0476 36.8189 54.3027 36.8189 54.6154V58.1942H47.3095V54.6154C47.3095 54.3027 47.6691 54.0476 48.1098 54.0476H51.0629V42.8726H48.1098C47.669 42.8726 47.3095 42.6176 47.3095 42.3085V38.726H36.8189V42.3085C36.8189 42.6174 36.4592 42.8726 36.0186 42.8726H33.0654Z" fill="#B6B1B7"/>
<path fill-rule="evenodd" clip-rule="evenodd" d="M4.27344 18.6578V34.8441H58.7276V18.6578L31.4987 2.93741L4.27344 18.6578Z" fill="#ECEAEC"/>
<path fill-rule="evenodd" clip-rule="evenodd" d="M0.331948 20.5874C1.01818 21.7767 2.54888 22.1863 3.73826 21.5L4.27363 21.191L31.4989 5.47056L58.7277 21.191L59.263 21.5C60.4487 22.1863 61.983 21.7767 62.6658 20.5874C63.352 19.4016 62.9425 17.8673 61.7531 17.1809L32.8679 0.504754C32.4727 0.274779 31.9876 0.163422 31.4989 0.163422C31.0138 0.163422 30.5251 0.274779 30.1298 0.504754L1.24459 17.1809C0.0589072 17.8673 -0.354284 19.4016 0.331948 20.5874Z" fill="#9FD4FE"/>
<path fill-rule="evenodd" clip-rule="evenodd" d="M48.4473 40.9503H56.8121V55.97H48.4473V40.9503Z" fill="#FFE07D"/>
<path fill-rule="evenodd" clip-rule="evenodd" d="M27.3164 40.9503H35.6813V55.97H27.3164V40.9503Z" fill="#FFE07D"/>
<path fill-rule="evenodd" clip-rule="evenodd" d="M6.18555 40.9503H14.554V55.97H6.18555V40.9503Z" fill="#FFE07D"/>
<path fill-rule="evenodd" clip-rule="evenodd" d="M3.52637 58.1942L9.65496 60.5154L17.2126 58.1942V54.6153C17.2126 54.3027 16.9575 54.0476 16.6485 54.0476H14.5537H6.18529H4.09054C3.78157 54.0476 3.52637 54.3027 3.52637 54.6153V58.1942Z" fill="#ECEAEC"/>
<path fill-rule="evenodd" clip-rule="evenodd" d="M45.7852 58.1942L53.176 60.5154L59.475 58.1942V54.6153C59.475 54.3027 59.2199 54.0476 58.9072 54.0476H56.8125H48.4476H46.3529C46.0404 54.0476 45.7852 54.3027 45.7852 54.6153V58.1942Z" fill="#ECEAEC"/>
<path fill-rule="evenodd" clip-rule="evenodd" d="M24.6543 58.1942L31.501 59.8521L38.3441 58.1942V54.6153C38.3441 54.3027 38.089 54.0476 37.7764 54.0476H35.6816H27.3168H25.222C24.9094 54.0476 24.6543 54.3027 24.6543 54.6153V58.1942Z" fill="#ECEAEC"/>
<path fill-rule="evenodd" clip-rule="evenodd" d="M0.583111 62.8366H62.4175C62.7373 62.8366 62.9996 62.5743 62.9996 62.2545V58.7762C62.9996 58.4564 62.7373 58.1941 62.4175 58.1941H59.4747H45.7849H38.3435H24.6535H17.2122H3.5259H0.583111C0.263312 58.1941 0.000976562 58.4564 0.000976562 58.7762V62.2545C0.000976562 62.5744 0.263312 62.8366 0.583111 62.8366Z" fill="#9FD4FE"/>
<path fill-rule="evenodd" clip-rule="evenodd" d="M28.5957 14.1339C28.5957 15.8156 29.9575 17.1774 31.6391 17.1774C33.3171 17.1774 34.6826 15.8155 34.6826 14.1339C34.6826 12.4524 33.3171 11.0905 31.6391 11.0905C29.9576 11.0904 28.5957 12.4522 28.5957 14.1339Z" fill="#FFE07D"/>
<path fill-rule="evenodd" clip-rule="evenodd" d="M31.4987 5.47055L4.27344 21.191V24.7268L31.4987 9.0063L58.7276 24.7268V21.191L31.4987 5.47055Z" fill="#DAD8DB"/>
<path fill-rule="evenodd" clip-rule="evenodd" d="M31.6391 11.0904C29.9576 11.0904 28.5957 12.4522 28.5957 14.1338C28.5957 14.4824 28.6532 14.8129 28.761 15.1256C29.2101 14.0081 30.3061 13.2212 31.5816 13.2212C32.9146 13.2212 34.05 14.0799 34.4596 15.2729C34.6033 14.9207 34.6825 14.5363 34.6825 14.1338C34.6826 12.4522 33.3171 11.0904 31.6391 11.0904Z" fill="#FFC269"/>
<path fill-rule="evenodd" clip-rule="evenodd" d="M6.18555 42.8726H14.554V45.9125H6.18555V42.8726Z" fill="#FFC269"/>
<path fill-rule="evenodd" clip-rule="evenodd" d="M27.3164 42.8726H35.6813V45.9125H27.3164V42.8726Z" fill="#FFC269"/>
<path fill-rule="evenodd" clip-rule="evenodd" d="M48.4473 42.8726H56.8121V45.9125H48.4473V42.8726Z" fill="#FFC269"/>
<path fill-rule="evenodd" clip-rule="evenodd" d="M6.18529 42.8727H14.5537H16.6485C16.9574 42.8727 17.2126 42.6176 17.2126 42.3085V37.9654H3.52637V42.3085C3.52637 42.6175 3.78144 42.8727 4.09054 42.8727H6.18529Z" fill="#ECEAEC"/>
<path fill-rule="evenodd" clip-rule="evenodd" d="M27.3169 42.8727H35.6818H37.7765C38.0892 42.8727 38.3442 42.6176 38.3442 42.3085V37.9654H24.6543V42.3085C24.6543 42.6175 24.9094 42.8727 25.222 42.8727H27.3169Z" fill="#ECEAEC"/>
<path fill-rule="evenodd" clip-rule="evenodd" d="M46.3529 42.8727H48.4476H56.8125H58.9072C59.2198 42.8727 59.475 42.6176 59.475 42.3085V37.9654H45.7852V42.3085C45.7852 42.6176 46.0402 42.8727 46.3529 42.8727Z" fill="#ECEAEC"/>
<path fill-rule="evenodd" clip-rule="evenodd" d="M3.52637 38.726H17.2126V40.9502H3.52637V38.726Z" fill="#DAD8DB"/>
<path fill-rule="evenodd" clip-rule="evenodd" d="M24.6543 38.726H38.3441V40.9502H24.6543V38.726Z" fill="#DAD8DB"/>
<path fill-rule="evenodd" clip-rule="evenodd" d="M45.7852 38.726H59.475V40.9502H45.7852V38.726Z" fill="#DAD8DB"/>
<path fill-rule="evenodd" clip-rule="evenodd" d="M3.5259 38.7261H17.2122H24.6535H38.3435H45.7849H59.4747H62.4175C62.7373 38.7261 62.9996 38.4637 62.9996 38.1439V34.6657C62.9996 34.3459 62.7373 34.0835 62.4175 34.0835H58.7273H4.27329H0.583111C0.263312 34.0835 0.000976562 34.3459 0.000976562 34.6657V38.1439C0.000976562 38.4637 0.263312 38.7261 0.583111 38.7261H3.5259Z" fill="#9FD4FE"/>
<path d="M20.0318 25.0675C20.2927 24.6573 20.446 24.1722 20.446 23.6511C20.446 22.1902 19.2574 21.0016 17.7964 21.0016H15.6518C15.1267 21.0016 14.7012 21.4272 14.7012 21.9522V25.3519V25.3574V29.3353C14.7012 29.5881 14.8019 29.8307 14.9812 30.009C15.1594 30.1864 15.4004 30.2859 15.652 30.2859H15.6561C15.6561 30.2859 17.6276 30.2772 18.1711 30.2772C19.791 30.2772 21.109 28.9592 21.109 27.3392C21.1088 26.4248 20.6889 25.6068 20.0318 25.0675ZM17.7964 22.903C18.209 22.903 18.5445 23.2385 18.5445 23.6511C18.5445 24.0637 18.209 24.3993 17.7964 24.3993C17.6395 24.3993 16.6026 24.4012 16.6026 24.4012V22.903H17.7964ZM18.171 28.3758C17.8817 28.3758 17.1891 28.3782 16.6026 28.3806V26.3041C16.7428 26.3036 18.171 26.3025 18.171 26.3025C18.7425 26.3025 19.2075 26.7675 19.2075 27.3392C19.2075 27.9108 18.7425 28.3758 18.171 28.3758Z" fill="#6F6571"/>
<path d="M27.7062 21.7203C27.703 21.7118 27.6997 21.7033 27.6963 21.6948C27.5233 21.2736 27.1175 21.0016 26.6623 21.0016C26.662 21.0016 26.6618 21.0016 26.6616 21.0016C26.206 21.0018 25.8001 21.2745 25.6274 21.6962C25.6245 21.7033 25.6217 21.7106 25.6189 21.7179L22.8467 28.9969C22.6598 29.4876 22.9061 30.0369 23.3968 30.2237C23.8869 30.4106 24.4367 30.1644 24.6236 29.6737L25.0809 28.4731H28.2227L28.6748 29.6709C28.8184 30.0517 29.1803 30.2863 29.5643 30.2863C29.6758 30.2863 29.7894 30.2666 29.8999 30.2249C30.3911 30.0395 30.639 29.4909 30.4536 28.9997L27.7062 21.7203ZM25.8047 26.5716L26.6587 24.3296L27.5049 26.5716H25.8047Z" fill="#6F6571"/>
<path d="M38.5477 21.0016C38.5446 21.0016 38.5414 21.0016 38.5383 21.0017C38.0132 21.0067 37.5917 21.4365 37.5968 21.9614L37.6395 26.3698L34.2253 21.4258C33.9889 21.0834 33.5578 20.9349 33.16 21.0584C32.7629 21.1823 32.4922 21.55 32.4922 21.966V29.3352C32.4922 29.8602 32.9178 30.2858 33.4428 30.2858C33.9679 30.2858 34.3935 29.8602 34.3935 29.3352V25.0156L37.6433 29.7215C37.9214 30.1235 38.3861 30.2946 38.8269 30.1569C39.2765 30.0165 39.567 29.5963 39.567 29.0771L39.4981 21.943C39.4931 21.4211 39.0684 21.0016 38.5477 21.0016Z" fill="#6F6571"/>
<path d="M48.2264 28.6511L44.9056 25.4474L47.9442 22.6543C48.3308 22.299 48.3562 21.6975 48.0008 21.3109C47.6457 20.9244 47.044 20.8989 46.6575 21.2544L44.2304 23.4854V21.8599C44.2304 21.3349 43.8048 20.9093 43.2798 20.9093C42.7547 20.9093 42.3291 21.3349 42.3291 21.8599V29.3353C42.3291 29.8603 42.7547 30.2859 43.2798 30.2859C43.8048 30.2859 44.2304 29.8603 44.2304 29.3353V27.4379L46.9062 30.0195C47.0906 30.1976 47.3286 30.2861 47.5661 30.2861C47.8151 30.2861 48.0638 30.1889 48.2504 29.9954C48.6151 29.6175 48.6042 29.0156 48.2264 28.6511Z" fill="#6F6571"/>
</svg>
