<svg width="88" height="50" viewBox="0 0 88 50" fill="none" xmlns="http://www.w3.org/2000/svg">
<g clip-path="url(#clip0)">
<path d="M86.5431 3.09734C87.4173 3.09734 88.1457 2.35988 88.1457 1.47493C88 0.737463 87.4173 0 86.5431 0C85.6689 0 84.9404 0.737463 84.9404 1.62242C84.9404 2.35988 85.6689 3.09734 86.5431 3.09734Z" fill="#00C5DE"/>
<path d="M79.1126 7.81702C78.9669 7.81702 78.9669 7.81702 78.8212 7.81702C78.6755 7.81702 78.3841 7.81702 78.2384 7.96451C77.8013 8.112 77.3643 8.55448 77.3643 9.14445C77.3643 9.29194 77.3643 9.29194 77.3643 9.43944C77.3643 10.0294 77.8013 10.6194 78.2384 10.9144C78.3841 11.0619 78.6755 11.0619 78.8212 11.0619C78.9669 11.0619 78.9669 11.0619 79.1126 11.0619C79.8411 10.9144 80.2782 10.3244 80.2782 9.58693C80.2782 9.43944 80.2782 9.43944 80.2782 9.29194C80.1325 8.40699 79.6954 7.96451 79.1126 7.81702Z" fill="#00C5DE"/>
<path d="M86.5431 31.2686C85.6689 31.2686 84.9404 32.006 84.9404 32.891C84.9404 33.7759 85.6689 34.5134 86.5431 34.5134C87.4173 34.5134 88.1457 33.7759 88.1457 32.891C88 32.006 87.4173 31.2686 86.5431 31.2686Z" fill="#00C5DE"/>
<path d="M86.5431 15.634C85.6689 15.634 84.9404 16.3715 84.9404 17.2565C84.9404 18.1414 85.6689 18.8789 86.5431 18.8789C87.4173 18.8789 88.1457 18.1414 88.1457 17.2565C88 16.3715 87.4173 15.634 86.5431 15.634Z" fill="#00C5DE"/>
<path d="M79.1128 39.0856C78.9671 39.0856 78.9671 39.0856 78.8214 39.0856C78.6757 39.0856 78.3843 39.0856 78.2386 39.2331C77.9472 39.3806 77.6558 39.528 77.5101 39.823C77.3644 40.118 77.2188 40.413 77.2188 40.708C77.2188 40.8555 77.2187 41.1505 77.3644 41.298C77.5101 41.7404 77.8015 42.0354 78.2386 42.1829C78.3843 42.3304 78.6757 42.3304 78.8214 42.3304C78.9671 42.3304 78.9671 42.3304 79.1128 42.3304C79.5499 42.1829 79.987 41.8879 80.2784 41.4455C80.424 41.298 80.424 41.003 80.424 40.8555C80.424 40.5605 80.2784 40.2655 80.1327 39.9705C79.8413 39.3806 79.5499 39.2331 79.1128 39.0856Z" fill="#00C5DE"/>
<path d="M79.1126 23.4515C78.9669 23.4515 78.9669 23.4515 78.8212 23.4515C78.6755 23.4515 78.3841 23.4515 78.2384 23.599C77.6557 23.894 77.3643 24.3365 77.3643 25.074C77.3643 25.6639 77.8013 26.2539 78.2384 26.5489C78.3841 26.6964 78.6755 26.6964 78.8212 26.6964C78.9669 26.6964 78.9669 26.6964 79.1126 26.6964C79.8411 26.5489 80.2782 25.9589 80.2782 25.2215C80.2782 24.3365 79.8411 23.599 79.1126 23.4515Z" fill="#00C5DE"/>
<path d="M86.5431 46.9026C85.6689 46.9026 84.9404 47.6401 84.9404 48.525C84.9404 49.41 85.6689 50.1474 86.5431 50.1474C87.4173 50.1474 88.1457 49.41 88.1457 48.525C88 47.6401 87.4173 46.9026 86.5431 46.9026Z" fill="#00C5DE"/>
<path d="M63.3779 7.81702C62.6494 7.81702 62.0666 8.40699 61.9209 8.99696C61.9209 9.14445 61.9209 9.14445 61.9209 9.29194C61.9209 10.1769 62.6494 10.9144 63.5235 10.9144C64.3977 10.9144 65.1262 10.1769 65.1262 9.29194C65.1262 9.14445 65.1262 9.14445 65.1262 8.99696C64.6891 8.40699 64.1063 7.81702 63.3779 7.81702Z" fill="#00C5DE"/>
<path d="M55.6554 0C54.7812 0 54.0527 0.737463 54.0527 1.62242C54.0527 2.50737 54.7812 3.24484 55.6554 3.24484C56.5296 3.24484 57.258 2.50737 57.258 1.62242C57.1123 0.737463 56.3839 0 55.6554 0Z" fill="#00C5DE"/>
<path d="M71.0997 0C70.2255 0 69.4971 0.737463 69.4971 1.62242C69.4971 2.50737 70.2255 3.24484 71.0997 3.24484C71.9739 3.24484 72.7024 2.50737 72.7024 1.62242C72.5567 0.737463 71.9739 0 71.0997 0Z" fill="#00C5DE"/>
<path d="M48.8077 8.112C48.5163 7.96451 48.2249 7.81702 47.9335 7.81702C47.205 7.81702 46.6223 8.40699 46.4766 8.99696C46.4766 9.14445 46.4766 9.14445 46.4766 9.29194C46.4766 10.1769 47.205 10.9144 48.0792 10.9144C48.3706 10.9144 48.662 10.7669 48.9534 10.6194C49.3905 10.3244 49.6819 9.88191 49.6819 9.29194C49.6819 9.14445 49.6819 9.14445 49.6819 8.99696C49.2448 8.70197 49.0991 8.25949 48.8077 8.112Z" fill="#00C5DE"/>
<path d="M63.3771 39.0856C62.7943 39.0856 62.3572 39.3806 62.0658 39.823C61.9201 40.118 61.7744 40.413 61.7744 40.708C61.7744 40.8555 61.7744 41.1505 61.9201 41.298C62.2115 41.8879 62.6486 42.1829 63.3771 42.1829C63.9598 42.1829 64.5426 41.7404 64.834 41.298C64.9797 41.1505 64.9797 40.8555 64.9797 40.708C64.9797 40.413 64.834 40.118 64.6883 39.823C64.3969 39.3806 63.8142 39.0856 63.3771 39.0856Z" fill="#00C5DE"/>
<path d="M63.3771 23.4515C62.5029 23.4515 61.7744 24.189 61.7744 25.074C61.7744 25.9589 62.5029 26.6964 63.3771 26.6964C64.2512 26.6964 64.9797 25.9589 64.9797 25.074C64.834 24.189 64.2512 23.4515 63.3771 23.4515Z" fill="#00C5DE"/>
<path d="M55.6554 31.2686C54.7812 31.2686 54.0527 32.006 54.0527 32.891C54.0527 33.7759 54.7812 34.5134 55.6554 34.5134C56.5296 34.5134 57.258 33.7759 57.258 32.891C57.1123 32.006 56.3839 31.2686 55.6554 31.2686Z" fill="#00C5DE"/>
<path d="M71.0997 31.2686C70.2255 31.2686 69.4971 32.006 69.4971 32.891C69.4971 33.7759 70.2255 34.5134 71.0997 34.5134C71.9739 34.5134 72.7024 33.7759 72.7024 32.891C72.5567 32.006 71.9739 31.2686 71.0997 31.2686Z" fill="#00C5DE"/>
<path d="M55.6554 15.634C54.7812 15.634 54.0527 16.3715 54.0527 17.2565C54.0527 18.1414 54.7812 18.8789 55.6554 18.8789C56.5296 18.8789 57.258 18.1414 57.258 17.2565C57.1123 16.3715 56.3839 15.634 55.6554 15.634Z" fill="#00C5DE"/>
<path d="M71.0997 15.634C70.2255 15.634 69.4971 16.3715 69.4971 17.2565C69.4971 18.1414 70.2255 18.8789 71.0997 18.8789C71.9739 18.8789 72.7024 18.1414 72.7024 17.2565C72.5567 16.3715 71.9739 15.634 71.0997 15.634Z" fill="#00C5DE"/>
<path d="M48.8079 39.3806C48.5165 39.2331 48.2251 39.0856 47.9337 39.0856C47.3509 39.0856 46.9138 39.3806 46.6224 39.823C46.4768 40.118 46.3311 40.413 46.3311 40.708C46.3311 40.8555 46.3311 41.1505 46.4768 41.298C46.7681 41.8879 47.2052 42.1829 47.9337 42.1829C48.2251 42.1829 48.5165 42.0354 48.8079 41.8879C49.0993 41.7404 49.245 41.4455 49.3907 41.1505C49.5364 41.003 49.5364 40.708 49.5364 40.5605C49.5364 40.2655 49.3907 39.9705 49.245 39.6755C49.0993 39.6755 48.9536 39.528 48.8079 39.3806Z" fill="#00C5DE"/>
<path d="M48.8079 23.7465C48.5165 23.599 48.2251 23.4515 47.9337 23.4515C47.0595 23.4515 46.3311 24.189 46.3311 25.074C46.3311 25.9589 47.0595 26.6964 47.9337 26.6964C48.2251 26.6964 48.5165 26.5489 48.8079 26.4014C49.245 26.1064 49.5364 25.6639 49.5364 25.074C49.3907 24.484 49.0993 24.0415 48.8079 23.7465Z" fill="#00C5DE"/>
<path d="M55.6554 46.9026C54.7812 46.9026 54.0527 47.6401 54.0527 48.525C54.0527 49.41 54.7812 50.1474 55.6554 50.1474C56.5296 50.1474 57.258 49.41 57.258 48.525C57.1123 47.6401 56.3839 46.9026 55.6554 46.9026Z" fill="#00C5DE"/>
<path d="M71.0997 46.9026C70.2255 46.9026 69.4971 47.6401 69.4971 48.525C69.4971 49.41 70.2255 50.1474 71.0997 50.1474C71.9739 50.1474 72.7024 49.41 72.7024 48.525C72.5567 47.6401 71.9739 46.9026 71.0997 46.9026Z" fill="#00C5DE"/>
<path d="M32.4902 7.81702C31.7617 7.81702 31.1789 8.40699 31.0332 8.99696C31.0332 9.14445 31.0332 9.14445 31.0332 9.29194C31.0332 10.1769 31.7617 10.9144 32.6359 10.9144C33.51 10.9144 34.2385 10.1769 34.2385 9.29194C34.2385 9.14445 34.2385 9.14445 34.2385 8.99696C33.8014 8.40699 33.2186 7.81702 32.4902 7.81702Z" fill="#00C5DE"/>
<path d="M24.7677 0C23.8935 0 23.165 0.737463 23.165 1.62242C23.165 2.50737 23.8935 3.24484 24.7677 3.24484C25.6419 3.24484 26.3703 2.50737 26.3703 1.62242C26.2246 0.737463 25.4962 0 24.7677 0Z" fill="#00C5DE"/>
<path d="M40.212 0C39.3379 0 38.6094 0.737463 38.6094 1.62242C38.6094 2.50737 39.3379 3.24484 40.212 3.24484C41.0862 3.24484 41.8147 2.50737 41.8147 1.62242C41.669 0.737463 40.9405 0 40.212 0Z" fill="#00C5DE"/>
<path d="M17.3382 7.81702C17.1925 7.81702 17.1925 7.81702 17.0468 7.81702C16.9011 7.81702 16.6097 7.81702 16.464 7.96451C16.0269 8.112 15.5898 8.55448 15.5898 9.14445C15.5898 9.29194 15.5898 9.29194 15.5898 9.43944C15.5898 10.0294 16.0269 10.6194 16.464 10.9144C16.6097 11.0619 16.9011 11.0619 17.0468 11.0619C17.1925 11.0619 17.1925 11.0619 17.3382 11.0619C18.0667 10.9144 18.5038 10.3244 18.5038 9.58693C18.5038 9.43944 18.5038 9.43944 18.5038 9.29194C18.3581 8.40699 17.921 7.96451 17.3382 7.81702Z" fill="#00C5DE"/>
<path d="M32.4903 39.0856C31.9076 39.0856 31.4705 39.3806 31.1791 39.823C31.0334 40.118 30.8877 40.413 30.8877 40.708C30.8877 40.8555 30.8877 41.1505 31.0334 41.298C31.3248 41.8879 31.7619 42.1829 32.4903 42.1829C33.0731 42.1829 33.6559 41.7404 33.9473 41.298C34.093 41.1505 34.093 40.8555 34.093 40.708C34.093 40.413 33.9473 40.118 33.8016 39.823C33.5102 39.3806 32.9274 39.0856 32.4903 39.0856Z" fill="#00C5DE"/>
<path d="M32.4903 23.4515C31.6162 23.4515 30.8877 24.189 30.8877 25.074C30.8877 25.9589 31.6162 26.6964 32.4903 26.6964C33.3645 26.6964 34.093 25.9589 34.093 25.074C33.9473 24.189 33.2188 23.4515 32.4903 23.4515Z" fill="#00C5DE"/>
<path d="M24.7677 31.2686C23.8935 31.2686 23.165 32.006 23.165 32.891C23.165 33.7759 23.8935 34.5134 24.7677 34.5134C25.6419 34.5134 26.3703 33.7759 26.3703 32.891C26.2246 32.006 25.4962 31.2686 24.7677 31.2686Z" fill="#00C5DE"/>
<path d="M40.212 31.2686C39.3379 31.2686 38.6094 32.006 38.6094 32.891C38.6094 33.7759 39.3379 34.5134 40.212 34.5134C41.0862 34.5134 41.8147 33.7759 41.8147 32.891C41.669 32.006 40.9405 31.2686 40.212 31.2686Z" fill="#00C5DE"/>
<path d="M24.7677 15.634C23.8935 15.634 23.165 16.3715 23.165 17.2565C23.165 18.1414 23.8935 18.8789 24.7677 18.8789C25.6419 18.8789 26.3703 18.1414 26.3703 17.2565C26.2246 16.3715 25.4962 15.634 24.7677 15.634Z" fill="#00C5DE"/>
<path d="M40.212 15.634C39.3379 15.634 38.6094 16.3715 38.6094 17.2565C38.6094 18.1414 39.3379 18.8789 40.212 18.8789C41.0862 18.8789 41.8147 18.1414 41.8147 17.2565C41.669 16.3715 40.9405 15.634 40.212 15.634Z" fill="#00C5DE"/>
<path d="M17.3374 39.0856C17.1917 39.0856 17.1917 39.0856 17.046 39.0856C16.9003 39.0856 16.6089 39.0856 16.4632 39.2331C16.1718 39.3806 15.8804 39.528 15.7347 39.823C15.5891 40.118 15.4434 40.413 15.4434 40.708C15.4434 40.8555 15.4434 41.1505 15.5891 41.298C15.7347 41.7404 16.0261 42.0354 16.4632 42.1829C16.6089 42.3304 16.9003 42.3304 17.046 42.3304C17.1917 42.3304 17.1917 42.3304 17.3374 42.3304C17.7745 42.1829 18.2116 41.8879 18.503 41.4455C18.6487 41.298 18.6487 41.003 18.6487 40.8555C18.6487 40.5605 18.503 40.2655 18.3573 39.9705C18.0659 39.3806 17.7745 39.2331 17.3374 39.0856Z" fill="#00C5DE"/>
<path d="M17.3382 23.4515C17.1925 23.4515 17.1925 23.4515 17.0468 23.4515C16.9011 23.4515 16.6097 23.4515 16.464 23.599C15.8812 23.894 15.5898 24.3365 15.5898 25.074C15.5898 25.6639 16.0269 26.2539 16.464 26.5489C16.6097 26.6964 16.9011 26.6964 17.0468 26.6964C17.1925 26.6964 17.1925 26.6964 17.3382 26.6964C18.0667 26.5489 18.5038 25.9589 18.5038 25.2215C18.5038 24.3365 18.0667 23.599 17.3382 23.4515Z" fill="#00C5DE"/>
<path d="M24.7677 46.9026C23.8935 46.9026 23.165 47.6401 23.165 48.525C23.165 49.41 23.8935 50.1474 24.7677 50.1474C25.6419 50.1474 26.3703 49.41 26.3703 48.525C26.2246 47.6401 25.4962 46.9026 24.7677 46.9026Z" fill="#00C5DE"/>
<path d="M40.212 46.9026C39.3379 46.9026 38.6094 47.6401 38.6094 48.525C38.6094 49.41 39.3379 50.1474 40.212 50.1474C41.0862 50.1474 41.8147 49.41 41.8147 48.525C41.669 47.6401 40.9405 46.9026 40.212 46.9026Z" fill="#00C5DE"/>
<path d="M1.60246 7.81702C0.873985 7.81702 0.291203 8.40699 0.145508 8.99696C0.145508 9.14445 0.145508 9.14445 0.145508 9.29194C0.145508 10.1769 0.873985 10.9144 1.74816 10.9144C2.62233 10.9144 3.35081 10.1769 3.35081 9.29194C3.35081 9.14445 3.35081 9.14445 3.35081 8.99696C2.91372 8.40699 2.33094 7.81702 1.60246 7.81702Z" fill="#00C5DE"/>
<path d="M9.32433 0C8.45016 0 7.72168 0.737463 7.72168 1.62242C7.72168 2.50737 8.45016 3.24484 9.32433 3.24484C10.1985 3.24484 10.927 2.50737 10.927 1.62242C10.7813 0.737463 10.0528 0 9.32433 0Z" fill="#00C5DE"/>
<path d="M1.60265 39.0856C1.01987 39.0856 0.582781 39.3806 0.291391 39.823C0.145695 39.9705 0 40.2655 0 40.708C0 40.8555 0 41.1505 0.145695 41.298C0.437086 41.8879 0.874172 42.1829 1.60265 42.1829C2.18543 42.1829 2.76821 41.7404 3.0596 41.298C3.2053 41.1505 3.2053 40.8555 3.2053 40.708C3.2053 40.413 3.0596 40.118 2.91391 39.823C2.47682 39.3806 2.03974 39.0856 1.60265 39.0856Z" fill="#00C5DE"/>
<path d="M1.60265 23.4515C0.728477 23.4515 0 24.189 0 25.074C0 25.8114 0.728477 26.5489 1.60265 26.5489C2.47682 26.5489 3.2053 25.8114 3.2053 24.9265C3.0596 24.189 2.33113 23.4515 1.60265 23.4515Z" fill="#00C5DE"/>
<path d="M9.32433 31.2686C8.45016 31.2686 7.72168 32.006 7.72168 32.891C7.72168 33.7759 8.45016 34.5134 9.32433 34.5134C10.1985 34.5134 10.927 33.7759 10.927 32.891C10.7813 32.006 10.0528 31.2686 9.32433 31.2686Z" fill="#00C5DE"/>
<path d="M9.32433 15.634C8.45016 15.634 7.72168 16.3715 7.72168 17.2565C7.72168 18.1414 8.45016 18.8789 9.32433 18.8789C10.1985 18.8789 10.927 18.1414 10.927 17.2565C10.7813 16.3715 10.0528 15.634 9.32433 15.634Z" fill="#00C5DE"/>
<path d="M9.32433 46.9026C8.45016 46.9026 7.72168 47.6401 7.72168 48.525C7.72168 49.41 8.45016 50.1474 9.32433 50.1474C10.1985 50.1474 10.927 49.41 10.927 48.525C10.7813 47.6401 10.0528 46.9026 9.32433 46.9026Z" fill="#00C5DE"/>
</g>
<defs>
<clipPath id="clip0">
<rect width="88" height="50" fill="white"/>
</clipPath>
</defs>
</svg>
