<svg width="20" height="19" viewBox="0 0 20 19" fill="none" xmlns="http://www.w3.org/2000/svg">
<path d="M18.6222 14.3698L14.8937 11.8833C14.4206 11.5703 13.7863 11.6733 13.4365 12.12L12.3505 13.5164C12.2109 13.7004 11.9572 13.7538 11.7553 13.6416L11.5487 13.5278C10.8638 13.1545 10.0117 12.6897 8.29478 10.9722C6.57788 9.2547 6.11221 8.40192 5.73891 7.71832L5.62563 7.51173C5.51192 7.30984 5.5643 7.05505 5.74841 6.91435L7.14388 5.82861C7.59038 5.47877 7.69352 4.8447 7.38088 4.3714L4.8944 0.642916C4.57399 0.160946 3.93115 0.016261 3.43511 0.314444L1.87599 1.25101C1.38611 1.53901 1.0267 2.00544 0.873131 2.55256C0.311696 4.59821 0.734058 8.1287 5.93479 13.33C10.0719 17.4668 13.1517 18.5793 15.2686 18.5793C15.7558 18.5814 16.2411 18.518 16.7114 18.3908C17.2586 18.2374 17.7251 17.878 18.0129 17.3879L18.9504 15.8298C19.249 15.3336 19.1044 14.6904 18.6222 14.3698ZM18.4215 15.5148L17.4861 17.0739C17.2795 17.4276 16.9439 17.6876 16.5499 17.7996C14.6614 18.3181 11.362 17.8886 6.36913 12.8957C1.37622 7.90279 0.946804 4.60375 1.46529 2.71498C1.57738 2.32042 1.83775 1.98447 2.19187 1.77748L3.75099 0.842136C3.96622 0.712632 4.24523 0.775405 4.38427 0.984554L5.73495 3.0124L6.86862 4.71272C7.00438 4.91802 6.95977 5.19318 6.76609 5.34509L5.37029 6.43084C4.94552 6.75564 4.82422 7.34334 5.08574 7.80976L5.19658 8.01114C5.5889 8.73068 6.07666 9.6258 7.85741 11.4063C9.63816 13.1867 10.533 13.6745 11.2522 14.0668L11.4539 14.1779C11.9203 14.4394 12.508 14.3181 12.8328 13.8934L13.9185 12.4976C14.0705 12.304 14.3456 12.2594 14.5509 12.395L18.2791 14.8815C18.4884 15.0204 18.5512 15.2996 18.4215 15.5148Z" fill="#00C5DE"/>
<path d="M11.1224 3.22966C14.0032 3.23286 16.3377 5.56742 16.3409 8.4482C16.3409 8.61774 16.4783 8.75516 16.6479 8.75516C16.8174 8.75516 16.9548 8.61774 16.9548 8.4482C16.9513 5.22848 14.3421 2.61926 11.1224 2.61574C10.9528 2.61574 10.8154 2.75316 10.8154 2.9227C10.8154 3.09224 10.9528 3.22966 11.1224 3.22966Z" fill="#00C5DE"/>
<path d="M11.1224 5.07148C12.9864 5.07368 14.4969 6.5842 14.4991 8.44819C14.4991 8.61773 14.6365 8.75515 14.806 8.75515C14.9756 8.75515 15.113 8.61773 15.113 8.44819C15.1105 6.24526 13.3253 4.46008 11.1224 4.45757C10.9528 4.45757 10.8154 4.59498 10.8154 4.76453C10.8154 4.93407 10.9528 5.07148 11.1224 5.07148Z" fill="#00C5DE"/>
<path d="M11.1224 6.91334C11.9696 6.91435 12.6562 7.60094 12.6573 8.44822C12.6573 8.61776 12.7947 8.75518 12.9642 8.75518C13.1337 8.75518 13.2712 8.61776 13.2712 8.44822C13.2698 7.26203 12.3086 6.30075 11.1224 6.29942C10.9528 6.29942 10.8154 6.43684 10.8154 6.60638C10.8154 6.77593 10.9528 6.91334 11.1224 6.91334Z" fill="#00C5DE"/>
</svg>
