<svg width="30" height="36" viewBox="0 0 30 36" fill="none" xmlns="http://www.w3.org/2000/svg">
<path d="M29.2066 6.61335C27.8181 6.61335 26.7889 6.22468 26.1488 5.45853C25.0121 4.09867 25.382 1.93711 25.388 1.90453C25.4163 1.74886 25.381 1.58859 25.2899 1.45925C25.199 1.32991 25.0598 1.24237 24.9038 1.2167C24.6027 1.167 17.499 0 15.0116 0C12.5242 0 5.42083 1.167 5.11937 1.2167C4.96337 1.2427 4.82449 1.32991 4.73333 1.45925C4.64249 1.58859 4.60695 1.74886 4.63525 1.90453C4.6392 1.92592 5.01405 4.09505 3.87469 5.4582C3.23425 6.22435 2.20481 6.61335 0.816319 6.61335C0.490505 6.61335 0.226562 6.8773 0.226562 7.20311V15.2741C0.226562 17.6946 0.436531 21.347 2.25253 25.1051C4.54409 29.8498 8.76354 33.5002 14.7891 35.9566C14.9316 36.0146 15.0912 36.0146 15.2341 35.9566C21.2597 33.5015 25.4788 29.8511 27.7703 25.1051C29.5867 21.3474 29.7966 17.6946 29.7966 15.2741V7.20311C29.7966 6.8773 29.5324 6.61303 29.2066 6.61335ZM28.6168 15.2744C28.6168 18.7073 28.6168 29.1165 15.0116 34.7712C1.40542 29.1162 1.40607 18.707 1.40607 15.2741V7.77147C2.8752 7.66353 4.01028 7.13828 4.78467 6.2079C5.86314 4.91287 5.92106 3.19001 5.86314 2.29123C7.60872 2.01313 13.0077 1.17918 15.0116 1.17918C17.0152 1.17918 22.4145 2.01313 24.1597 2.29123C24.1015 3.19001 24.1597 4.91287 25.2382 6.2079C26.0133 7.13861 27.1473 7.6632 28.6168 7.77147V15.2744ZM24.4566 6.85821C23.7121 5.92882 23.2642 4.7967 23.1721 3.60929C23.1444 3.34239 22.9397 3.12781 22.6742 3.08733C20.4899 2.75428 16.589 2.19381 15.0116 2.19381C13.4339 2.19381 9.53398 2.75428 7.34905 3.087C7.08346 3.12748 6.87909 3.34206 6.85144 3.60929C6.75864 4.79703 6.31073 5.92915 5.56596 6.85887C4.86135 7.69216 3.91418 8.28455 2.85644 8.5531C2.60007 8.6232 2.42235 8.8562 2.42235 9.12212V15.2741C2.42235 18.4486 2.42235 28.1095 14.7733 33.5637C14.925 33.6309 15.0982 33.6309 15.2499 33.5637C27.6005 28.1095 27.6005 18.4489 27.6005 15.2741V9.12146C27.6005 8.85554 27.4228 8.62287 27.1664 8.55277C26.109 8.28389 25.1615 7.6915 24.4566 6.85821ZM26.421 15.2741C26.421 18.2396 26.421 27.2169 15.0116 32.3786C3.60088 27.2166 3.60186 18.2383 3.60186 15.2741V9.55686C4.7195 9.18531 5.71307 8.51229 6.47297 7.61252C7.27434 6.62849 7.79071 5.44372 7.96546 4.18654C9.88579 3.8989 13.5747 3.37332 15.0116 3.37332C16.4481 3.37332 20.1377 3.89758 22.0581 4.18522C22.2325 5.4424 22.7489 6.62751 23.5506 7.61153C24.3105 8.5113 25.304 9.18366 26.4213 9.55522L26.421 15.2741ZM21.4028 11.7908C20.9069 11.7892 20.431 11.9863 20.0815 12.3378L12.7223 19.6972L9.94174 16.917C9.5919 16.5655 9.11634 16.3683 8.62071 16.3697C7.86509 16.3697 7.18384 16.8248 6.89456 17.5228C6.60527 18.2212 6.76522 19.0245 7.29969 19.559L11.401 23.661C12.1303 24.3909 13.3137 24.3909 14.0434 23.661L22.7238 14.9805C23.2583 14.446 23.4183 13.6424 23.1293 12.944C22.84 12.246 22.1584 11.7905 21.4028 11.7908ZM21.8899 14.1459L13.2091 22.8267C12.9359 23.086 12.5078 23.086 12.2346 22.8267L8.13331 18.7251C7.9365 18.5279 7.87759 18.2317 7.98389 17.9744C8.09052 17.717 8.34163 17.5492 8.62038 17.5492C8.80304 17.5488 8.97878 17.6216 9.10746 17.7512L12.305 20.9485C12.4156 21.0591 12.5657 21.1213 12.722 21.1213C12.8787 21.1213 13.0284 21.0591 13.139 20.9485L20.9154 13.1721C21.1879 12.9111 21.6177 12.9111 21.8906 13.1721C22.0196 13.3011 22.0923 13.4765 22.0923 13.6592C22.0923 13.8418 22.0196 14.0169 21.8906 14.1459H21.8899Z" fill="#00C5DE"/>
</svg>
