<svg width="26" height="26" viewBox="0 0 26 26" fill="none" xmlns="http://www.w3.org/2000/svg">
<path d="M0.427194 12.9942H0.442361C0.67603 12.9944 0.867722 12.8092 0.875684 12.5756C1.11011 5.87885 6.72896 0.640074 13.4258 0.874448C16.0016 0.964634 18.4819 1.87272 20.507 3.46718H18.2008C17.9615 3.46718 17.7675 3.66121 17.7675 3.90051C17.7675 4.13981 17.9615 4.33383 18.2008 4.33383H21.6674H21.6735C21.7074 4.33107 21.7408 4.32441 21.7731 4.3139C21.7953 4.3107 21.8171 4.30594 21.8386 4.2996C21.8507 4.2944 21.8598 4.28357 21.8715 4.27707C21.9104 4.25805 21.9461 4.23303 21.9772 4.20297L21.9816 4.19993C21.9926 4.18488 22.0026 4.16911 22.0115 4.1527C22.0342 4.12508 22.0533 4.09464 22.0682 4.06214C22.0801 4.02758 22.0875 3.99161 22.0899 3.95511C22.0949 3.93723 22.0985 3.91898 22.1007 3.90051V0.433921C22.1007 0.194618 21.9067 0.000597392 21.6674 0.000597392C21.4281 0.000597392 21.2341 0.194618 21.2341 0.433921V2.94373C15.6821 -1.60519 7.49356 -0.792059 2.94464 4.76C1.13914 6.96367 0.107727 9.69951 0.00903729 12.5466C0.0010208 12.7856 0.188162 12.986 0.427194 12.9942Z" fill="white"/>
<path d="M3.93499 21.0637C3.77596 20.8842 3.50156 20.8677 3.32205 21.0267C3.14255 21.1857 3.12597 21.4601 3.285 21.6396C3.58329 21.9744 3.89843 22.2937 4.22921 22.5964C4.4091 22.7543 4.68285 22.7364 4.84074 22.5566C4.99414 22.3818 4.98222 22.1172 4.81377 21.9568C4.50578 21.6744 4.21248 21.3763 3.93499 21.0637Z" fill="white"/>
<path d="M9.10641 24.4951C8.71024 24.361 8.32133 24.2064 7.9412 24.0319C7.72676 23.9257 7.46676 24.0135 7.36054 24.2279C7.25433 24.4423 7.34207 24.7023 7.55651 24.8085C7.56388 24.8122 7.57136 24.8156 7.57894 24.8188C7.98648 25.0065 8.40366 25.1725 8.82865 25.3163C9.05538 25.393 9.3014 25.2713 9.3781 25.0446C9.45485 24.8179 9.3332 24.5718 9.10641 24.4951Z" fill="white"/>
<path d="M6.82983 23.4495V23.4491C6.46969 23.2357 6.12059 23.0043 5.78379 22.7557C5.59589 22.6075 5.32343 22.6397 5.17518 22.8276C5.02693 23.0155 5.0591 23.2879 5.24701 23.4362C5.25405 23.4417 5.2612 23.4471 5.26856 23.4522C5.62876 23.7188 6.00235 23.9668 6.38784 24.1953C6.59378 24.3173 6.85968 24.2494 6.98172 24.0434C7.10381 23.8374 7.03577 23.5715 6.82983 23.4495Z" fill="white"/>
<path d="M3.15044 20.086C2.90616 19.7464 2.67942 19.3945 2.47099 19.0317C2.35134 18.8241 2.08604 18.7528 1.87842 18.8725C1.6708 18.9921 1.59952 19.2574 1.71917 19.4651C1.94244 19.8529 2.18543 20.2291 2.44716 20.5921C2.59086 20.7835 2.8625 20.8221 3.05386 20.6784C3.23976 20.5388 3.28239 20.2774 3.15044 20.086Z" fill="white"/>
<path d="M1.94151 18.0923C1.94151 18.0319 1.92884 17.9722 1.90441 17.917L1.90354 17.9139C1.73395 17.5319 1.58424 17.1414 1.45505 16.7439C1.39222 16.513 1.15406 16.3768 0.923149 16.4396C0.692241 16.5025 0.555961 16.7406 0.618847 16.9716C0.62253 16.985 0.626809 16.9983 0.631738 17.0113C0.770023 17.4382 0.930298 17.8576 1.11186 18.2679C1.18136 18.4248 1.33681 18.5259 1.50835 18.5258C1.74766 18.5257 1.94157 18.3316 1.94151 18.0923Z" fill="white"/>
<path d="M0.797064 16.0446C0.797118 16.0446 0.797226 16.0446 0.79728 16.0446C1.03111 15.9947 1.18039 15.765 1.13094 15.5311C1.0446 15.1217 0.979222 14.7082 0.935077 14.2922C0.909836 14.0541 0.696316 13.8815 0.458205 13.9067C0.220094 13.932 0.0475225 14.1455 0.0727636 14.3836C0.120213 14.8292 0.190465 15.2721 0.283359 15.7105C0.332974 15.9446 0.562961 16.0942 0.797064 16.0446Z" fill="white"/>
<path d="M25.3072 15.6028C25.307 15.6027 25.3068 15.6027 25.3067 15.6027C25.0744 15.5451 24.8395 15.6867 24.7819 15.919C24.6815 16.3252 24.5602 16.726 24.4184 17.1197C24.3372 17.3449 24.454 17.5932 24.6792 17.6744C24.9044 17.7555 25.1527 17.6387 25.2339 17.4135C25.3859 16.9918 25.5161 16.5625 25.6239 16.1274C25.6813 15.8951 25.5395 15.6602 25.3072 15.6028Z" fill="white"/>
<path d="M11.549 25.0468C11.1337 24.9974 10.7212 24.9265 10.3132 24.8345C10.0797 24.7817 9.84769 24.9282 9.79493 25.1616C9.74218 25.3951 9.88864 25.6271 10.1221 25.6799C10.5594 25.7785 11.0016 25.8544 11.4468 25.9074C11.464 25.9095 11.4814 25.9105 11.4988 25.9104C11.7381 25.9099 11.9317 25.7155 11.9312 25.4762C11.9307 25.257 11.7667 25.0727 11.549 25.0468Z" fill="white"/>
<path d="M24.5084 18.074C24.293 17.97 24.0341 18.0602 23.9299 18.2755C23.7477 18.6521 23.5461 19.0191 23.3258 19.3748C23.2033 19.5804 23.2707 19.8464 23.4763 19.9688C23.6768 20.0884 23.9361 20.0274 24.0624 19.8311C24.2983 19.4498 24.5142 19.0565 24.7094 18.6529C24.8138 18.4375 24.7238 18.1783 24.5084 18.074Z" fill="white"/>
<path d="M23.2285 20.3276C23.0412 20.1786 22.7686 20.2097 22.6196 20.3971C22.617 20.4003 22.6145 20.4036 22.612 20.4069V20.4061C22.3563 20.7377 22.0837 21.0559 21.7952 21.3594C21.6302 21.5329 21.637 21.8073 21.8105 21.9723C21.984 22.1373 22.2585 22.1304 22.4235 21.9569C22.732 21.6318 23.0239 21.2912 23.2979 20.9364C23.4469 20.7491 23.4158 20.4765 23.2285 20.3276Z" fill="white"/>
<path d="M25.5741 13.0206C25.3387 13.0086 25.138 13.1897 25.1261 13.4251C25.1258 13.4295 25.1257 13.4339 25.1256 13.4383C25.1109 13.8565 25.0746 14.2736 25.0168 14.688C24.9842 14.9248 25.1494 15.1432 25.386 15.1764C25.4061 15.1793 25.4264 15.1808 25.4467 15.1807C25.6626 15.1804 25.8454 15.0211 25.8752 14.8072C25.9369 14.3633 25.9758 13.9165 25.9918 13.4686C26.0001 13.2296 25.8131 13.029 25.5741 13.0206Z" fill="white"/>
<path d="M20.8871 22.2217V22.223C20.5682 22.4952 20.2356 22.751 19.8905 22.9891C19.6932 23.1255 19.6438 23.3961 19.7802 23.5934C19.9166 23.7907 20.1872 23.8401 20.3845 23.7037C20.7535 23.4474 21.1093 23.1726 21.4505 22.8804C21.6323 22.7248 21.6537 22.4513 21.4981 22.2694C21.3426 22.0875 21.069 22.0661 20.8871 22.2217Z" fill="white"/>
<path d="M16.5155 24.6166C16.1151 24.7373 15.7087 24.8371 15.2979 24.9156C15.0628 24.9609 14.9089 25.188 14.9542 25.423C14.9933 25.6267 15.1714 25.7741 15.3789 25.7745C15.4064 25.7746 15.4338 25.7721 15.4608 25.7671C15.9012 25.6829 16.3368 25.5758 16.766 25.446C16.9932 25.3711 17.1168 25.1261 17.0419 24.8988C16.9696 24.6796 16.7381 24.5555 16.5155 24.6166Z" fill="white"/>
<path d="M14.0777 25.0862C14.0698 25.0866 14.0619 25.0873 14.054 25.0882L14.0561 25.0899C13.7095 25.1194 13.3546 25.1333 13.001 25.1333H12.803C12.5666 25.1366 12.3735 25.3227 12.3614 25.5588C12.3571 25.7981 12.5475 25.9956 12.7868 25.9999C12.7868 25.9999 12.7869 25.9999 12.7869 25.9999H13.001C13.3797 25.9999 13.7593 25.983 14.1276 25.9514C14.3666 25.9376 14.5491 25.7328 14.5353 25.4938C14.5215 25.2549 14.3166 25.0724 14.0777 25.0862Z" fill="white"/>
<path d="M18.8242 23.6466H18.8246C18.4578 23.8475 18.0809 24.0295 17.6954 24.1918C17.4736 24.2817 17.3668 24.5344 17.4567 24.7562C17.5466 24.9779 17.7993 25.0848 18.0211 24.9949C18.0243 24.9936 18.0275 24.9922 18.0307 24.9908C18.4438 24.817 18.8476 24.6221 19.2406 24.4067C19.4505 24.2917 19.5274 24.0283 19.4124 23.8185C19.2975 23.6086 19.0341 23.5317 18.8242 23.6466Z" fill="white"/>
<path d="M13.0002 3.90039C7.9745 3.90039 3.90039 7.9745 3.90039 13.0002C3.90039 18.0259 7.9745 22.1 13.0002 22.1C18.0259 22.1 22.1 18.0259 22.1 13.0002C22.0943 7.97688 18.0235 3.90613 13.0002 3.90039ZM19.9334 13.4335H21.2112C20.9861 17.6322 17.6322 20.9861 13.4335 21.2112V19.9334C13.4335 19.6941 13.2395 19.5 13.0002 19.5C12.7609 19.5 12.5669 19.6941 12.5669 19.9334V21.2112C8.36812 20.9861 5.01425 17.6322 4.78914 13.4335H6.06701C6.30631 13.4335 6.50033 13.2395 6.50033 13.0002C6.50033 12.7609 6.30631 12.5669 6.06701 12.5669H4.78914C5.01425 8.36812 8.36812 5.01425 12.5669 4.78914V6.06701C12.5669 6.30631 12.7609 6.50033 13.0002 6.50033C13.2395 6.50033 13.4335 6.30631 13.4335 6.06701V4.78914C17.6322 5.01425 20.9861 8.36812 21.2112 12.5669H19.9334C19.6941 12.5669 19.5 12.7609 19.5 13.0002C19.5 13.2395 19.6941 13.4335 19.9334 13.4335Z" fill="white"/>
<path d="M13.4338 11.7801V7.80051C13.4338 7.56121 13.2398 7.36719 13.0005 7.36719C12.7612 7.36719 12.5672 7.56121 12.5672 7.80051V11.7801C12.2002 11.9112 11.9113 12.2001 11.7803 12.5671H9.53391C9.29461 12.5671 9.10059 12.7611 9.10059 13.0004C9.10059 13.2397 9.29461 13.4337 9.53391 13.4337H11.7803C12.0177 14.1095 12.7581 14.4648 13.4338 14.2273C14.1096 13.9899 14.4649 13.2495 14.2275 12.5738C14.097 12.2025 13.8051 11.9106 13.4338 11.7801ZM13.0005 13.4337C12.7612 13.4337 12.5672 13.2397 12.5672 13.0004C12.5672 12.7611 12.7612 12.5671 13.0005 12.5671C13.2398 12.5671 13.4338 12.7611 13.4338 13.0004C13.4338 13.2397 13.2399 13.4337 13.0005 13.4337Z" fill="white"/>
</svg>
