<svg width="27" height="27" viewBox="0 0 27 27" fill="none" xmlns="http://www.w3.org/2000/svg">
<path d="M9.10652 23.103H8.32495C7.26536 23.103 6.40308 23.9653 6.40308 25.0249V25.6655C6.40308 26.0198 6.68944 26.3062 7.0437 26.3062H19.8524C20.2066 26.3062 20.493 26.0198 20.493 25.6655V25.0249C20.493 23.9653 19.6307 23.103 18.5711 23.103H17.7895L17.4699 21.8243H24.9722C26.0318 21.8243 26.8941 20.9621 26.8941 19.9025V2.61584C26.8941 1.55625 26.0318 0.69397 24.9722 0.69397H1.92383C0.864234 0.69397 0.00195312 1.55625 0.00195312 2.61584V19.9025C0.00195312 20.9621 0.864234 21.8243 1.92383 21.8243H9.42619L9.10652 23.103ZM8.32495 24.3843H18.5711C18.9247 24.3843 19.2117 24.6713 19.2117 25.0249H7.68433C7.68433 24.6713 7.97133 24.3843 8.32495 24.3843ZM16.4699 23.103H10.4262L10.7459 21.8243H16.1502L16.4699 23.103ZM1.92383 1.97522H24.9729C25.3265 1.97522 25.6135 2.26222 25.6135 2.61584V17.9806H1.2832V2.61584C1.2832 2.26222 1.5702 1.97522 1.92383 1.97522ZM1.2832 19.9025V19.2618H13.4608C13.1072 19.2618 12.8241 19.5482 12.8241 19.9025C12.8241 20.2567 13.1136 20.5431 13.4679 20.5431C13.8215 20.5431 14.1085 20.2567 14.1085 19.9025C14.1085 19.5482 13.8215 19.2618 13.4679 19.2618H25.6135V19.9025C25.6135 20.2561 25.3265 20.5431 24.9729 20.5431H13.4673H1.92383C1.5702 20.5431 1.2832 20.2561 1.2832 19.9025Z" fill="#00C5DE"/>
</svg>
