<svg width="71" height="71" viewBox="0 0 71 71" fill="none" xmlns="http://www.w3.org/2000/svg">
<path d="M64.3438 31.0625H51.0312C50.4186 31.0625 49.9219 31.5592 49.9219 32.1719V67.6719C49.9219 68.2846 50.4186 68.7812 51.0312 68.7812H64.3438C64.9564 68.7812 65.4531 68.2846 65.4531 67.6719V32.1719C65.4531 31.5592 64.9564 31.0625 64.3438 31.0625Z" fill="#828A9E"/>
<path d="M61.0156 35.5H56.5781C55.9654 35.5 55.4688 35.9967 55.4688 36.6094V41.0469C55.4688 41.6596 55.9654 42.1562 56.5781 42.1562H61.0156C61.6283 42.1562 62.125 41.6596 62.125 41.0469V36.6094C62.125 35.9967 61.6283 35.5 61.0156 35.5Z" fill="#9FE0F6"/>
<path d="M61.0156 44.375H56.5781C55.9654 44.375 55.4688 44.8717 55.4688 45.4844V49.9219C55.4688 50.5346 55.9654 51.0312 56.5781 51.0312H61.0156C61.6283 51.0312 62.125 50.5346 62.125 49.9219V45.4844C62.125 44.8717 61.6283 44.375 61.0156 44.375Z" fill="#9FE0F6"/>
<path d="M19.9688 31.0625H6.65625C6.04356 31.0625 5.54688 31.5592 5.54688 32.1719V67.6719C5.54688 68.2846 6.04356 68.7812 6.65625 68.7812H19.9688C20.5814 68.7812 21.0781 68.2846 21.0781 67.6719V32.1719C21.0781 31.5592 20.5814 31.0625 19.9688 31.0625Z" fill="#828A9E"/>
<path d="M14.4219 35.5H9.98438C9.37168 35.5 8.875 35.9967 8.875 36.6094V41.0469C8.875 41.6596 9.37168 42.1562 9.98438 42.1562H14.4219C15.0346 42.1562 15.5312 41.6596 15.5312 41.0469V36.6094C15.5312 35.9967 15.0346 35.5 14.4219 35.5Z" fill="#9FE0F6"/>
<path d="M14.4219 44.375H9.98438C9.37168 44.375 8.875 44.8717 8.875 45.4844V49.9219C8.875 50.5346 9.37168 51.0312 9.98438 51.0312H14.4219C15.0346 51.0312 15.5312 50.5346 15.5312 49.9219V45.4844C15.5312 44.8717 15.0346 44.375 14.4219 44.375Z" fill="#9FE0F6"/>
<path d="M51.0312 18.8594H19.9688C19.3561 18.8594 18.8594 19.3561 18.8594 19.9688V67.6719C18.8594 68.2846 19.3561 68.7812 19.9688 68.7812H51.0312C51.6439 68.7812 52.1406 68.2846 52.1406 67.6719V19.9688C52.1406 19.3561 51.6439 18.8594 51.0312 18.8594Z" fill="#E0EBFF"/>
<path d="M27.7344 23.2969H23.2969C22.6842 23.2969 22.1875 23.7936 22.1875 24.4062V28.8438C22.1875 29.4564 22.6842 29.9531 23.2969 29.9531H27.7344C28.3471 29.9531 28.8438 29.4564 28.8438 28.8438V24.4062C28.8438 23.7936 28.3471 23.2969 27.7344 23.2969Z" fill="#9FE0F6"/>
<path d="M37.7188 23.2969H33.2812C32.6686 23.2969 32.1719 23.7936 32.1719 24.4062V28.8438C32.1719 29.4564 32.6686 29.9531 33.2812 29.9531H37.7188C38.3314 29.9531 38.8281 29.4564 38.8281 28.8438V24.4062C38.8281 23.7936 38.3314 23.2969 37.7188 23.2969Z" fill="#9FE0F6"/>
<path d="M47.7031 23.2969H43.2656C42.6529 23.2969 42.1562 23.7936 42.1562 24.4062V28.8438C42.1562 29.4564 42.6529 29.9531 43.2656 29.9531H47.7031C48.3158 29.9531 48.8125 29.4564 48.8125 28.8438V24.4062C48.8125 23.7936 48.3158 23.2969 47.7031 23.2969Z" fill="#9FE0F6"/>
<path d="M27.7344 32.1719H23.2969C22.6842 32.1719 22.1875 32.6686 22.1875 33.2812V37.7188C22.1875 38.3314 22.6842 38.8281 23.2969 38.8281H27.7344C28.3471 38.8281 28.8438 38.3314 28.8438 37.7188V33.2812C28.8438 32.6686 28.3471 32.1719 27.7344 32.1719Z" fill="#9FE0F6"/>
<path d="M37.7188 32.1719H33.2812C32.6686 32.1719 32.1719 32.6686 32.1719 33.2812V37.7188C32.1719 38.3314 32.6686 38.8281 33.2812 38.8281H37.7188C38.3314 38.8281 38.8281 38.3314 38.8281 37.7188V33.2812C38.8281 32.6686 38.3314 32.1719 37.7188 32.1719Z" fill="#9FE0F6"/>
<path d="M47.7031 32.1719H43.2656C42.6529 32.1719 42.1562 32.6686 42.1562 33.2812V37.7188C42.1562 38.3314 42.6529 38.8281 43.2656 38.8281H47.7031C48.3158 38.8281 48.8125 38.3314 48.8125 37.7188V33.2812C48.8125 32.6686 48.3158 32.1719 47.7031 32.1719Z" fill="#9FE0F6"/>
<path d="M27.7344 41.0469H23.2969C22.6842 41.0469 22.1875 41.5436 22.1875 42.1562V46.5938C22.1875 47.2064 22.6842 47.7031 23.2969 47.7031H27.7344C28.3471 47.7031 28.8438 47.2064 28.8438 46.5938V42.1562C28.8438 41.5436 28.3471 41.0469 27.7344 41.0469Z" fill="#9FE0F6"/>
<path d="M37.7188 41.0469H33.2812C32.6686 41.0469 32.1719 41.5436 32.1719 42.1562V46.5938C32.1719 47.2064 32.6686 47.7031 33.2812 47.7031H37.7188C38.3314 47.7031 38.8281 47.2064 38.8281 46.5938V42.1562C38.8281 41.5436 38.3314 41.0469 37.7188 41.0469Z" fill="#9FE0F6"/>
<path d="M47.7031 41.0469H43.2656C42.6529 41.0469 42.1562 41.5436 42.1562 42.1562V46.5938C42.1562 47.2064 42.6529 47.7031 43.2656 47.7031H47.7031C48.3158 47.7031 48.8125 47.2064 48.8125 46.5938V42.1562C48.8125 41.5436 48.3158 41.0469 47.7031 41.0469Z" fill="#9FE0F6"/>
<path d="M44.375 52.1406H26.625C26.3308 52.1406 26.0486 52.0237 25.8406 51.8157C25.6325 51.6076 25.5156 51.3255 25.5156 51.0312C25.5156 50.737 25.6325 50.4549 25.8406 50.2468C26.0486 50.0388 26.3308 49.9219 26.625 49.9219H44.375C44.6692 49.9219 44.9514 50.0388 45.1594 50.2468C45.3675 50.4549 45.4844 50.737 45.4844 51.0312C45.4844 51.3255 45.3675 51.6076 45.1594 51.8157C44.9514 52.0237 44.6692 52.1406 44.375 52.1406Z" fill="#828A9E"/>
<path d="M28.8438 51.0312H42.1562V67.6719H28.8438V51.0312Z" fill="#9FE0F6"/>
<path d="M42.1562 49.9219H28.8438C28.5495 49.9219 28.2674 50.0388 28.0593 50.2468C27.8513 50.4549 27.7344 50.737 27.7344 51.0312V67.6719C27.7344 67.9661 27.8513 68.2483 28.0593 68.4563C28.2674 68.6644 28.5495 68.7812 28.8438 68.7812H42.1562C42.4505 68.7812 42.7326 68.6644 42.9407 68.4563C43.1487 68.2483 43.2656 67.9661 43.2656 67.6719V51.0312C43.2656 50.737 43.1487 50.4549 42.9407 50.2468C42.7326 50.0388 42.4505 49.9219 42.1562 49.9219ZM29.9531 52.1406H34.3906V66.5625H29.9531V52.1406ZM41.0469 66.5625H36.6094V52.1406H41.0469V66.5625Z" fill="#828A9E"/>
<path d="M67.6719 68.7812H3.32812C3.0339 68.7812 2.75173 68.6644 2.54368 68.4563C2.33563 68.2483 2.21875 67.9661 2.21875 67.6719C2.21875 67.3777 2.33563 67.0955 2.54368 66.8874C2.75173 66.6794 3.0339 66.5625 3.32812 66.5625H67.6719C67.9661 66.5625 68.2483 66.6794 68.4563 66.8874C68.6644 67.0955 68.7812 67.3777 68.7812 67.6719C68.7812 67.9661 68.6644 68.2483 68.4563 68.4563C68.2483 68.6644 67.9661 68.7812 67.6719 68.7812Z" fill="#333333"/>
</svg>
