<svg width="23" height="23" viewBox="0 0 23 23" fill="none" xmlns="http://www.w3.org/2000/svg">
<path d="M12.6333 23H11.2067C10.5218 23 9.96452 22.4428 9.96452 21.7579V21.7105C9.96452 21.0256 10.5218 20.4684 11.2067 20.4684H12.6331C13.2075 20.4684 13.6919 20.8601 13.8335 21.3904H17.2684C19.5186 21.3904 21.3492 19.5598 21.3492 17.3096V15.7912H21.09V16.6391C21.09 17.285 20.5646 17.8104 19.9188 17.8104H18.9462C18.7973 17.8104 18.6707 17.7158 18.6228 17.5834H18.2185C17.7222 17.5834 17.3183 17.1993 17.3183 16.7271V11.2556C17.3183 10.7834 17.7222 10.3992 18.2185 10.3992H18.6228C18.6707 10.2668 18.7973 10.1723 18.9462 10.1723H19.9818C20.5928 10.1723 21.09 10.6693 21.09 11.2805V12.1914H21.3492V11.1014C21.3492 5.35926 16.9309 0.687672 11.4999 0.687672C6.06897 0.687672 1.65056 5.35926 1.65056 11.1014V12.1914H1.9097V11.2805C1.9097 10.6693 2.40689 10.1723 3.01788 10.1723H4.05352C4.2024 10.1723 4.32905 10.2668 4.37695 10.3992H4.78119C5.27758 10.3992 5.68147 10.7834 5.68147 11.2556V16.7271C5.68147 17.1993 5.27758 17.5834 4.78119 17.5834H4.37695C4.32905 17.7158 4.2024 17.8104 4.05352 17.8104H3.08092C2.43508 17.8104 1.9097 17.285 1.9097 16.6391V15.7912H1.30673C1.11681 15.7912 0.962891 15.6373 0.962891 15.4474V11.1014C0.962891 4.98012 5.68983 0 11.4999 0C17.31 0 22.0369 4.98012 22.0369 11.1014V17.3095C22.0369 19.9388 19.8978 22.0779 17.2685 22.0779H13.8336C13.692 22.6083 13.2075 23 12.6333 23ZM11.2067 21.156C10.9009 21.156 10.6522 21.4047 10.6522 21.7104V21.7578C10.6522 22.0635 10.9009 22.3122 11.2067 22.3122H12.6331C12.9389 22.3122 13.1876 22.0635 13.1876 21.7578V21.7104C13.1876 21.4047 12.9389 21.156 12.6331 21.156H11.2067ZM19.3314 17.1226H19.9189C20.1855 17.1226 20.4025 16.9056 20.4025 16.639V11.2805C20.4025 11.0486 20.2138 10.8599 19.982 10.8599H19.3314V17.1226ZM3.01788 10.8599C2.78602 10.8599 2.59737 11.0486 2.59737 11.2805V16.639C2.59737 16.9057 2.81433 17.1226 3.08092 17.1226H3.70968V10.8599H3.01788ZM18.2185 11.0869C18.1032 11.0869 18.0059 11.1641 18.0059 11.2556V16.7271C18.0059 16.8185 18.1033 16.8958 18.2185 16.8958H18.6437V11.0869H18.2185ZM4.39735 16.8958H4.78131C4.8966 16.8958 4.99391 16.8185 4.99391 16.7271V11.2556C4.99391 11.1641 4.89649 11.0869 4.78131 11.0869H4.39735V16.8958ZM21.0901 15.1035H21.3493V12.8791H21.0901V15.1035ZM1.65056 15.1035H1.9097V12.8791H1.65056V15.1035Z" fill="white"/>
</svg>
