<svg width="26" height="26" viewBox="0 0 26 26" fill="none" xmlns="http://www.w3.org/2000/svg">
<path d="M25.1738 19.0952L24.5152 18.9688C24.2064 18.9095 23.9632 18.7075 23.8483 18.4142C23.7329 18.1213 23.7739 17.808 23.96 17.5543L24.3738 16.9906C24.507 16.809 24.4878 16.5572 24.3281 16.398L23.4346 15.5049C23.2799 15.3507 23.0368 15.3275 22.8562 15.4497L22.3011 15.8256C22.0411 16.003 21.7254 16.0313 21.4367 15.9054C21.1484 15.78 20.9554 15.5291 20.9076 15.2175L20.8013 14.5265C20.7675 14.3043 20.5759 14.1401 20.3511 14.1401H19.0876C18.8691 14.1401 18.6807 14.2957 18.6396 14.5105L18.4763 15.3612C18.4184 15.6632 18.2218 15.904 17.9376 16.0217C17.6525 16.1408 17.3442 16.1079 17.0892 15.9355L16.3721 15.4502C16.1911 15.3279 15.9484 15.3512 15.7938 15.5054L14.9002 16.3985C14.7405 16.5577 14.7214 16.809 14.8546 16.991L15.2683 17.5548C15.4544 17.8084 15.4954 18.1218 15.38 18.4146C15.2651 18.7079 15.022 18.91 14.7132 18.9693L14.0545 19.0956C13.8401 19.1367 13.6846 19.3246 13.6846 19.5436V20.8071C13.6846 21.032 13.8488 21.2235 14.0714 21.2578L14.7624 21.364C15.074 21.4119 15.3244 21.6049 15.4503 21.8932C15.5762 22.1819 15.547 22.4966 15.3705 22.7575L14.9946 23.3127C14.8719 23.4933 14.8952 23.7364 15.0498 23.891L15.9429 24.7846C16.1017 24.9438 16.353 24.9625 16.5354 24.8302L17.0992 24.4165C17.3524 24.2304 17.6667 24.1898 17.9591 24.3048C18.2524 24.4197 18.4544 24.6628 18.5137 24.9716L18.6401 25.6303C18.6811 25.8442 18.8691 25.9998 19.088 25.9998H20.3515C20.5764 25.9998 20.768 25.8356 20.8022 25.613L20.877 25.1272C20.9249 24.8134 21.1288 24.5543 21.4212 24.4329C21.7149 24.3116 22.042 24.3513 22.2974 24.5388L22.6938 24.8298C22.8763 24.9634 23.1276 24.9438 23.2863 24.7842L24.1794 23.8906C24.3341 23.736 24.3573 23.4933 24.2346 23.3122L23.8588 22.7571C23.6823 22.4966 23.6531 22.1814 23.779 21.8927C23.9044 21.6044 24.1553 21.4115 24.4668 21.3636L25.1579 21.2573C25.38 21.2231 25.5442 21.0315 25.5442 20.8066V19.5431C25.5442 19.3246 25.3887 19.1367 25.1738 19.0952ZM24.6319 20.4157L24.3277 20.4627C23.7101 20.5576 23.1924 20.9562 22.9429 21.5287C22.6929 22.1016 22.7531 22.7521 23.1034 23.2689L23.2681 23.512L22.9178 23.8623L22.837 23.803C22.3216 23.4258 21.6625 23.346 21.0722 23.59C20.482 23.8345 20.0724 24.3572 19.9752 24.9881L19.9601 25.0875H19.4648L19.4096 24.7988C19.2914 24.1848 18.8736 23.6826 18.2925 23.4545C17.7109 23.2274 17.0632 23.3113 16.5592 23.6799L16.311 23.8619L15.9607 23.5115L16.1254 23.2684C16.4757 22.7512 16.5354 22.1007 16.2859 21.5282C16.0364 20.9558 15.5183 20.5571 14.9011 20.4622L14.5969 20.4157V19.9203L14.8856 19.8652C15.4996 19.747 16.0018 19.3292 16.2298 18.7481C16.4579 18.1665 16.3735 17.5188 16.0045 17.0147L15.8225 16.7666L16.1728 16.4163L16.5783 16.6909C17.0833 17.0339 17.7232 17.0982 18.2875 16.8647C18.8517 16.6307 19.2577 16.133 19.3731 15.5332L19.4648 15.0524H19.9601L20.0071 15.3567C20.102 15.9743 20.5007 16.492 21.0731 16.7415C21.646 16.991 22.2965 16.9313 22.8133 16.5809L23.0564 16.4163L23.4067 16.7666L23.2247 17.0147C22.8553 17.5183 22.7713 18.166 22.9994 18.7481C23.2275 19.3292 23.7302 19.747 24.3437 19.8652L24.6319 19.9203V20.4157Z" fill="white"/>
<path d="M19.6137 17.7896C18.3561 17.7896 17.333 18.8127 17.333 20.0703C17.333 21.3278 18.3561 22.351 19.6137 22.351C20.8713 22.351 21.8944 21.3278 21.8944 20.0703C21.8944 18.8127 20.8713 17.7896 19.6137 17.7896ZM19.6137 21.4387C18.8593 21.4387 18.2453 20.8247 18.2453 20.0703C18.2453 19.3158 18.8593 18.7018 19.6137 18.7018C20.3682 18.7018 20.9821 19.3158 20.9821 20.0703C20.9821 20.8247 20.3682 21.4387 19.6137 21.4387Z" fill="white"/>
<path d="M11.8596 18.7018C11.4823 18.7018 11.1129 18.6945 10.7502 18.6817C10.5285 18.6735 10.3146 18.6593 10.0984 18.6466C9.96476 18.6388 9.827 18.6338 9.69563 18.6242C9.40827 18.6037 9.12911 18.5768 8.85314 18.548C8.80114 18.5426 8.74686 18.5389 8.69532 18.5334C8.37921 18.4988 8.07132 18.4591 7.77118 18.4153C7.76342 18.4144 7.75567 18.4135 7.74791 18.4121C6.20388 18.184 4.87879 17.836 3.8429 17.4227C3.83742 17.4209 3.83195 17.4186 3.82648 17.4163C3.63535 17.3397 3.45609 17.2603 3.28549 17.1796C3.26588 17.17 3.2449 17.1609 3.22528 17.1513C3.07202 17.0774 2.93016 17.0017 2.79423 16.9246C2.7623 16.9064 2.72855 16.8886 2.69753 16.8699C2.57939 16.8006 2.47174 16.7299 2.36865 16.6587C2.32942 16.6313 2.28883 16.604 2.25142 16.5766C2.1643 16.5123 2.0863 16.4475 2.01149 16.3823C1.9709 16.3462 1.9303 16.3107 1.8929 16.2746C1.83177 16.2153 1.77795 16.1556 1.72732 16.0958C1.69174 16.0539 1.65753 16.0114 1.62742 15.9695C1.58728 15.9134 1.55307 15.8573 1.52251 15.8012C1.49788 15.756 1.47598 15.7108 1.45728 15.6657C1.43493 15.6105 1.41714 15.5553 1.40437 15.5006C1.38704 15.428 1.36834 15.3541 1.36834 15.2807V11.5372C1.38111 11.549 1.39707 11.5604 1.4103 11.5723C1.5102 11.6594 1.611 11.7465 1.72504 11.8305C3.44332 13.1305 6.87942 14.1404 11.8596 14.1404C16.8192 14.1404 20.2462 13.1387 21.9717 11.8469C22.1095 11.7465 22.2336 11.643 22.3503 11.5376L22.3508 13.2281C22.3508 13.4803 22.5547 13.6842 22.8069 13.6842C23.0592 13.6842 23.2631 13.4803 23.2631 13.2281V10.0351V9.80702V4.33333V4.10526C23.2631 4.02225 23.2348 3.94881 23.1965 3.88175C22.6683 1.92491 18.7368 0 11.8596 0C4.98234 0 1.05041 1.92491 0.522651 3.88175C0.484335 3.94881 0.456055 4.02225 0.456055 4.10526V4.33333V9.80702V10.0351V15.2807V15.5088V20.9825C0.456055 21.0559 0.475213 21.1252 0.508511 21.1868C1.02805 23.3913 5.38511 24.69 9.54465 25.002C9.55605 25.0029 9.56791 25.0033 9.57932 25.0033C9.81605 25.0033 10.0158 24.8213 10.0336 24.5814C10.0523 24.3301 9.86441 24.1111 9.61307 24.0924C4.54353 23.712 1.58911 22.1684 1.38293 20.9086C1.37928 20.888 1.37472 20.8684 1.36834 20.8488V17.0108C1.38111 17.0227 1.39707 17.0341 1.4103 17.046C1.5102 17.1331 1.611 17.2202 1.72504 17.3041C3.44332 18.6041 6.87942 19.614 11.8596 19.614C12.1118 19.614 12.3157 19.4101 12.3157 19.1579C12.3157 18.9056 12.1118 18.7018 11.8596 18.7018ZM1.64248 6.29337C1.77932 6.40102 1.92711 6.5073 2.08721 6.61084C2.12051 6.63228 2.15791 6.65326 2.19258 6.6747C2.32669 6.75818 2.46855 6.83982 2.6177 6.9201C2.6729 6.94975 2.72809 6.97895 2.78556 7.00814C2.95205 7.09298 3.12676 7.17509 3.31058 7.25537C3.34069 7.2686 3.36805 7.28228 3.39816 7.29505C3.61209 7.38582 3.83925 7.47249 4.07598 7.55596C4.14121 7.57923 4.20963 7.60112 4.27669 7.62393C4.46462 7.68733 4.65893 7.748 4.86009 7.80684C4.93262 7.82782 5.00377 7.84972 5.07812 7.87025C5.34497 7.94414 5.62048 8.01439 5.90967 8.07916C5.94935 8.08828 5.99223 8.09604 6.03237 8.1047C6.28735 8.16035 6.55191 8.21189 6.82377 8.25979C6.91591 8.27621 7.00942 8.29172 7.10339 8.30723C7.36202 8.34965 7.62841 8.38888 7.90163 8.42446C7.97188 8.43358 8.03939 8.44361 8.11009 8.45274C8.44946 8.49379 8.80023 8.52891 9.16149 8.55902C9.25044 8.56632 9.34304 8.57179 9.43335 8.57818C9.72209 8.59916 10.0172 8.61649 10.3192 8.63018C10.4291 8.63519 10.5386 8.64021 10.6508 8.64386C11.044 8.65709 11.4445 8.66667 11.8596 8.66667C12.2747 8.66667 12.6751 8.65709 13.0683 8.64386C13.1801 8.64021 13.2896 8.63474 13.3999 8.63018C13.7019 8.61649 13.997 8.59916 14.2858 8.57818C14.3761 8.57133 14.4687 8.56632 14.5576 8.55902C14.9184 8.52937 15.2697 8.49379 15.609 8.45274C15.6802 8.44407 15.7472 8.43358 15.8175 8.42446C16.0907 8.38888 16.3567 8.34965 16.6157 8.30723C16.7097 8.29172 16.8032 8.27621 16.8954 8.25979C17.1672 8.21189 17.4318 8.16035 17.6868 8.1047C17.7269 8.09604 17.7698 8.08828 17.8095 8.07916C18.0986 8.01439 18.3742 7.94414 18.641 7.87025C18.7154 7.84972 18.7865 7.82828 18.859 7.80684C19.0602 7.74846 19.2545 7.68733 19.4424 7.62393C19.5095 7.60112 19.5779 7.57923 19.6431 7.55596C19.8794 7.47203 20.107 7.38537 20.321 7.29505C20.3515 7.28228 20.3789 7.26814 20.4085 7.25537C20.5924 7.17509 20.7671 7.09298 20.9336 7.00814C20.9906 6.97895 21.0462 6.94975 21.1014 6.9201C21.2506 6.84028 21.3924 6.75863 21.5265 6.6747C21.5612 6.65326 21.5986 6.63228 21.6319 6.61084C21.792 6.5073 21.9398 6.40147 22.0767 6.29337C22.1109 6.266 22.1414 6.23863 22.1743 6.21126C22.2336 6.162 22.2961 6.11319 22.3508 6.06347V9.80702C22.3508 9.88046 22.3321 9.95435 22.3148 10.0282C22.302 10.0834 22.2842 10.1382 22.2618 10.1934C22.2436 10.2385 22.2212 10.2837 22.1966 10.3288C22.1661 10.3849 22.1318 10.4411 22.0917 10.4972C22.0616 10.5391 22.0274 10.5815 21.9918 10.6235C21.9412 10.6833 21.8874 10.743 21.8262 10.8023C21.7893 10.8384 21.7487 10.8739 21.7076 10.91C21.6328 10.9752 21.5548 11.04 21.4677 11.1043C21.4303 11.1321 21.3902 11.159 21.3505 11.1864C21.2474 11.2575 21.1397 11.3282 21.0216 11.3976C20.9906 11.4163 20.9573 11.4341 20.9249 11.4523C20.7894 11.5289 20.6471 11.6047 20.4938 11.679C20.4742 11.6886 20.4537 11.6977 20.4336 11.7073C20.2626 11.788 20.0838 11.8674 19.8927 11.944C19.8872 11.9463 19.8817 11.9481 19.8762 11.9504C18.8403 12.3641 17.5152 12.7122 15.9712 12.9398C15.9635 12.9407 15.9557 12.9416 15.9479 12.943C15.6478 12.9872 15.3399 13.0269 15.0238 13.0611C14.9723 13.0666 14.918 13.0702 14.866 13.0757C14.59 13.1045 14.3104 13.1309 14.0235 13.1519C13.8921 13.1615 13.7544 13.1665 13.6207 13.1742C13.4045 13.187 13.1906 13.2012 12.9689 13.2094C12.6063 13.2208 12.2368 13.2281 11.8596 13.2281C11.4823 13.2281 11.1129 13.2208 10.7502 13.208C10.5285 13.1998 10.3146 13.1856 10.0984 13.1729C9.96476 13.1651 9.827 13.1601 9.69563 13.1505C9.40827 13.13 9.12911 13.1031 8.85314 13.0744C8.80114 13.0689 8.74686 13.0652 8.69532 13.0598C8.37921 13.0251 8.07132 12.9854 7.77118 12.9416C7.76342 12.9407 7.75567 12.9398 7.74791 12.9384C6.20388 12.7104 4.87879 12.3623 3.8429 11.9491C3.83742 11.9472 3.83195 11.9449 3.82648 11.9427C3.63535 11.866 3.45609 11.7867 3.28549 11.7059C3.26588 11.6964 3.2449 11.6872 3.22528 11.6776C3.07202 11.6038 2.93016 11.528 2.79423 11.4509C2.7623 11.4327 2.72855 11.4149 2.69753 11.3962C2.57939 11.3269 2.47174 11.2562 2.36865 11.185C2.32942 11.1576 2.28883 11.1303 2.25142 11.1029C2.1643 11.0386 2.0863 10.9738 2.01149 10.9086C1.9709 10.8726 1.9303 10.837 1.8929 10.8009C1.83177 10.7416 1.77795 10.6819 1.72732 10.6221C1.69174 10.5802 1.65753 10.5378 1.62742 10.4958C1.58728 10.4397 1.55307 10.3836 1.52251 10.3275C1.49788 10.2823 1.47598 10.2372 1.45728 10.192C1.43493 10.1368 1.41714 10.0816 1.40437 10.0269C1.38704 9.95435 1.36834 9.88046 1.36834 9.80702V6.06347C1.42307 6.11319 1.48556 6.162 1.54486 6.21126C1.5777 6.23863 1.60827 6.266 1.64248 6.29337ZM11.8596 0.912281C18.0425 0.912281 22.3508 2.71495 22.3508 4.33333C22.3508 5.95172 18.0425 7.75439 11.8596 7.75439C5.67658 7.75439 1.36834 5.95172 1.36834 4.33333C1.36834 2.71495 5.67658 0.912281 11.8596 0.912281Z" fill="white"/>
</svg>
