<svg width="30" height="22" viewBox="0 0 30 22" fill="none" xmlns="http://www.w3.org/2000/svg">
<path d="M24.2871 7.04639H22.3984L22.9674 0.512639C22.9685 0.500803 22.9687 0.489143 22.9687 0.477482C22.9687 0.476486 22.9688 0.475549 22.9688 0.474552C22.9688 0.474377 22.9688 0.47426 22.9688 0.474084C22.9688 0.296251 22.8616 0.139512 22.7039 0.0713675C22.7025 0.0707816 22.7012 0.0700786 22.6999 0.0694927C22.6901 0.0653911 22.68 0.0618753 22.6698 0.0584768C22.666 0.0572463 22.6623 0.0557228 22.6585 0.0545509C22.6502 0.0520314 22.6417 0.0500392 22.6332 0.0479884C22.6272 0.0465822 22.6214 0.0448831 22.6154 0.0437112C22.608 0.0422463 22.6002 0.041309 22.5926 0.0401957C22.5855 0.039141 22.5784 0.0379103 22.5712 0.0372658C22.57 0.0371486 22.5689 0.0369141 22.5676 0.0367969C22.5599 0.0360937 22.5523 0.036211 22.5446 0.035918C22.5395 0.0357422 22.5344 0.0351562 22.5293 0.0351562H22.5238C22.5233 0.0351562 22.5228 0.0351562 22.5224 0.0351562H13.5358C13.2932 0.0351562 13.0963 0.232032 13.0963 0.474611C13.0963 0.716604 13.2932 0.914066 13.5358 0.914066H22.0503L21.1757 10.9556C21.1756 10.9564 21.1756 10.9571 21.1755 10.9579L20.9548 13.4916H5.68467L5.94008 10.8549H8.84757C9.09033 10.8549 9.28703 10.6582 9.28703 10.4155C9.28703 10.1728 9.09033 9.97603 8.84757 9.97603H6.02528L6.56458 4.4099H11.192C11.4348 4.4099 11.6315 4.21314 11.6315 3.97044C11.6315 3.72775 11.4348 3.53099 11.192 3.53099H6.64977L6.90337 0.914066H11.778C12.02 0.914066 12.2174 0.716604 12.2174 0.474611C12.2174 0.232032 12.02 0.0351562 11.778 0.0351562H6.50452C6.50428 0.0351562 6.50411 0.0352148 6.50387 0.0352148C6.29745 0.0351562 6.11838 0.18047 6.07508 0.381916C6.07479 0.383381 6.07426 0.384787 6.07397 0.386252C6.07174 0.397209 6.07028 0.4084 6.06881 0.41965C6.0684 0.423224 6.06764 0.426623 6.06729 0.430197C6.06723 0.4309 6.06706 0.431544 6.067 0.432248L5.76676 3.53099H0.439455C0.1967 3.53099 0 3.72775 0 3.97044C0 4.21314 0.1967 4.4099 0.439455 4.4099H5.68157L5.14227 9.97603H3.57435C3.3316 9.97603 3.1349 10.1728 3.1349 10.4155C3.1349 10.6582 3.3316 10.8549 3.57435 10.8549H5.05713L4.76346 13.8855C4.7634 13.8859 4.7634 13.8864 4.76334 13.8868L4.30929 18.5731C4.30924 18.5736 4.30918 18.5742 4.30912 18.5747L4.30894 18.5764C4.30836 18.5825 4.30842 18.5885 4.30806 18.5946C4.30765 18.6026 4.30683 18.6106 4.30683 18.6188C4.30683 18.6191 4.30689 18.6195 4.30689 18.6199C4.30689 18.6312 4.30771 18.6423 4.30853 18.6534C4.30888 18.657 4.30877 18.6607 4.30918 18.6642C4.31035 18.6755 4.31228 18.6867 4.31433 18.6979C4.31492 18.7011 4.31521 18.7045 4.31586 18.7077C4.31756 18.7161 4.31996 18.7243 4.32219 18.7325C4.32371 18.7383 4.32494 18.7443 4.3267 18.75C4.32722 18.7515 4.32793 18.7531 4.3284 18.7547C4.34967 18.8201 4.38576 18.8788 4.43287 18.9267C4.43375 18.9276 4.43445 18.9286 4.43533 18.9294C4.44002 18.9341 4.44512 18.9383 4.45004 18.9428C4.48033 18.9706 4.51455 18.9941 4.55199 19.0126C4.55978 19.0164 4.56746 19.0205 4.57543 19.0238C4.57783 19.0249 4.58041 19.0256 4.58287 19.0265C4.59388 19.0309 4.60496 19.0351 4.61639 19.0387C4.61744 19.039 4.61844 19.0392 4.61949 19.0395C4.6325 19.0434 4.64562 19.0468 4.65904 19.0495C4.6608 19.0499 4.66262 19.05 4.66432 19.0504C4.67709 19.0528 4.68992 19.0548 4.70299 19.0561C4.70328 19.0561 4.70351 19.0562 4.70381 19.0562C4.71822 19.0576 4.73252 19.0583 4.7467 19.0583C4.74687 19.0583 4.74711 19.0583 4.74734 19.0583H6.70368C6.91971 20.6961 8.32392 21.9647 10.0199 21.9647C11.7158 21.9647 13.12 20.6961 13.336 19.0583H20.3848C20.6009 20.6961 22.0051 21.9647 23.701 21.9647C25.3969 21.9647 26.8012 20.6961 27.0173 19.0583H28.9741C28.9744 19.0583 28.9748 19.0583 28.9751 19.0583C28.9897 19.0583 29.0041 19.0575 29.0184 19.056C29.021 19.0558 29.0235 19.0553 29.0261 19.055C29.0375 19.0536 29.0488 19.0521 29.06 19.0498C29.0648 19.0489 29.0694 19.0476 29.0742 19.0465C29.0828 19.0445 29.0914 19.0424 29.0999 19.0399C29.1056 19.0382 29.1112 19.0362 29.1168 19.0343C29.124 19.0318 29.1312 19.0292 29.1383 19.0263C29.1444 19.0239 29.1502 19.0213 29.1561 19.0187C29.1626 19.0157 29.169 19.0126 29.1753 19.0094C29.1813 19.0064 29.187 19.0032 29.1928 18.9999C29.1988 18.9964 29.2048 18.9928 29.2107 18.989C29.2162 18.9855 29.2217 18.9819 29.227 18.9782C29.2329 18.974 29.2386 18.9696 29.2444 18.9652C29.2492 18.9614 29.2541 18.9576 29.2588 18.9536C29.2648 18.9485 29.2705 18.9432 29.2762 18.9377C29.2802 18.9339 29.2844 18.9302 29.2883 18.9262C29.2944 18.92 29.3002 18.9134 29.306 18.9068C29.3091 18.9032 29.3123 18.8998 29.3153 18.8961C29.3217 18.8882 29.3276 18.88 29.3334 18.8717C29.3354 18.8688 29.3377 18.8661 29.3396 18.8632C29.3467 18.8525 29.3535 18.8415 29.3597 18.8301C29.3602 18.8294 29.3606 18.8288 29.3609 18.828C29.3675 18.8158 29.3736 18.8033 29.3791 18.7904C29.3806 18.7867 29.3818 18.7829 29.3832 18.7792C29.3868 18.7702 29.3903 18.7611 29.3933 18.7517C29.3953 18.7456 29.3967 18.7393 29.3984 18.7331C29.4003 18.7258 29.4023 18.7185 29.404 18.7111C29.4054 18.7045 29.4064 18.6977 29.4075 18.6909C29.4085 18.685 29.4098 18.6792 29.4105 18.6732C29.4292 18.5239 29.7733 15.763 29.927 13.9778C29.9272 13.9761 29.9272 13.9743 29.9274 13.9726C29.9716 13.458 30 13.0246 30 12.7593C30 9.60923 27.4372 7.04639 24.2871 7.04639ZM22.3218 7.92542H24.1196L23.89 10.5619H22.0922L22.3218 7.92542ZM10.02 21.0857C8.65966 21.0857 7.55294 19.979 7.55294 18.6187C7.55294 17.2584 8.65972 16.1517 10.02 16.1517C11.3804 16.1517 12.4871 17.2584 12.4871 18.6187C12.4871 19.979 11.3804 21.0857 10.02 21.0857ZM23.701 21.0857C22.3407 21.0857 21.234 19.979 21.234 18.6187C21.234 17.2584 22.3408 16.1517 23.701 16.1517C25.0614 16.1517 26.1681 17.2584 26.1681 18.6187C26.1681 19.979 25.0614 21.0857 23.701 21.0857ZM28.5858 18.1791H27.0175C26.8015 16.5411 25.3972 15.2725 23.7011 15.2725C22.0052 15.2725 20.6009 16.5411 20.385 18.1791H13.3362C13.1202 16.5411 11.716 15.2725 10.02 15.2725C8.32404 15.2725 6.91971 16.5411 6.70374 18.1791H5.23045L5.59953 14.3702H21.3575V14.3705C21.3577 14.3705 21.3579 14.3705 21.3582 14.3705C21.3729 14.3705 21.3874 14.3696 21.4019 14.3682C21.4046 14.3679 21.4072 14.3674 21.4099 14.367C21.4214 14.3657 21.4328 14.364 21.444 14.3618C21.4489 14.3608 21.4537 14.3594 21.4585 14.3583C21.4673 14.3562 21.476 14.3541 21.4846 14.3515C21.4905 14.3498 21.496 14.3477 21.5017 14.3457C21.5091 14.3431 21.5165 14.3406 21.5236 14.3377C21.5298 14.3351 21.5357 14.3323 21.5417 14.3295C21.5482 14.3265 21.5547 14.3235 21.5609 14.3202C21.5669 14.3171 21.5728 14.3137 21.5787 14.3103C21.5847 14.3068 21.5907 14.3032 21.5966 14.2994C21.6023 14.2958 21.6076 14.2919 21.6131 14.288C21.6189 14.2839 21.6245 14.2797 21.6301 14.2753C21.6352 14.2713 21.6402 14.2671 21.6451 14.2628C21.6507 14.258 21.6561 14.2531 21.6614 14.248C21.6658 14.2437 21.6703 14.2393 21.6746 14.2348C21.6799 14.2293 21.685 14.2236 21.69 14.2178C21.694 14.2133 21.6978 14.2087 21.7016 14.204C21.7064 14.1978 21.7111 14.1915 21.7156 14.1851C21.7191 14.1803 21.7224 14.1755 21.7257 14.1706C21.73 14.164 21.7341 14.1572 21.738 14.1503C21.741 14.1451 21.7441 14.14 21.7467 14.1347C21.7504 14.1278 21.7536 14.1207 21.7569 14.1136C21.7595 14.108 21.7622 14.1024 21.7645 14.0965C21.7674 14.0896 21.7698 14.0825 21.7723 14.0754C21.7745 14.0692 21.7767 14.0629 21.7787 14.0565C21.7806 14.0497 21.7822 14.0427 21.784 14.0358C21.7857 14.0288 21.7875 14.0219 21.7889 14.0148C21.7902 14.0079 21.791 14.0009 21.7921 13.9938C21.7932 13.9866 21.7944 13.9794 21.7951 13.972C21.7952 13.971 21.7954 13.97 21.7955 13.9689L22.0158 11.4406H24.287C25.6334 11.4406 26.2407 12.1382 26.8835 12.8768C27.414 13.4863 28.0062 14.1663 29.0128 14.3321C28.885 15.6839 28.6783 17.4192 28.5858 18.1791ZM29.0879 13.4515C28.4349 13.3183 28.0331 12.8593 27.5464 12.3C26.9376 11.6007 26.1945 10.7473 24.7699 10.5883L24.9972 7.97804C27.3272 8.32263 29.1211 10.3352 29.1211 12.7594C29.1211 12.9241 29.1088 13.1634 29.0879 13.4515Z" fill="white"/>
<path d="M4.16013 7.04639H2.01172C1.76897 7.04639 1.57227 7.24315 1.57227 7.48584C1.57227 7.72854 1.76897 7.9253 2.01172 7.9253H4.16013C4.40288 7.9253 4.59958 7.72854 4.59958 7.48584C4.59958 7.24315 4.40288 7.04639 4.16013 7.04639Z" fill="white"/>
</svg>
