<svg width="25" height="25" viewBox="0 0 25 25" fill="none" xmlns="http://www.w3.org/2000/svg">
<path d="M23.1689 0.90332H1.83105C0.821387 0.90332 0 1.72471 0 2.73438V18.8477C0 19.8573 0.821387 20.6787 1.83105 20.6787H9.64634L9.20557 22.2214C9.02856 22.8409 8.33472 23.3643 7.69043 23.3643H4.93164C4.72939 23.3643 4.56543 23.5282 4.56543 23.7305C4.56543 23.9328 4.72939 24.0967 4.93164 24.0967H20.0684C20.2706 24.0967 20.4346 23.9328 20.4346 23.7305C20.4346 23.5282 20.2706 23.3643 20.0684 23.3643H17.3096C16.6653 23.3643 15.9714 22.8409 15.7944 22.2214L15.3537 20.6787H23.1689C24.1786 20.6787 25 19.8573 25 18.8477V2.73438C25 1.72471 24.1786 0.90332 23.1689 0.90332ZM1.83105 1.63574H23.1689C23.7748 1.63574 24.2676 2.12861 24.2676 2.73438V15.5518H0.732422V2.73438C0.732422 2.12861 1.22524 1.63574 1.83105 1.63574ZM15.0902 22.4226C15.1907 22.7744 15.3904 23.0976 15.6523 23.3643H9.3477C9.60957 23.0976 9.80933 22.7744 9.90981 22.4226L10.4081 20.6787H14.5919L15.0902 22.4226ZM23.1689 19.9463H1.83105C1.22524 19.9463 0.732422 19.4534 0.732422 18.8477V16.2842H24.2676V18.8477C24.2676 19.4534 23.7748 19.9463 23.1689 19.9463Z" fill="#3771E1"/>
<path d="M1.83105 14.8193H23.1689C23.3712 14.8193 23.5352 14.6554 23.5352 14.4531V2.73438C23.5352 2.53208 23.3712 2.36816 23.1689 2.36816H1.83105C1.62881 2.36816 1.46484 2.53208 1.46484 2.73438V7.86133C1.46484 8.06362 1.62881 8.22754 1.83105 8.22754C2.0333 8.22754 2.19727 8.06362 2.19727 7.86133V3.10059H22.8027V14.0869H2.19727V9.32617C2.19727 9.12388 2.0333 8.95996 1.83105 8.95996C1.62881 8.95996 1.46484 9.12388 1.46484 9.32617V14.4531C1.46484 14.6554 1.62881 14.8193 1.83105 14.8193Z" fill="#3771E1"/>
<path d="M12.5 17.0166C11.8942 17.0166 11.4014 17.5095 11.4014 18.1152C11.4014 18.721 11.8942 19.2139 12.5 19.2139C13.1058 19.2139 13.5986 18.721 13.5986 18.1152C13.5986 17.5095 13.1058 17.0166 12.5 17.0166ZM12.5 18.4814C12.298 18.4814 12.1338 18.3172 12.1338 18.1152C12.1338 17.9133 12.298 17.749 12.5 17.749C12.702 17.749 12.8662 17.9133 12.8662 18.1152C12.8662 18.3172 12.702 18.4814 12.5 18.4814Z" fill="#3771E1"/>
</svg>
