<svg width="23" height="23" viewBox="0 0 23 23" fill="none" xmlns="http://www.w3.org/2000/svg">
<path d="M21.3154 0.831055H1.68457C0.755676 0.831055 0 1.58673 0 2.51562V17.3398C0 18.2687 0.755676 19.0244 1.68457 19.0244H8.87463L8.46912 20.4437C8.30628 21.0136 7.66794 21.4951 7.0752 21.4951H4.53711C4.35104 21.4951 4.2002 21.6459 4.2002 21.832C4.2002 22.0181 4.35104 22.1689 4.53711 22.1689H18.4629C18.649 22.1689 18.7998 22.0181 18.7998 21.832C18.7998 21.6459 18.649 21.4951 18.4629 21.4951H15.9248C15.3321 21.4951 14.6937 21.0136 14.5309 20.4437L14.1254 19.0244H21.3154C22.2443 19.0244 23 18.2687 23 17.3398V2.51562C23 1.58673 22.2443 0.831055 21.3154 0.831055ZM1.68457 1.50488H21.3154C21.8728 1.50488 22.3262 1.95832 22.3262 2.51562V14.3076H0.673828V2.51562C0.673828 1.95832 1.12722 1.50488 1.68457 1.50488ZM13.883 20.6288C13.9754 20.9525 14.1592 21.2498 14.4001 21.4951H8.59989C8.8408 21.2498 9.02458 20.9524 9.11703 20.6288L9.57541 19.0244H13.4245L13.883 20.6288ZM21.3154 18.3506H1.68457C1.12722 18.3506 0.673828 17.8971 0.673828 17.3398V14.9814H22.3262V17.3398C22.3262 17.8971 21.8728 18.3506 21.3154 18.3506Z" fill="white"/>
<path d="M1.68457 13.6338H21.3154C21.5015 13.6338 21.6523 13.483 21.6523 13.2969V2.51562C21.6523 2.32951 21.5015 2.17871 21.3154 2.17871H1.68457C1.4985 2.17871 1.34766 2.32951 1.34766 2.51562V7.23242C1.34766 7.41853 1.4985 7.56934 1.68457 7.56934C1.87064 7.56934 2.02148 7.41853 2.02148 7.23242V2.85254H20.9785V12.96H2.02148V8.58008C2.02148 8.39397 1.87064 8.24316 1.68457 8.24316C1.4985 8.24316 1.34766 8.39397 1.34766 8.58008V13.2969C1.34766 13.483 1.4985 13.6338 1.68457 13.6338Z" fill="white"/>
<path d="M11.5 15.6553C10.9427 15.6553 10.4893 16.1087 10.4893 16.666C10.4893 17.2233 10.9427 17.6768 11.5 17.6768C12.0573 17.6768 12.5107 17.2233 12.5107 16.666C12.5107 16.1087 12.0573 15.6553 11.5 15.6553ZM11.5 17.0029C11.3142 17.0029 11.1631 16.8518 11.1631 16.666C11.1631 16.4802 11.3142 16.3291 11.5 16.3291C11.6858 16.3291 11.8369 16.4802 11.8369 16.666C11.8369 16.8518 11.6858 17.0029 11.5 17.0029Z" fill="white"/>
</svg>
