<svg width="27" height="27" viewBox="0 0 27 27" fill="none" xmlns="http://www.w3.org/2000/svg">
<path d="M24.5001 19.6041C24.4374 19.6041 24.3758 19.5878 24.3212 19.557C24.2666 19.5262 24.2209 19.4818 24.1884 19.4281C24.156 19.3745 24.1379 19.3134 24.1359 19.2507C24.134 19.188 24.1482 19.1259 24.1772 19.0703C25.0116 17.4558 25.473 15.6747 25.5275 13.8581C25.582 12.0415 25.2282 10.2359 24.4921 8.57428C24.4526 8.48593 24.4498 8.38552 24.4844 8.29513C24.5189 8.20474 24.588 8.13178 24.6763 8.0923C24.7647 8.05282 24.8651 8.05005 24.9555 8.0846C25.0459 8.11916 25.1188 8.1882 25.1583 8.27655C25.9392 10.0389 26.3144 11.9541 26.2565 13.8808C26.1986 15.8075 25.709 17.6967 24.8237 19.4089C24.7928 19.4679 24.7462 19.5173 24.6892 19.5517C24.6321 19.5861 24.5667 19.6043 24.5001 19.6041Z" fill="white"/>
<path d="M19.2908 24.8364C19.2091 24.8365 19.1299 24.8091 19.0656 24.7588C19.0014 24.7084 18.9558 24.638 18.9363 24.5587C18.9168 24.4795 18.9245 24.396 18.958 24.3216C18.9916 24.2472 19.0491 24.1862 19.1215 24.1483C19.4385 23.9823 19.7417 23.8064 20.0183 23.6255C20.0995 23.5727 20.1982 23.5543 20.2929 23.5743C20.3876 23.5944 20.4705 23.6512 20.5233 23.7324C20.5761 23.8135 20.5945 23.9123 20.5744 24.007C20.5544 24.1017 20.4975 24.1845 20.4164 24.2373C20.119 24.4307 19.7961 24.6183 19.4593 24.7948C19.4073 24.8221 19.3495 24.8363 19.2908 24.8364Z" fill="white"/>
<path d="M13.509 26.2679C10.1198 26.2688 6.86889 24.9242 4.47059 22.5295C4.40412 22.4607 4.36735 22.3685 4.36818 22.2728C4.36901 22.1772 4.40738 22.0856 4.47503 22.018C4.54268 21.9504 4.63419 21.912 4.72986 21.9111C4.82552 21.9103 4.91769 21.9471 4.9865 22.0136C6.49969 23.524 8.38724 24.605 10.4558 25.1457C12.5243 25.6864 14.6993 25.6675 16.7581 25.0908C16.8513 25.0647 16.9511 25.0767 17.0354 25.1241C17.1198 25.1715 17.1819 25.2505 17.208 25.3437C17.2341 25.4369 17.2222 25.5366 17.1748 25.621C17.1273 25.7054 17.0483 25.7674 16.9552 25.7936C15.8335 26.1083 14.674 26.2679 13.509 26.2679Z" fill="white"/>
<path d="M22.2125 22.691C22.1374 22.691 22.0642 22.6678 22.0028 22.6247C21.9413 22.5815 21.8947 22.5205 21.8693 22.4499C21.8438 22.3792 21.8408 22.3025 21.8605 22.2301C21.8803 22.1576 21.9219 22.0931 21.9797 22.0452C21.9921 22.035 22.0023 22.024 22.0129 22.0134C22.2479 21.7781 22.4723 21.5325 22.6799 21.2837C22.71 21.2453 22.7474 21.2132 22.7901 21.1895C22.8327 21.1658 22.8797 21.1509 22.9282 21.1457C22.9767 21.1404 23.0258 21.145 23.0725 21.159C23.1192 21.1731 23.1627 21.1964 23.2002 21.2275C23.2378 21.2587 23.2687 21.297 23.2912 21.3404C23.3137 21.3837 23.3273 21.4311 23.3311 21.4797C23.3349 21.5283 23.329 21.5773 23.3136 21.6236C23.2982 21.6699 23.2736 21.7126 23.2414 21.7493C23.0196 22.0164 22.7802 22.2787 22.5292 22.5294C22.5027 22.5566 22.4748 22.5824 22.4457 22.6067C22.3802 22.6612 22.2977 22.691 22.2125 22.691Z" fill="white"/>
<path d="M2.23896 19.0768C2.1693 19.0768 2.10108 19.0569 2.04238 19.0194C1.98367 18.9819 1.93692 18.9284 1.90767 18.8652C0.648481 16.143 0.387446 13.0645 1.1703 10.1692C1.95316 7.27383 3.72998 4.74635 6.18938 3.02963C8.64879 1.3129 11.6339 0.516448 14.6216 0.77983C17.6093 1.04321 20.4091 2.34963 22.5302 4.47015C22.5641 4.50405 22.591 4.54429 22.6093 4.58858C22.6277 4.63288 22.6371 4.68035 22.6371 4.72829C22.6371 4.77623 22.6277 4.8237 22.6093 4.868C22.591 4.91229 22.5641 4.95253 22.5302 4.98643C22.4963 5.02033 22.456 5.04722 22.4118 5.06557C22.3675 5.08392 22.32 5.09336 22.2721 5.09336C22.2241 5.09336 22.1766 5.08392 22.1323 5.06557C22.0881 5.04722 22.0478 5.02033 22.0139 4.98643C20.0139 2.98711 17.3741 1.7554 14.5571 1.50712C11.7401 1.25885 8.92555 2.00986 6.60669 3.62855C4.28784 5.24723 2.61259 7.63034 1.87451 10.3603C1.13643 13.0902 1.38261 15.9928 2.5699 18.5594C2.59562 18.615 2.60694 18.6761 2.60281 18.7373C2.59868 18.7984 2.57923 18.8574 2.54626 18.9091C2.5133 18.9607 2.46787 19.0032 2.41416 19.0326C2.36046 19.062 2.30021 19.0775 2.23896 19.0775V19.0768Z" fill="white"/>
<path d="M13.4997 21.5272C11.9121 21.5272 10.3601 21.0564 9.04011 20.1744C7.72007 19.2924 6.69123 18.0387 6.08368 16.572C5.47613 15.1052 5.31717 13.4913 5.6269 11.9342C5.93662 10.3771 6.70112 8.94681 7.82372 7.82421C8.94632 6.70161 10.3766 5.93711 11.9337 5.62739C13.4908 5.31766 15.1048 5.47662 16.5715 6.08417C18.0382 6.69172 19.2919 7.72056 20.1739 9.0406C21.0559 10.3606 21.5267 11.9126 21.5267 13.5002C21.5243 15.6283 20.6778 17.6686 19.173 19.1735C17.6682 20.6783 15.6278 21.5248 13.4997 21.5272ZM13.4997 6.20288C12.0564 6.20288 10.6456 6.63086 9.44553 7.43269C8.24549 8.23453 7.31018 9.37421 6.75786 10.7076C6.20555 12.041 6.06104 13.5083 6.34261 14.9238C6.62417 16.3393 7.31917 17.6396 8.33972 18.6601C9.36026 19.6807 10.6605 20.3757 12.0761 20.6573C13.4916 20.9388 14.9588 20.7943 16.2922 20.242C17.6257 19.6897 18.7653 18.7544 19.5672 17.5543C20.369 16.3543 20.797 14.9434 20.797 13.5002C20.7948 11.5655 20.0252 9.71069 18.6572 8.34266C17.2892 6.97463 15.4344 6.2051 13.4997 6.20288Z" fill="white"/>
<path d="M13.4998 13.8649C13.0398 13.8649 12.5901 13.7285 12.2076 13.4729C11.8251 13.2173 11.5269 12.8541 11.3509 12.429C11.1748 12.004 11.1288 11.5363 11.2185 11.0851C11.3083 10.6339 11.5298 10.2195 11.8551 9.89416C12.1804 9.56887 12.5949 9.34733 13.0461 9.25759C13.4973 9.16784 13.9649 9.2139 14.39 9.38995C14.815 9.566 15.1783 9.86413 15.4338 10.2466C15.6894 10.6292 15.8259 11.0789 15.8259 11.5389C15.8259 11.6357 15.7874 11.7285 15.719 11.7969C15.6506 11.8653 15.5578 11.9038 15.461 11.9038C15.3642 11.9038 15.2714 11.8653 15.203 11.7969C15.1346 11.7285 15.0961 11.6357 15.0961 11.5389C15.0961 11.2232 15.0025 10.9146 14.8271 10.6521C14.6517 10.3895 14.4024 10.1849 14.1107 10.0641C13.819 9.94331 13.4981 9.9117 13.1884 9.97329C12.8788 10.0349 12.5943 10.1869 12.3711 10.4102C12.1479 10.6334 11.9958 10.9178 11.9342 11.2275C11.8726 11.5371 11.9042 11.8581 12.0251 12.1498C12.1459 12.4415 12.3505 12.6908 12.613 12.8662C12.8755 13.0416 13.1841 13.1352 13.4998 13.1352C13.5966 13.1352 13.6894 13.1736 13.7578 13.2421C13.8263 13.3105 13.8647 13.4033 13.8647 13.5C13.8647 13.5968 13.8263 13.6896 13.7578 13.758C13.6894 13.8265 13.5966 13.8649 13.4998 13.8649Z" fill="white"/>
<path d="M13.4996 18.6078C13.4029 18.6078 13.3101 18.5694 13.2416 18.501C13.1732 18.4325 13.1348 18.3397 13.1348 18.243V8.75647C13.1348 8.6597 13.1732 8.56689 13.2416 8.49847C13.3101 8.43004 13.4029 8.3916 13.4996 8.3916C13.5964 8.3916 13.6892 8.43004 13.7576 8.49847C13.8261 8.56689 13.8645 8.6597 13.8645 8.75647V18.243C13.8645 18.3397 13.8261 18.4325 13.7576 18.501C13.6892 18.5694 13.5964 18.6078 13.4996 18.6078Z" fill="white"/>
</svg>
