<svg width="21" height="23" viewBox="0 0 21 23" fill="none" xmlns="http://www.w3.org/2000/svg">
<path d="M19.0899 3.04817H17.1501V1.10845C17.1502 0.498767 16.6513 0 16.0419 0H1.90918C1.29955 0 0.800781 0.498767 0.800781 1.10845V18.8433C0.800781 19.453 1.29955 19.9518 1.90923 19.9518H3.84899V21.8916C3.84899 22.5012 4.34754 23 4.95744 23H14.3788C14.9882 23 15.8506 22.6581 16.2942 22.2405L19.3906 19.3258C19.8348 18.9083 20.1978 18.0675 20.1978 17.4579L20.1984 4.1567C20.1983 3.54698 19.6995 3.04817 19.0899 3.04817ZM3.8489 4.15666V19.1205H1.90918C1.75901 19.1205 1.6321 18.9936 1.6321 18.8434V1.10845C1.6321 0.958272 1.75901 0.831368 1.90918 0.831368H16.042C16.1919 0.831368 16.3191 0.958272 16.3191 1.10845V3.04821H4.95735C4.34745 3.04821 3.8489 3.54698 3.8489 4.15666ZM18.8208 18.7206L15.7244 21.635C15.661 21.6946 15.5784 21.753 15.4872 21.8087V19.259C15.4872 19.0686 15.564 18.8973 15.6906 18.7699C15.8184 18.6433 15.9896 18.5663 16.18 18.5663H18.9525C18.9095 18.6247 18.8654 18.6784 18.8208 18.7206ZM19.3664 17.4578C19.3664 17.5401 19.3514 17.6354 19.3287 17.7349H16.1799C15.339 17.7365 14.6575 18.4179 14.6558 19.259V22.135C14.5569 22.155 14.4616 22.1685 14.3787 22.1685H4.95735V22.1686C4.80686 22.1686 4.68027 22.0417 4.68027 21.8915V4.15661C4.68027 4.00644 4.80691 3.87954 4.95735 3.87954H19.0898C19.24 3.87954 19.3669 4.00644 19.3669 4.15661L19.3664 17.4578Z" fill="#3771E1"/>
<path d="M16.0426 6.92761H8.00648C7.77675 6.92761 7.59082 7.11354 7.59082 7.34327C7.59082 7.573 7.7768 7.75894 8.00648 7.75894H16.0426C16.272 7.75894 16.4582 7.573 16.4582 7.34327C16.4582 7.11354 16.272 6.92761 16.0426 6.92761Z" fill="#3771E1"/>
<path d="M16.0426 12.4698H8.00648C7.77675 12.4698 7.59082 12.6557 7.59082 12.8854C7.59082 13.1152 7.7768 13.3011 8.00648 13.3011H16.0426C16.272 13.3011 16.4582 13.1152 16.4582 12.8854C16.4582 12.6557 16.272 12.4698 16.0426 12.4698Z" fill="#3771E1"/>
<path d="M12.4402 15.2409H8.00648C7.77675 15.2409 7.59082 15.4268 7.59082 15.6566C7.59082 15.8863 7.77675 16.0722 8.00648 16.0722H12.4402C12.6696 16.0722 12.8556 15.8863 12.8556 15.6566C12.8556 15.4268 12.6696 15.2409 12.4402 15.2409Z" fill="#3771E1"/>
<path d="M16.0426 9.69879H8.00648C7.77675 9.69879 7.59082 9.88472 7.59082 10.1145C7.59082 10.3442 7.7768 10.5301 8.00648 10.5301H16.0426C16.272 10.5301 16.4582 10.3442 16.4582 10.1145C16.4582 9.88472 16.272 9.69879 16.0426 9.69879Z" fill="#3771E1"/>
</svg>
