<svg width="19" height="27" viewBox="0 0 19 27" fill="none" xmlns="http://www.w3.org/2000/svg">
<path d="M17.426 12.2641C16.9593 11.322 16.6221 10.6412 16.7635 9.79793C16.7752 9.72804 16.7679 9.65629 16.7425 9.59016C16.7171 9.52402 16.6744 9.4659 16.6189 9.42185C16.5634 9.37779 16.4971 9.34941 16.4269 9.33965C16.3567 9.32988 16.2852 9.3391 16.2198 9.36633C16.1563 9.39261 14.7736 9.98009 13.3911 11.6057C12.7432 10.2289 11.1006 6.27873 10.4605 0.429798C10.4527 0.359095 10.4259 0.291809 10.3831 0.234998C10.3403 0.178186 10.283 0.133942 10.2172 0.106903C10.1514 0.0798643 10.0795 0.0710278 10.0091 0.0813199C9.93874 0.0916121 9.87241 0.120654 9.81711 0.1654C7.37658 2.15099 5.61641 6.02952 5.30172 9.93183C4.30484 8.81555 2.79118 8.33116 2.7078 8.30488C2.64313 8.28471 2.57437 8.28145 2.50808 8.2954C2.44178 8.30935 2.38017 8.34006 2.32912 8.38459C2.27807 8.42913 2.23928 8.486 2.21645 8.54978C2.19362 8.61356 2.18752 8.68213 2.19872 8.74895C2.3453 9.62484 1.97941 10.5445 1.51586 11.7092C0.877859 13.3124 0.0839844 15.3075 0.0839844 18.3169C0.0839844 23.304 4.04384 26.924 9.49992 26.924C14.956 26.924 18.9159 23.304 18.9159 18.3169C18.9159 15.2715 18.0547 13.5333 17.426 12.2641ZM5.38668 22.4222C5.39551 21.3588 5.62495 20.3087 6.06048 19.3385C6.2204 18.9765 6.3433 18.5992 6.42728 18.2125C6.77248 18.3842 7.04513 18.6734 7.19623 19.0281C7.22494 19.1185 7.28514 19.1957 7.3659 19.2456C7.44666 19.2954 7.54263 19.3146 7.63636 19.2998C7.73009 19.2849 7.81537 19.2368 7.87671 19.1644C7.93805 19.092 7.97137 19 7.97062 18.9051C7.95592 17.2611 8.4918 15.6595 9.4929 14.3555C9.9757 17.6463 11.0129 19.5403 11.0603 19.6253C11.0923 19.6831 11.1384 19.732 11.1942 19.7674C11.25 19.8029 11.3138 19.8238 11.3797 19.8284C11.4457 19.8329 11.5117 19.8208 11.5719 19.7932C11.632 19.7657 11.6842 19.7235 11.7239 19.6706C11.9669 19.3444 12.2551 19.0546 12.5798 18.8097C12.6665 19.1044 12.7839 19.3891 12.9301 19.6593C13.3944 20.5049 13.6298 21.4572 13.6132 22.4218C13.6132 24.5707 11.8834 26.1306 9.49992 26.1306C7.11648 26.1306 5.38668 24.5712 5.38668 22.4222ZM13.2257 25.4416C13.9978 24.6275 14.4215 23.5441 14.4068 22.4222C14.424 21.3354 14.1603 20.2626 13.6413 19.3077C13.3959 18.8122 13.2706 18.5373 13.3279 18.1955C13.3396 18.1256 13.3324 18.0538 13.307 17.9876C13.2816 17.9214 13.2389 17.8633 13.1834 17.8192C13.1279 17.7751 13.0616 17.7467 12.9914 17.7369C12.9212 17.7272 12.8496 17.7364 12.7842 17.7636C12.3005 17.9944 11.8653 18.3153 11.5018 18.7091C10.8035 17.0334 10.3572 15.2636 10.1773 13.4571C10.1696 13.3862 10.1429 13.3187 10.1 13.2617C10.0571 13.2047 9.99965 13.1604 9.93367 13.1333C9.86767 13.1062 9.79561 13.0975 9.72505 13.1079C9.6545 13.1184 9.58807 13.1477 9.53277 13.1927C8.35805 14.1491 7.4885 15.9498 7.24563 17.8146C6.92066 17.5589 6.55451 17.3605 6.16288 17.2278C6.09821 17.2076 6.02945 17.2044 5.96316 17.2183C5.89686 17.2323 5.83525 17.263 5.7842 17.3075C5.73315 17.3521 5.69435 17.4089 5.67153 17.4727C5.6487 17.5365 5.64259 17.6051 5.6538 17.6719C5.71814 18.0552 5.55275 18.471 5.3237 19.046C4.85141 20.1097 4.60293 21.2593 4.59371 22.4231C4.57887 23.5453 5.00301 24.6288 5.77569 25.4427C2.80115 24.251 0.876953 21.6141 0.876953 18.3169C0.876953 15.4593 1.63979 13.5428 2.25264 12.0024C2.64255 11.0225 2.9901 10.1496 3.02295 9.28137C3.733 9.60513 4.91815 10.295 5.27136 11.4088C5.30006 11.4993 5.36026 11.5764 5.44103 11.6263C5.52179 11.6761 5.61775 11.6953 5.71149 11.6805C5.80522 11.6656 5.8905 11.6175 5.95184 11.5451C6.01317 11.4727 6.0465 11.3807 6.04575 11.2858C6.01109 7.09663 7.81113 3.25209 9.76387 1.28439C10.6554 8.30987 12.87 12.356 12.9663 12.5307C12.9985 12.5885 13.0445 12.6373 13.1003 12.6727C13.1561 12.7082 13.2199 12.7291 13.2858 12.7336C13.3518 12.7381 13.4178 12.726 13.4779 12.6985C13.538 12.671 13.5903 12.6289 13.6299 12.576C14.2633 11.7205 15.0482 10.9883 15.9456 10.4158C16.0032 11.1806 16.3394 11.859 16.7146 12.6164C17.3417 13.8822 18.122 15.4575 18.122 18.3171C18.1229 21.6136 16.1992 24.2506 13.2251 25.4416H13.2257Z" fill="white"/>
<path d="M2.33378 14.633C2.23178 14.6074 2.1238 14.6234 2.03357 14.6774C1.94334 14.7314 1.87823 14.819 1.85256 14.921C1.62363 15.8325 1.49052 16.7654 1.4554 17.7045C1.45117 17.8096 1.48884 17.912 1.56014 17.9893C1.63143 18.0666 1.73051 18.1124 1.83557 18.1166H1.85188C1.95423 18.1165 2.05257 18.0769 2.12634 18.0059C2.20011 17.935 2.24359 17.8383 2.24769 17.736C2.28062 16.8514 2.40591 15.9726 2.62152 15.114C2.6471 15.0121 2.63116 14.9041 2.57721 14.814C2.52325 14.7238 2.4357 14.6587 2.33378 14.633Z" fill="white"/>
</svg>
