<svg width="17" height="17" viewBox="0 0 17 17" fill="none" xmlns="http://www.w3.org/2000/svg">
<path d="M16.9856 13.38C16.8696 12.1752 15.4859 11.2084 15.3354 11.1073C15.1866 11.0007 13.8471 10.0685 12.6605 10.0685C12.159 10.0685 11.7398 10.2249 11.4014 10.546L11.369 10.5809C10.9784 11.0382 10.1884 11.7148 9.73358 11.7148C9.70313 11.7148 9.67713 11.7113 9.65353 11.7036C9.39607 11.5143 8.12349 10.5669 7.28106 9.72417C6.60412 9.04722 5.51247 7.62802 5.29289 7.34045C5.17844 6.97136 5.85632 6.10008 6.42545 5.60797L6.45733 5.5766C7.73004 4.23224 5.96396 1.76607 5.8953 1.67191C5.84964 1.60374 4.76131 0 3.45052 0C2.99965 0 2.59255 0.175645 2.26215 0.50223C2.10915 0.627805 -1.45962 3.62601 0.695988 8.03738C0.803633 8.25871 0.938072 8.48161 1.1188 8.73939C1.64782 9.49496 3.01818 11.392 4.31579 12.6894C5.54776 13.9216 7.4765 15.3243 8.24857 15.87C8.5135 16.0574 8.74336 16.1962 8.9723 16.3078C9.91699 16.7673 10.8701 17 11.8052 17C14.5591 17 16.2533 15.0266 16.4854 14.739C16.8608 14.3506 17.0338 13.881 16.9856 13.38ZM16.0103 14.2963L15.9878 14.315C15.8226 14.5226 14.3018 16.3371 11.8052 16.3371H11.8045C10.9691 16.3371 10.1117 16.133 9.25642 15.717C9.05999 15.6216 8.85898 15.5029 8.62353 15.3364C7.86511 14.8002 5.97157 13.4256 4.77493 12.2286C3.51364 10.9673 2.16987 9.10755 1.65068 8.36596C1.48978 8.13672 1.37197 7.94219 1.27953 7.75227C-0.620648 3.86342 2.33111 1.28556 2.69575 0.984572C2.92531 0.758824 3.17214 0.649254 3.45052 0.649254C4.25367 0.649254 5.09802 1.64834 5.36275 2.04342C5.79094 2.63254 6.73756 4.33593 5.98787 5.12826C5.91715 5.18945 4.25968 6.63687 4.71151 7.63532L4.74893 7.69811C4.8829 7.87409 6.07921 9.44074 6.82193 10.1833C7.74395 11.1053 9.14588 12.1371 9.30283 12.2519L9.35848 12.2845C9.4731 12.3375 9.59944 12.3641 9.73391 12.3641C10.6888 12.3641 11.8153 11.0581 11.8606 11.0048C12.0616 10.8143 12.3307 10.7179 12.6605 10.7179C13.6618 10.7179 14.9055 11.5981 14.9651 11.6406C14.9779 11.6491 16.2502 12.5179 16.3391 13.4422C16.3697 13.7602 16.2622 14.0395 16.0103 14.2963Z" fill="white"/>
</svg>
