<svg width="17" height="25" viewBox="0 0 17 25" fill="none" xmlns="http://www.w3.org/2000/svg">
<path d="M8.50032 0C3.98282 0 0.307617 3.67281 0.307617 8.18735C0.307617 12.5261 7.75303 24.2662 8.06996 24.7639C8.16364 24.9109 8.32593 25 8.50032 25C8.67471 25 8.83701 24.9109 8.93063 24.7639C9.24757 24.2662 16.6929 12.5261 16.6929 8.18735C16.6929 3.67281 13.0177 0 8.50032 0ZM8.50032 23.5269C7.8265 22.4369 6.45905 20.1806 5.10496 17.6806C2.6341 13.1184 1.32808 9.83577 1.32808 8.18735C1.32803 4.23546 4.54553 1.02041 8.50032 1.02041C12.4551 1.02041 15.6725 4.23546 15.6725 8.18735C15.6725 9.83577 14.3664 13.1184 11.8956 17.6806C10.5415 20.1806 9.1741 22.4369 8.50032 23.5269Z" fill="white"/>
<path d="M8.50046 3.88184C6.36352 3.88184 4.625 5.57311 4.625 7.65194C4.625 9.73071 6.36352 11.4219 8.50046 11.4219C10.6374 11.4219 12.3759 9.73071 12.3759 7.65194C12.3759 5.57311 10.6374 3.88184 8.50046 3.88184ZM8.50046 10.4014C6.92623 10.4014 5.64541 9.16801 5.64541 7.65189C5.64541 6.13571 6.92623 4.90219 8.50046 4.90219C10.0747 4.90219 11.3555 6.13571 11.3555 7.65189C11.3555 9.16801 10.0747 10.4014 8.50046 10.4014Z" fill="white"/>
</svg>
