<svg width="20" height="20" viewBox="0 0 20 20" fill="none" xmlns="http://www.w3.org/2000/svg">
<path d="M10.0002 3.26078C10.2393 3.26078 10.435 3.06513 10.435 2.826V2.60861C10.435 2.36948 10.2393 2.17383 10.0002 2.17383C9.76108 2.17383 9.56543 2.36948 9.56543 2.60861V2.826C9.56543 3.06513 9.76108 3.26078 10.0002 3.26078Z" fill="white"/>
<path d="M10.0002 16.7393C9.76108 16.7393 9.56543 16.9349 9.56543 17.174V17.3914C9.56543 17.6306 9.76108 17.8262 10.0002 17.8262C10.2393 17.8262 10.435 17.6306 10.435 17.3914V17.174C10.435 16.9349 10.2393 16.7393 10.0002 16.7393Z" fill="white"/>
<path d="M2.826 9.56543H2.60861C2.36948 9.56543 2.17383 9.76108 2.17383 10.0002C2.17383 10.2393 2.36948 10.435 2.60861 10.435H2.826C3.06513 10.435 3.26078 10.2393 3.26078 10.0002C3.26078 9.76108 3.06513 9.56543 2.826 9.56543Z" fill="white"/>
<path d="M17.3914 9.56543H17.174C16.9349 9.56543 16.7393 9.76108 16.7393 10.0002C16.7393 10.2393 16.9349 10.435 17.174 10.435H17.3914C17.6306 10.435 17.8262 10.2393 17.8262 10.0002C17.8262 9.76108 17.6306 9.56543 17.3914 9.56543Z" fill="white"/>
<path d="M5.08679 4.47809C4.91288 4.30418 4.65201 4.30418 4.47809 4.47809C4.30418 4.652 4.30418 4.91287 4.47809 5.08679L4.63027 5.23896C4.71722 5.32592 4.82592 5.36939 4.93461 5.36939C5.04331 5.36939 5.15201 5.32592 5.23896 5.23896C5.41288 5.06505 5.41288 4.80418 5.23896 4.63026L5.08679 4.47809Z" fill="white"/>
<path d="M4.63027 14.7613L4.47809 14.9135C4.30418 15.0874 4.30418 15.3483 4.47809 15.5222C4.56505 15.6091 4.67374 15.6526 4.78244 15.6526C4.89114 15.6526 4.99983 15.6091 5.08679 15.5222L5.23896 15.37C5.41288 15.1961 5.41288 14.9352 5.23896 14.7613C5.06505 14.5874 4.80418 14.5874 4.63027 14.7613Z" fill="white"/>
<path d="M14.9135 4.47809L14.7613 4.63026C14.5874 4.80418 14.5874 5.06505 14.7613 5.23896C14.8483 5.32592 14.9569 5.36939 15.0656 5.36939C15.1743 5.36939 15.283 5.32592 15.37 5.23896L15.5222 5.08679C15.6961 4.91287 15.6961 4.652 15.5222 4.47809C15.3483 4.30418 15.0874 4.30418 14.9135 4.47809Z" fill="white"/>
<path d="M10.435 9.82587V5.86935C10.435 5.63022 10.2393 5.43457 10.0002 5.43457C9.76108 5.43457 9.56543 5.63022 9.56543 5.86935V9.99979C9.56543 10.1085 9.60891 10.2172 9.69586 10.3041L14.4567 15.065C14.5437 15.152 14.6524 15.1954 14.7611 15.1954C14.8698 15.1954 14.9785 15.152 15.0654 15.065C15.2393 14.8911 15.2393 14.6302 15.0654 14.4563L10.435 9.82587Z" fill="white"/>
<path d="M10 0C4.47826 0 0 4.47826 0 10C0 15.5217 4.47826 20 10 20C15.5217 20 20 15.5217 20 10C20 4.47826 15.5217 0 10 0ZM10 19.1304C4.95652 19.1304 0.869565 15.0435 0.869565 10C0.869565 4.95652 4.95652 0.869565 10 0.869565C15.0435 0.869565 19.1304 4.95652 19.1304 10C19.1304 15.0435 15.0435 19.1304 10 19.1304Z" fill="white"/>
</svg>
