<svg width="26" height="26" viewBox="0 0 26 26" fill="none" xmlns="http://www.w3.org/2000/svg">
<path d="M24.6805 21.4801H24.2031V21.0028C24.2031 20.2751 23.6111 19.6831 22.8835 19.6831H18.391C17.6634 19.6831 17.0714 20.2751 17.0714 21.0028V21.4801H16.5941C15.8664 21.4801 15.2744 22.0721 15.2744 22.7997V23.6982C15.2744 23.9308 15.463 24.1194 15.6956 24.1194H25.5789C25.8115 24.1194 26.0001 23.9308 26.0001 23.6982V22.7997C26.0001 22.0721 25.4081 21.4801 24.6805 21.4801ZM17.9137 21.0028C17.9137 20.7396 18.1278 20.5254 18.391 20.5254H22.8835C23.1467 20.5254 23.3608 20.7396 23.3608 21.0028V21.4801H17.9137V21.0028ZM25.1578 23.2771H16.1167V22.7997C16.1167 22.5365 16.3309 22.3224 16.5941 22.3224H24.6805C24.9437 22.3224 25.1578 22.5365 25.1578 22.7997V23.2771Z" fill="#3771E1"/>
<path d="M16.1167 12.4126L16.0968 12.4325C15.5823 12.947 15.5823 13.7842 16.0968 14.2987C16.346 14.5479 16.6775 14.6852 17.0299 14.6852C17.3824 14.6852 17.7138 14.5479 17.9631 14.2987L20.5044 11.7574C20.7536 11.5082 20.8909 11.1768 20.8909 10.8243C20.8909 10.4718 20.7536 10.1404 20.5044 9.89115C20.2552 9.64193 19.9238 9.50463 19.5713 9.50463C19.2188 9.50463 18.8873 9.64193 18.6381 9.89115L18.6183 9.91103L17.6414 8.93409C17.7255 8.63978 17.6522 8.30959 17.4208 8.07823L14.6934 5.35081C14.4621 5.11945 14.1319 5.04617 13.8376 5.13029L12.8606 4.15341L12.8804 4.13353C13.1297 3.88431 13.267 3.55288 13.267 3.20039C13.267 2.8479 13.1297 2.51653 12.8804 2.26726C12.6312 2.01804 12.2998 1.88074 11.9473 1.88074C11.5948 1.88074 11.2634 2.01804 11.0142 2.26726L8.47291 4.80857C8.22369 5.05779 8.08639 5.38922 8.08639 5.74171C8.08639 6.0942 8.22369 6.42563 8.47291 6.67484C8.73016 6.93215 9.0681 7.06075 9.40605 7.06075C9.74399 7.06075 10.0819 6.93209 10.3392 6.67484L10.3591 6.65497L11.3357 7.63162C11.3136 7.70895 11.3016 7.78964 11.3016 7.8723C11.3016 8.10484 11.3922 8.3234 11.5566 8.48777L11.6695 8.60064L10.7963 9.47386C10.5176 9.7525 10.3912 10.1257 10.4144 10.4911L0.386518 20.5189C0.1373 20.7681 0 21.0995 0 21.452C0 21.8045 0.1373 22.1359 0.386518 22.3851C0.635737 22.6344 0.967166 22.7717 1.31965 22.7717C1.67214 22.7717 2.00357 22.6344 2.25279 22.3851L12.2806 12.3573C12.3086 12.3591 12.3366 12.3613 12.3647 12.3613C12.7025 12.3613 13.0405 12.2327 13.2978 11.9754L14.171 11.1023L14.2839 11.2151C14.4483 11.3796 14.6669 11.4701 14.8993 11.4701C14.982 11.4701 15.0627 11.4582 15.14 11.436L16.1167 12.4126ZM19.5713 10.3472C19.6935 10.3472 19.8158 10.3937 19.9088 10.4868C19.9989 10.5769 20.0486 10.6968 20.0486 10.8243C20.0486 10.9518 19.999 11.0717 19.9088 11.1618L17.3675 13.7031C17.1813 13.8893 16.8785 13.8892 16.6924 13.7031C16.5064 13.517 16.5064 13.2142 16.6924 13.0281L19.2338 10.4867C19.3268 10.3937 19.449 10.3472 19.5713 10.3472ZM16.7123 11.817L15.8127 10.9173L17.1231 9.60695L18.0227 10.5066L16.7123 11.817ZM9.06855 6.0792C8.88245 5.8931 8.88245 5.59026 9.06855 5.40416L11.6098 2.86284C11.6999 2.77271 11.8198 2.72301 11.9474 2.72301C12.0749 2.72301 12.1947 2.77266 12.2849 2.86284C12.471 3.04894 12.471 3.35179 12.2849 3.53789L9.74354 6.0792C9.55744 6.26525 9.25465 6.26525 9.06855 6.0792ZM12.265 4.74894L13.1647 5.6486L11.8543 6.95899L10.9546 6.05932L12.265 4.74894ZM1.65715 21.7895C1.56702 21.8796 1.44718 21.9293 1.31965 21.9293C1.19213 21.9293 1.07229 21.8797 0.98216 21.7895C0.89203 21.6994 0.842333 21.5795 0.842333 21.452C0.842333 21.3245 0.891974 21.2046 0.98216 21.1145L10.7774 11.3192C10.7839 11.326 10.7895 11.3334 10.7962 11.3401L11.4315 11.9754C11.4382 11.9821 11.4456 11.9877 11.4524 11.9943L1.65715 21.7895ZM12.7022 11.3798C12.5161 11.5659 12.2133 11.5659 12.0272 11.3798L11.3919 10.7445C11.2058 10.5584 11.2058 10.2555 11.3919 10.0694L12.265 9.19623L13.5754 10.5066L12.7022 11.3798ZM12.1521 7.89213C12.1501 7.89011 12.1439 7.88393 12.1439 7.8723C12.1439 7.86068 12.1501 7.85445 12.1521 7.85243L14.0581 5.94645C14.0636 5.941 14.0708 5.93825 14.078 5.93825C14.0851 5.93825 14.0923 5.941 14.0978 5.94645L16.8252 8.67381C16.8362 8.68476 16.8362 8.70262 16.8252 8.71357L14.9192 10.6195C14.9172 10.6216 14.911 10.6277 14.8993 10.6277C14.8877 10.6277 14.8815 10.6216 14.8795 10.6195L12.1521 7.89213Z" fill="#3771E1"/>
</svg>
