<svg width="27" height="23" viewBox="0 0 27 23" fill="none" xmlns="http://www.w3.org/2000/svg">
<path d="M25.3125 22.5H1.6875C0.757125 22.5 0 21.7429 0 20.8125V6.1875C0 5.25712 0.757125 4.5 1.6875 4.5H3.9375C4.248 4.5 4.5 4.752 4.5 5.0625C4.5 5.373 4.248 5.625 3.9375 5.625H1.6875C1.37812 5.625 1.125 5.877 1.125 6.1875V20.8125C1.125 21.123 1.37812 21.375 1.6875 21.375H25.3125C25.6219 21.375 25.875 21.123 25.875 20.8125V6.1875C25.875 5.877 25.6219 5.625 25.3125 5.625H23.0625C22.752 5.625 22.5 5.373 22.5 5.0625C22.5 4.752 22.752 4.5 23.0625 4.5H25.3125C26.2429 4.5 27 5.25712 27 6.1875V20.8125C27 21.7429 26.2429 22.5 25.3125 22.5Z" fill="white"/>
<path d="M13.5 10.125C11.9486 10.125 10.6875 8.86275 10.6875 7.3125C10.6875 5.76225 11.9486 4.5 13.5 4.5C15.0514 4.5 16.3125 5.76225 16.3125 7.3125C16.3125 8.86275 15.0514 10.125 13.5 10.125ZM13.5 5.625C12.5696 5.625 11.8125 6.38213 11.8125 7.3125C11.8125 8.24288 12.5696 9 13.5 9C14.4304 9 15.1875 8.24288 15.1875 7.3125C15.1875 6.38213 14.4304 5.625 13.5 5.625Z" fill="white"/>
<path d="M14.3973 14.625H12.6018C12.0213 14.625 11.541 14.1896 11.4836 13.6114L11.3396 12.1815C10.9987 12.0296 10.6736 11.8406 10.3665 11.6156L9.0536 12.2085C8.52147 12.4481 7.90497 12.2479 7.61585 11.7461L6.71922 10.1925C6.42785 9.69075 6.56397 9.05625 7.03535 8.7165L8.1941 7.884C8.17272 7.70963 8.15585 7.515 8.15585 7.3125C8.15585 7.11 8.17272 6.91538 8.1941 6.74213L7.03535 5.90963C6.56397 5.56988 6.42785 4.93425 6.71922 4.4325L7.61585 2.88C7.9061 2.376 8.52597 2.17913 9.05247 2.4165L10.3665 3.0105C10.6736 2.7855 10.9987 2.5965 11.3396 2.44463L11.4836 1.0125C11.541 0.435375 12.0225 0 12.6018 0H14.3973C14.9778 0 15.4582 0.435375 15.5156 1.01363L15.6596 2.4435C16.0005 2.59538 16.3267 2.7855 16.6327 3.00938L17.9456 2.4165C18.4777 2.178 19.0942 2.37713 19.3833 2.87888L20.28 4.4325C20.5713 4.93425 20.4352 5.56875 19.9638 5.9085L18.8051 6.741C18.8265 6.91538 18.8433 7.11 18.8433 7.3125C18.8433 7.515 18.8265 7.70963 18.8051 7.88288L19.9638 8.71538C20.4352 9.05513 20.5713 9.69075 20.28 10.1925L19.3833 11.745C19.092 12.2479 18.4721 12.4448 17.9467 12.2085L16.6327 11.6145C16.3256 11.8395 16.0005 12.0285 15.6596 12.1804L15.5156 13.6125C15.4582 14.1896 14.9767 14.625 14.3973 14.625ZM10.4452 10.4006C10.5746 10.4006 10.7028 10.4456 10.8063 10.5323C11.1877 10.8518 11.6096 11.0959 12.0585 11.2601C12.261 11.3344 12.4038 11.5178 12.4241 11.7326L12.6018 13.5H14.3973L14.574 11.7326C14.5953 11.5178 14.7382 11.3344 14.9396 11.2601C15.3885 11.0959 15.8103 10.8506 16.1917 10.5323C16.356 10.3939 16.5866 10.3624 16.7846 10.4513L18.408 11.1848L19.3057 9.63113L17.868 8.59838C17.6936 8.47238 17.6058 8.25638 17.643 8.04375C17.6857 7.80413 17.7183 7.56338 17.7183 7.3125C17.7183 7.06163 17.6857 6.82088 17.6441 6.5835C17.607 6.37088 17.6947 6.156 17.8691 6.02888L19.3068 4.99613L18.4102 3.4425L16.7857 4.17488C16.5866 4.26375 16.3571 4.23113 16.1928 4.09388C15.8126 3.77438 15.3907 3.53025 14.9407 3.366C14.7382 3.29175 14.5953 3.10838 14.5751 2.8935L14.3973 1.125H12.6018L12.4252 2.89238C12.4038 3.10725 12.261 3.29063 12.0596 3.36488C11.6096 3.52913 11.1877 3.77438 10.8063 4.09388C10.6421 4.23113 10.4126 4.26375 10.2135 4.17488L8.5901 3.44138L7.69235 4.995L9.1301 6.02775C9.30447 6.15375 9.39222 6.36975 9.3551 6.58238C9.31347 6.82088 9.28085 7.06163 9.28085 7.3125C9.28085 7.56338 9.31347 7.80413 9.3551 8.0415C9.39222 8.25413 9.30447 8.469 9.1301 8.59613L7.69235 9.63L8.58897 11.1825L10.2135 10.4501C10.2888 10.4164 10.3676 10.4006 10.4452 10.4006Z" fill="white"/>
</svg>
