<svg width="23" height="27" viewBox="0 0 23 27" fill="none" xmlns="http://www.w3.org/2000/svg">
<path d="M11.4997 2.49414C9.28689 2.49414 7.2139 3.36347 5.66193 4.94276L5.63867 4.96654C5.48637 5.12242 5.48922 5.37223 5.64505 5.52457C5.80088 5.67687 6.05074 5.67402 6.20309 5.51819L6.22555 5.4952C7.62723 4.06884 9.5003 3.28336 11.4997 3.28336C15.5768 3.28336 18.8938 6.6003 18.8938 10.6775C18.8938 14.7546 15.5768 18.0716 11.4997 18.0716C7.42262 18.0716 4.10563 14.7546 4.10563 10.6775C4.10563 9.3455 4.46359 8.03995 5.1408 6.90194C5.25223 6.71463 5.1908 6.47248 5.00348 6.36105C4.81612 6.24962 4.57402 6.31111 4.46259 6.49837C3.71276 7.7584 3.31641 9.20354 3.31641 10.6775C3.31641 15.1898 6.9874 18.8608 11.4997 18.8608C16.0119 18.8608 19.6829 15.1898 19.6829 10.6775C19.6829 6.16524 16.012 2.49414 11.4997 2.49414Z" fill="white"/>
<path d="M21.4946 9.03509C21.2805 8.71631 21.0783 8.41519 21.0023 8.13101C20.9213 7.82773 20.9455 7.45411 20.9712 7.05855C21.0095 6.4685 21.0491 5.85831 20.7476 5.3374C20.4416 4.80837 19.8886 4.53684 19.3539 4.27423C19.0023 4.10157 18.6702 3.93847 18.4544 3.72263C18.2385 3.50673 18.0754 3.17466 17.9027 2.82303C17.6402 2.28836 17.3686 1.73544 16.8395 1.42937C16.3186 1.12799 15.7085 1.16759 15.1184 1.20582C14.7228 1.23151 14.3493 1.25576 14.0459 1.17466C13.7617 1.09867 13.4606 0.896484 13.1418 0.682383C12.6657 0.362549 12.1258 0 11.4997 0C10.8735 0 10.3336 0.362549 9.85735 0.682436C9.53857 0.896537 9.23751 1.09872 8.95333 1.17466C8.65005 1.25576 8.27643 1.23151 7.88087 1.20582C7.29077 1.16759 6.68069 1.12799 6.15972 1.42937C5.63069 1.73544 5.35916 2.28836 5.09654 2.82303C4.92389 3.17466 4.76078 3.50678 4.54489 3.72263C4.32905 3.93847 3.99698 4.10157 3.64535 4.27423C3.11062 4.53679 2.55775 4.80837 2.25163 5.3374C1.9502 5.85831 1.9898 6.4685 2.02809 7.0586C2.05377 7.45411 2.07798 7.82773 1.99692 8.13101C1.92093 8.41519 1.71875 8.71631 1.50465 9.03509C1.18481 9.51138 0.822266 10.0512 0.822266 10.6773C0.822266 11.3035 1.18476 11.8433 1.50465 12.3196C1.7187 12.6384 1.92093 12.9395 1.99687 13.2237C2.07792 13.527 2.05372 13.9006 2.02804 14.2962C1.98975 14.8862 1.95015 15.4964 2.25158 16.0173C2.55765 16.5464 3.11057 16.8179 3.64529 17.0805C3.99687 17.2532 4.329 17.4163 4.54484 17.6321C4.74496 17.8322 4.89979 18.1326 5.05889 18.4555L2.19273 23.7284C2.06975 23.9546 2.07328 24.2227 2.20222 24.4456C2.33115 24.6685 2.56176 24.8052 2.81916 24.8115L5.01718 24.8647L6.25723 26.6803C6.39523 26.8824 6.61904 27 6.86162 27C6.87427 27 6.88703 26.9997 6.8998 26.9991C7.15693 26.986 7.38384 26.8432 7.50682 26.6169L10.5164 21.0803C10.8193 21.2388 11.1456 21.3547 11.4996 21.3547C11.8536 21.3547 12.1799 21.2388 12.4828 21.0803L15.4924 26.617C15.6154 26.8432 15.8423 26.9861 16.0994 26.9991C16.1122 26.9997 16.1249 27.0001 16.1376 27.0001C16.3802 27.0001 16.604 26.8824 16.742 26.6803L17.982 24.8647L20.18 24.8115C20.4374 24.8053 20.6681 24.6685 20.7969 24.4457C20.9259 24.2227 20.9294 23.9546 20.8064 23.7284L19.7583 21.8002C19.6542 21.6086 19.4147 21.5377 19.2232 21.6419C19.0317 21.746 18.9609 21.9856 19.0649 22.1771L20.0693 24.0247L17.9341 24.0764C17.6988 24.0821 17.4792 24.2015 17.3465 24.3959L16.1419 26.1595L13.1546 20.6637C13.4687 20.4528 13.7655 20.255 14.0459 20.18C14.3492 20.099 14.7228 20.1232 15.1183 20.1489C15.7085 20.1871 16.3186 20.2267 16.8395 19.9253C17.1152 19.7658 17.3207 19.5389 17.4917 19.2828L18.1967 20.5799C18.3008 20.7713 18.5402 20.8422 18.7319 20.7381C18.9233 20.634 18.9942 20.3944 18.8901 20.203L17.9402 18.4554C18.0993 18.1326 18.2541 17.8322 18.4543 17.6321C18.6701 17.4163 19.0022 17.2532 19.3538 17.0805C19.8885 16.8179 20.4414 16.5464 20.7475 16.0173C21.049 15.4964 21.0094 14.8862 20.9711 14.2961C20.9454 13.9006 20.9212 13.527 21.0022 13.2237C21.0782 12.9395 21.2804 12.6384 21.4945 12.3196C21.8143 11.8433 22.1768 11.3035 22.1768 10.6773C22.177 10.0512 21.8144 9.51133 21.4946 9.03509ZM6.85729 26.1595L5.65279 24.3959C5.52005 24.2016 5.30036 24.0822 5.06506 24.0765L2.93001 24.0248L5.5075 19.2829C5.67852 19.539 5.88397 19.7658 6.15972 19.9254C6.68069 20.2267 7.29093 20.1872 7.88087 20.1489C8.27643 20.1232 8.65005 20.099 8.95333 20.1801C9.23371 20.255 9.53061 20.4529 9.84459 20.6638L6.85729 26.1595ZM20.8394 11.8796C20.5987 12.2381 20.3498 12.6087 20.2399 13.0199C20.1253 13.4485 20.155 13.9054 20.1836 14.3472C20.2157 14.8416 20.246 15.3085 20.0645 15.6221C19.8785 15.9436 19.4547 16.1517 19.006 16.3721C18.6121 16.5656 18.2048 16.7656 17.8963 17.0741C17.5878 17.3825 17.3878 17.7899 17.1943 18.1838C16.974 18.6325 16.7659 19.0562 16.4444 19.2422C16.1307 19.4237 15.6639 19.3934 15.1695 19.3614C14.7277 19.3327 14.2708 19.3031 13.8422 19.4176C13.4311 19.5276 13.0604 19.7764 12.702 20.0172C12.2821 20.2992 11.8855 20.5656 11.4997 20.5656C11.1139 20.5656 10.7173 20.2992 10.2974 20.0172C9.93893 19.7765 9.56837 19.5276 9.15709 19.4176C8.92179 19.3547 8.67805 19.3353 8.43289 19.3353C8.23145 19.3353 8.02905 19.3485 7.82977 19.3614C7.33538 19.3934 6.86853 19.4238 6.55491 19.2423C6.23339 19.0563 6.02525 18.6325 5.80493 18.1838C5.6115 17.7899 5.41142 17.3826 5.10293 17.0741C4.79448 16.7656 4.38716 16.5656 3.99324 16.3721C3.54457 16.1518 3.1208 15.9437 2.93475 15.6221C2.75329 15.3085 2.78356 14.8416 2.81562 14.3473C2.84431 13.9055 2.87395 13.4486 2.75936 13.02C2.64946 12.6087 2.40055 12.2381 2.15982 11.8797C1.87785 11.4598 1.61149 11.0631 1.61149 10.6774C1.61149 10.2916 1.87785 9.89503 2.15982 9.4751C2.40055 9.11667 2.64941 8.74605 2.75936 8.33483C2.87395 7.9062 2.84431 7.44931 2.81562 7.0075C2.78356 6.51317 2.75329 6.04626 2.93475 5.73265C3.1208 5.41113 3.54457 5.20298 3.99324 4.98261C4.38716 4.78918 4.79448 4.5891 5.10293 4.28066C5.41137 3.97222 5.61144 3.56484 5.80493 3.17092C6.02525 2.72231 6.23339 2.29853 6.55491 2.11249C6.86853 1.93108 7.33538 1.96135 7.82977 1.99336C8.27158 2.02205 8.72841 2.05168 9.15709 1.93709C9.56826 1.82714 9.93888 1.57829 10.2973 1.33755C10.7172 1.05553 11.1139 0.78917 11.4997 0.78917C11.8854 0.78917 12.282 1.05553 12.7019 1.3375C13.0604 1.57823 13.431 1.82714 13.8422 1.93704C14.2708 2.05163 14.7278 2.02199 15.1696 1.99331C15.6639 1.9613 16.1308 1.93097 16.4444 2.11243C16.7659 2.29848 16.9741 2.72225 17.1944 3.17087C17.3878 3.56479 17.5879 3.97211 17.8964 4.28061C18.2048 4.58905 18.6122 4.78912 19.0061 4.98255C19.4547 5.20288 19.8785 5.41102 20.0645 5.73254C20.246 6.04615 20.2157 6.51306 20.1836 7.00734C20.155 7.44915 20.1253 7.90604 20.2399 8.33467C20.3498 8.74589 20.5987 9.11656 20.8394 9.47494C21.1214 9.89487 21.3878 10.2915 21.3878 10.6772C21.3878 11.0631 21.1214 11.4597 20.8394 11.8796Z" fill="white"/>
<path d="M16.9189 10.3078C17.1855 10.0479 17.2797 9.66649 17.1646 9.31238C17.0495 8.95827 16.7492 8.70498 16.3807 8.65146L13.7045 8.2626C13.6453 8.254 13.5941 8.21677 13.5676 8.16309L12.3708 5.7381C12.206 5.40418 11.8723 5.19678 11.5 5.19678C11.1277 5.19678 10.794 5.40418 10.6292 5.7381L9.43238 8.16309C9.40591 8.21677 9.3547 8.254 9.29543 8.2626L6.61932 8.65146C6.25086 8.70498 5.95044 8.95821 5.83537 9.31238C5.7203 9.66649 5.81443 10.0479 6.08111 10.3078L8.01757 12.1954C8.06049 12.2372 8.08001 12.2974 8.06988 12.3564L7.61273 15.0218C7.54976 15.3888 7.69784 15.7527 7.99906 15.9716C8.16928 16.0952 8.36841 16.158 8.56891 16.158C8.72321 16.158 8.87835 16.1208 9.02174 16.0455L11.4153 14.7871C11.4683 14.7592 11.5316 14.7592 11.5846 14.7871L13.9782 16.0455C14.3077 16.2187 14.6996 16.1904 15.0009 15.9716C15.3021 15.7527 15.4502 15.3888 15.3872 15.0218L14.93 12.3564C14.9199 12.2974 14.9395 12.2372 14.9823 12.1955L16.9189 10.3078ZM14.1523 12.4898L14.6094 15.1552C14.6267 15.2558 14.5645 15.3131 14.5371 15.3331C14.5095 15.3531 14.4359 15.3943 14.3455 15.3469L11.9519 14.0885C11.6689 13.9397 11.3311 13.9398 11.0481 14.0885L8.65449 15.3469C8.56426 15.3944 8.49049 15.3531 8.46296 15.3331C8.43549 15.3131 8.37337 15.2558 8.39061 15.1552L8.84776 12.4899C8.90182 12.1749 8.79746 11.8535 8.56848 11.6303L6.63203 9.74274C6.55894 9.6715 6.57549 9.5886 6.58599 9.55633C6.59648 9.524 6.63182 9.44722 6.7328 9.43256L9.40896 9.0437C9.72532 8.99771 9.99864 8.79917 10.1401 8.5125L11.3369 6.08751C11.3821 5.99602 11.466 5.98616 11.5 5.98616C11.5341 5.98616 11.618 5.99602 11.6631 6.08751L12.86 8.5125C13.0014 8.79917 13.2748 8.99777 13.5911 9.0437L16.2673 9.43256C16.3683 9.44722 16.4035 9.524 16.4141 9.55633C16.4246 9.58865 16.4411 9.67155 16.3681 9.74274L14.4315 11.6304C14.2026 11.8535 14.0982 12.1749 14.1523 12.4898Z" fill="white"/>
</svg>
