<svg width="44" height="32" viewBox="0 0 44 32" fill="none" xmlns="http://www.w3.org/2000/svg">
<path d="M33.956 22.7794C33.4775 22.7791 33.0085 22.6456 32.6015 22.394L25.6095 18.2148C25.5378 18.1738 25.4751 18.1189 25.4249 18.0533C25.3747 17.9878 25.3381 17.9129 25.3172 17.833C25.2962 17.7531 25.2914 17.6699 25.303 17.5881C25.3146 17.5064 25.3424 17.4277 25.3847 17.3568C25.4271 17.2859 25.4831 17.2242 25.5496 17.1752C25.616 17.1262 25.6916 17.0909 25.7718 17.0714C25.852 17.0519 25.9354 17.0486 26.0169 17.0617C26.0984 17.0748 26.1765 17.1039 26.2466 17.1475L33.2455 21.3304C33.5466 21.5215 33.9109 21.5861 34.2594 21.5103C34.6078 21.4344 34.9123 21.2242 35.1067 20.9253C35.3012 20.6263 35.3699 20.2628 35.2979 19.9135C35.226 19.5642 35.0192 19.2574 34.7225 19.0596L28.2259 14.6604C28.1146 14.5846 27.9891 14.4988 27.8529 14.4118C27.7814 14.3694 27.7191 14.3131 27.6697 14.2462C27.6204 14.1793 27.5849 14.1032 27.5655 14.0224C27.546 13.9416 27.543 13.8577 27.5565 13.7757C27.5701 13.6937 27.5999 13.6152 27.6443 13.5449C27.6888 13.4746 27.7468 13.414 27.8151 13.3665C27.8833 13.3191 27.9604 13.2858 28.0418 13.2687C28.1231 13.2516 28.2071 13.2509 28.2887 13.2668C28.3703 13.2827 28.4478 13.3148 28.5168 13.3612C28.6666 13.4557 28.8052 13.5477 28.9252 13.631L35.4199 18.0296C35.8794 18.3424 36.2266 18.7943 36.4104 19.3189C36.5942 19.8435 36.605 20.4132 36.4413 20.9444C36.2775 21.4756 35.9478 21.9403 35.5005 22.2704C35.0532 22.6004 34.5119 22.7784 33.956 22.7782V22.7794Z" fill="white"/>
<path d="M28.6983 29.1918C28.2721 29.1923 27.8521 29.0895 27.4743 28.8922L23.0055 26.5555C22.8637 26.4768 22.7583 26.3458 22.7117 26.1905C22.6652 26.0352 22.6811 25.8678 22.7562 25.7241C22.8313 25.5804 22.9596 25.4717 23.1137 25.4213C23.2678 25.3708 23.4355 25.3825 23.5811 25.454L28.0493 27.7901C28.3521 27.9468 28.7012 27.9899 29.033 27.9115C29.3649 27.833 29.6577 27.6382 29.8582 27.3624C29.9712 27.2057 30.0509 27.0275 30.0926 26.8389C30.1343 26.6503 30.1371 26.4551 30.1007 26.2654C30.0643 26.0757 29.9896 25.8954 29.8811 25.7356C29.7726 25.5757 29.6326 25.4397 29.4697 25.3359L24.8697 22.4062C24.7328 22.3167 24.6366 22.1769 24.6021 22.0169C24.5676 21.857 24.5975 21.69 24.6853 21.552C24.7732 21.4139 24.9119 21.3161 25.0714 21.2797C25.2309 21.2433 25.3983 21.2713 25.5373 21.3575L30.1373 24.2872C30.443 24.482 30.7058 24.7371 30.9094 25.037C31.1131 25.3369 31.2533 25.6752 31.3217 26.0312C31.39 26.3872 31.3849 26.7534 31.3068 27.1073C31.2286 27.4613 31.079 27.7956 30.8671 28.0897C30.6186 28.4319 30.2924 28.7102 29.9154 28.9018C29.5383 29.0934 29.1212 29.1928 28.6983 29.1918Z" fill="white"/>
<path d="M24.6144 31.2259C24.1953 31.2261 23.7819 31.1284 23.4072 30.9406L15.3566 26.9131C14.5682 26.5184 13.8265 26.0365 13.1455 25.4765L10.6416 23.4133C10.4058 23.2186 10.1779 23.0155 9.95784 22.8041L5.57603 18.5721C5.51699 18.5155 5.4697 18.4477 5.4369 18.3728C5.4041 18.2978 5.38642 18.2171 5.38488 18.1353C5.38333 18.0535 5.39796 17.9722 5.42792 17.896C5.45787 17.8199 5.50257 17.7504 5.55944 17.6915C5.61631 17.6327 5.68424 17.5857 5.75932 17.5532C5.83441 17.5206 5.91518 17.5033 5.997 17.502C6.07882 17.5008 6.16008 17.5157 6.23611 17.546C6.31215 17.5762 6.38146 17.6212 6.44009 17.6782L10.8225 21.9096C11.0181 22.0994 11.2212 22.2807 11.4317 22.4535L13.9356 24.5161C14.5444 25.0169 15.2075 25.4479 15.9123 25.801L23.963 29.8279C24.2966 29.9929 24.6802 30.0262 25.0373 29.9211C25.3944 29.8161 25.6989 29.5803 25.89 29.2609L26.7659 27.7833C26.8074 27.7131 26.8625 27.6517 26.9278 27.6027C26.9931 27.5538 27.0674 27.5181 27.1465 27.4979C27.2256 27.4776 27.3079 27.4731 27.3887 27.4847C27.4695 27.4962 27.5472 27.5236 27.6175 27.5651C27.6877 27.6067 27.7491 27.6618 27.7981 27.7271C27.847 27.7924 27.8827 27.8667 27.9029 27.9458C27.9232 28.0248 27.9277 28.1071 27.9162 28.188C27.9046 28.2688 27.8773 28.3465 27.8357 28.4168L26.9592 29.895C26.7172 30.301 26.3738 30.6372 25.9628 30.8705C25.5517 31.1038 25.0871 31.2263 24.6144 31.2259Z" fill="white"/>
<path d="M12.7716 8.98863C11.5341 8.97306 10.3156 8.68192 9.20474 8.13639C9.13176 8.09965 9.06673 8.04891 9.01336 7.98704C8.95999 7.92517 8.91934 7.8534 8.89371 7.77582C8.86808 7.69824 8.85798 7.61637 8.86399 7.53489C8.87 7.45341 8.892 7.37391 8.92874 7.30093C9.00292 7.15354 9.13262 7.04166 9.2893 6.9899C9.36688 6.96427 9.44875 6.95417 9.53023 6.96018C9.61172 6.96619 9.69122 6.98819 9.7642 7.02493C11.0204 7.64704 12.4386 7.86423 13.8234 7.64655C13.8482 7.64171 13.8733 7.63838 13.8986 7.6366L14.0988 7.62168C14.8727 7.50426 15.6577 7.47735 16.4379 7.5415C16.6028 7.55155 16.7569 7.62669 16.8664 7.75038C16.9758 7.87407 17.0317 8.03617 17.0216 8.20104C17.0116 8.3659 16.9364 8.52002 16.8127 8.62948C16.6891 8.73895 16.527 8.7948 16.3621 8.78474C15.6546 8.72667 14.9429 8.75129 14.2411 8.85809L14.0304 8.8755C13.6154 8.95324 13.1938 8.99113 12.7716 8.98863Z" fill="white"/>
<path d="M28.5733 14.7719C28.4565 14.7718 28.3421 14.7388 28.2432 14.6768L22.9892 11.3728C22.7071 11.1953 22.3823 11.0971 22.049 11.0888C21.7157 11.0805 21.3864 11.1623 21.0958 11.3256L18.1338 12.9897L17.3567 13.5964C17.3228 13.6231 17.2861 13.6463 17.2473 13.6654C16.097 14.2926 14.7742 14.5293 13.4778 14.3398C13.1663 14.2776 12.8766 14.1346 12.6377 13.9253C12.3987 13.716 12.2189 13.4477 12.1161 13.1471C12.0134 12.8465 11.9913 12.5242 12.0521 12.2124C12.1129 11.9007 12.2545 11.6103 12.4627 11.3704L14.3102 9.21768C14.5114 8.98098 14.7278 8.75756 14.9579 8.54882C16.3036 7.31704 17.819 6.28458 19.4578 5.48298C20.6135 4.93579 21.9098 4.75802 23.1701 4.97387L26.8713 5.57187C30.8223 6.02193 32.0307 5.02422 32.1551 4.90922C32.2147 4.85154 32.2853 4.80637 32.3626 4.77639C32.44 4.7464 32.5226 4.73221 32.6055 4.73464C32.6884 4.73708 32.77 4.75609 32.8455 4.79055C32.921 4.82502 32.9888 4.87425 33.0449 4.93533C33.1011 4.99642 33.1444 5.06812 33.1724 5.14623C33.2004 5.22433 33.2125 5.30724 33.2079 5.39008C33.2034 5.47293 33.1823 5.55402 33.1459 5.62859C33.1095 5.70315 33.0586 5.76968 32.9961 5.82425C32.5019 6.27865 30.9006 7.28195 26.6991 6.8033L22.9948 6.20468C21.9792 6.02579 20.933 6.16472 19.9992 6.60252C18.4659 7.35307 17.0483 8.3198 15.7896 9.47317C15.5989 9.64657 15.4197 9.83221 15.2532 10.0289L13.4045 12.1828C13.3381 12.258 13.2927 12.3493 13.2728 12.4476C13.2529 12.546 13.2593 12.6478 13.2912 12.7428C13.3231 12.8379 13.3796 12.9229 13.4548 12.9892C13.53 13.0556 13.6213 13.101 13.7196 13.1208C14.7276 13.2537 15.7517 13.063 16.6443 12.5763L17.4058 11.9814C17.4302 11.9618 17.4562 11.9444 17.4835 11.9292L20.486 10.2421C20.9717 9.96907 21.5221 9.83227 22.0792 9.84617C22.6362 9.86006 23.1791 10.0241 23.6506 10.3211L28.9046 13.625C29.0186 13.6968 29.1062 13.8038 29.1541 13.9298C29.2021 14.0557 29.2078 14.1938 29.1704 14.3233C29.133 14.4528 29.0545 14.5666 28.9468 14.6476C28.8391 14.7286 28.708 14.7725 28.5733 14.7725V14.7719Z" fill="white"/>
<path d="M40.873 10.8221C40.7636 10.8224 40.656 10.7938 40.5611 10.7393C40.4663 10.6847 40.3875 10.606 40.3328 10.5113L39.7796 9.54092C39.7359 9.46993 39.707 9.39089 39.6945 9.3085C39.682 9.22611 39.6862 9.14205 39.7069 9.06132C39.7275 8.98058 39.7642 8.90483 39.8147 8.83855C39.8652 8.77227 39.9286 8.71683 40.0009 8.67552C40.0733 8.63421 40.1533 8.60787 40.236 8.59806C40.3188 8.58826 40.4026 8.5952 40.4827 8.61847C40.5627 8.64173 40.6372 8.68085 40.7018 8.73349C40.7664 8.78613 40.8198 8.85122 40.8587 8.9249L41.4126 9.89463C41.4672 9.98922 41.4959 10.0965 41.4959 10.2057C41.4958 10.315 41.467 10.4222 41.4123 10.5168C41.3576 10.6113 41.2789 10.6898 41.1842 10.7442C41.0896 10.7987 40.9822 10.8273 40.873 10.8271V10.8221Z" fill="white"/>
<path d="M39.5724 17.4342C39.4384 17.4341 39.305 17.4159 39.1758 17.3801C38.9889 17.3289 38.814 17.2409 38.6614 17.1214C38.5087 17.0019 38.3814 16.8531 38.2869 16.6839L31.3813 4.51565C31.284 4.3471 31.2215 4.1607 31.1975 3.96753C31.1736 3.77435 31.1888 3.57834 31.2421 3.39113C31.3465 3.01457 31.5954 2.69446 31.9346 2.50035L34.6486 0.963076C34.9894 0.770704 35.3928 0.721572 35.7699 0.826482C36.1469 0.931393 36.4669 1.18176 36.6595 1.52254L37.7206 3.39051C37.7637 3.46157 37.7921 3.54056 37.8042 3.6228C37.8162 3.70503 37.8117 3.78885 37.7908 3.8693C37.7698 3.94974 37.733 4.02517 37.6824 4.09113C37.6319 4.15709 37.5686 4.21224 37.4963 4.25331C37.4241 4.29439 37.3443 4.32056 37.2618 4.33027C37.1792 4.33998 37.0956 4.33304 37.0158 4.30986C36.9359 4.28668 36.8616 4.24773 36.7971 4.19531C36.7326 4.14289 36.6792 4.07806 36.6402 4.00467L35.5773 2.13359C35.5625 2.10702 35.5426 2.08365 35.5187 2.06487C35.4947 2.04608 35.4673 2.03225 35.438 2.02419C35.4083 2.01565 35.3771 2.01312 35.3464 2.01675C35.3156 2.02038 35.2859 2.03009 35.259 2.04532L32.5518 3.58011C32.4969 3.61214 32.4565 3.6643 32.4393 3.72556C32.431 3.75417 32.4285 3.78416 32.432 3.81375C32.4355 3.84334 32.445 3.87191 32.4598 3.89775L39.3685 16.0728C39.3832 16.0993 39.403 16.1226 39.4269 16.1412C39.4507 16.1599 39.478 16.1737 39.5072 16.1816C39.5673 16.1982 39.6315 16.1906 39.6862 16.1605L42.394 14.6263C42.4479 14.5959 42.4876 14.5454 42.5046 14.4858C42.5216 14.4263 42.5145 14.3624 42.4847 14.3081L41.6312 12.8006C41.5514 12.6573 41.5314 12.4882 41.5757 12.3302C41.62 12.1722 41.725 12.0381 41.8678 11.9572C42.0105 11.8763 42.1795 11.8551 42.3378 11.8983C42.4961 11.9415 42.6309 12.0455 42.7129 12.1877L43.5645 13.692C43.7573 14.0327 43.8073 14.436 43.7034 14.8134C43.5996 15.1909 43.3505 15.5119 43.0106 15.7061L40.2972 17.2434C40.076 17.3682 39.8264 17.4339 39.5724 17.4342Z" fill="white"/>
<path d="M39.0144 7.55825C38.904 7.55839 38.7954 7.5291 38.7001 7.47337C38.6047 7.41765 38.5259 7.33752 38.4717 7.24122L37.9371 6.29014C37.8564 6.14638 37.836 5.97641 37.8805 5.81764C37.9251 5.65886 38.0308 5.52427 38.1746 5.44349C38.3184 5.36271 38.4883 5.34234 38.6471 5.38687C38.8059 5.4314 38.9405 5.53719 39.0213 5.68095L39.5559 6.63203C39.609 6.72659 39.6365 6.83341 39.6356 6.94188C39.6347 7.05035 39.6054 7.15669 39.5506 7.25034C39.4959 7.34399 39.4176 7.42168 39.3235 7.4757C39.2295 7.52971 39.1229 7.55817 39.0144 7.55825Z" fill="white"/>
<path d="M4.67947 20.8981C4.52253 20.8979 4.36663 20.8727 4.2176 20.8235L1.25993 19.8494C1.07562 19.7889 0.905054 19.6926 0.757971 19.566C0.610888 19.4395 0.490171 19.2853 0.402716 19.1121C0.315261 18.9389 0.262782 18.7502 0.248275 18.5567C0.233769 18.3633 0.25752 18.1689 0.318172 17.9846L4.69439 4.69369C4.81785 4.32226 5.08325 4.01475 5.43265 3.83831C5.78204 3.66187 6.18705 3.63082 6.55925 3.75194L9.51755 4.72664C9.8893 4.8497 10.1972 5.115 10.3738 5.4645C10.5504 5.814 10.5814 6.21922 10.4599 6.5915L6.08682 19.8824C5.98888 20.1782 5.80015 20.4356 5.54748 20.6179C5.29481 20.8003 4.99107 20.8983 4.67947 20.8981ZM6.09925 4.92245C6.04969 4.92243 6.00139 4.93803 5.96121 4.96705C5.92103 4.99607 5.89103 5.03702 5.87547 5.08407L1.49925 18.3718C1.48949 18.4011 1.48562 18.4319 1.48786 18.4627C1.4901 18.4934 1.49841 18.5234 1.51231 18.5509C1.526 18.5786 1.54511 18.6032 1.56849 18.6234C1.59187 18.6436 1.61906 18.6589 1.64844 18.6684L4.60674 19.6431C4.66612 19.6621 4.73057 19.6572 4.78639 19.6294C4.8143 19.6157 4.83921 19.5966 4.8597 19.5733C4.88019 19.5499 4.89584 19.5227 4.90574 19.4932L9.28196 6.20423C9.30141 6.14496 9.29656 6.08039 9.26848 6.02469C9.2404 5.96899 9.19137 5.9267 9.13214 5.9071L6.1726 4.93488C6.14905 4.92639 6.12428 4.92177 6.09925 4.92121V4.92245Z" fill="white"/>
<path d="M32.331 26.5288C31.8273 26.5288 31.3342 26.3845 30.91 26.113L23.9895 21.8468C23.9157 21.8061 23.851 21.7509 23.7993 21.6845C23.7475 21.6181 23.7098 21.5419 23.6884 21.4604C23.667 21.379 23.6623 21.2941 23.6748 21.2108C23.6872 21.1275 23.7164 21.0476 23.7606 20.976C23.8048 20.9043 23.8631 20.8424 23.932 20.794C24.0008 20.7455 24.0788 20.7116 24.1612 20.6942C24.2436 20.6768 24.3286 20.6763 24.4112 20.6928C24.4938 20.7093 24.5721 20.7424 24.6415 20.79L31.5732 25.0593C31.729 25.1656 31.9046 25.2394 32.0896 25.2763C32.2745 25.3132 32.465 25.3123 32.6497 25.2739C32.8343 25.2354 33.0093 25.1601 33.1641 25.0525C33.319 24.9449 33.4506 24.8071 33.5509 24.6474C33.6513 24.4878 33.7185 24.3095 33.7484 24.1233C33.7783 23.9371 33.7703 23.7468 33.725 23.5637C33.6796 23.3807 33.5978 23.2086 33.4844 23.0579C33.3711 22.9072 33.2284 22.7809 33.0651 22.6866L26.7426 18.9115C26.671 18.8704 26.6082 18.8155 26.558 18.75C26.5078 18.6844 26.4712 18.6095 26.4503 18.5296C26.4294 18.4497 26.4246 18.3665 26.4362 18.2847C26.4478 18.203 26.4756 18.1244 26.5179 18.0535C26.5602 17.9826 26.6162 17.9208 26.6827 17.8718C26.7491 17.8228 26.8247 17.7875 26.9049 17.768C26.9852 17.7486 27.0685 17.7453 27.15 17.7583C27.2316 17.7714 27.3097 17.8006 27.3798 17.8442L33.7104 21.623C34.2029 21.9238 34.5836 22.3772 34.7946 22.9144C35.0055 23.4515 35.0352 24.0429 34.879 24.5984C34.7228 25.154 34.3893 25.6432 33.9293 25.9917C33.4693 26.3402 32.9081 26.5288 32.331 26.5288Z" fill="white"/>
</svg>
