<svg width="23" height="25" viewBox="0 0 23 25" fill="none" xmlns="http://www.w3.org/2000/svg">
<path d="M20.0516 8.55188C20.0516 3.82881 16.2227 0 11.4997 0C6.7766 0 2.94779 3.82881 2.94779 8.55188C1.72677 8.70392 0.572266 9.50209 0.572266 11.355V15.821C0.572266 17.9114 2.03559 18.6716 3.42289 18.6716H4.8007C5.06307 18.6716 5.2758 18.4589 5.2758 18.1965V8.99848C5.2758 8.7361 5.06307 8.52338 4.8007 8.52338H3.898C3.898 4.32511 7.30141 0.921703 11.4997 0.921703C15.6979 0.921703 19.1013 4.32511 19.1013 8.52338H18.1986C17.9363 8.52338 17.7235 8.7361 17.7235 8.99848V18.1823C17.7235 18.4446 17.9363 18.6574 18.1986 18.6574H19.1013C18.9683 21.9213 17.4005 22.6862 14.2695 22.824V22.5057C14.2695 21.9809 13.8441 21.5555 13.3193 21.5555H10.3309C9.8061 21.5555 9.3807 21.9809 9.3807 22.5057V24.0498C9.3807 24.5746 9.8061 25 10.3309 25H13.3288C13.8536 25 14.279 24.5746 14.279 24.0498V23.7742C17.2912 23.6365 19.8948 23.0141 20.0516 18.6288C21.2726 18.4768 22.4271 17.6786 22.4271 15.8257V11.3597C22.4271 9.49734 21.2773 8.70392 20.0516 8.55188ZM4.32559 9.44033V17.7071H3.39914C2.69598 17.7071 1.49872 17.4601 1.49872 15.8067V11.3407C1.49872 9.70164 2.68173 9.44033 3.39914 9.44033H4.32559ZM13.3288 23.3324V24.0545H10.3309V22.5105H13.3288V23.3324ZM21.4769 15.821C21.4769 17.4601 20.2939 17.7214 19.5764 17.7214H18.6737V9.47359H19.6002C20.3034 9.47359 21.5006 9.72064 21.5006 11.374L21.4769 15.821Z" fill="#00C5DE"/>
</svg>
