<svg width="71" height="71" viewBox="0 0 71 71" fill="none" xmlns="http://www.w3.org/2000/svg">
<g clip-path="url(#clip0)">
<path d="M0.65918 27.0723H70.3403V71H0.65918V27.0723Z" fill="#DBD8DD"/>
<path d="M12.2871 16.4746H58.7263V71H12.2871V16.4746Z" fill="#EEEFEE"/>
<path d="M10.6016 14.7885H60.3982V18.4627H10.6016V14.7885Z" fill="#DBD8DD"/>
<path d="M22.5215 47.1342H48.4772V71H22.5215V47.1342Z" fill="#575B6D"/>
<path d="M24.0312 48.6297H46.9678V71H24.0312V48.6297Z" fill="#828A9E"/>
<path d="M34.7295 47.8416H36.2702V71H34.7295V47.8416Z" fill="#575B6D"/>
<path d="M16.3887 22.3686H25.1855V31.1654H16.3887V22.3686Z" fill="#69B0EE"/>
<path opacity="0.4" d="M22.3531 22.3686L19.45 31.1654H17.4443L20.3482 22.3686H22.3531Z" fill="white"/>
<path opacity="0.4" d="M24.1308 22.3686L21.2278 31.1654H20.7432L23.6462 22.3686H24.1308Z" fill="white"/>
<path d="M31.1084 22.3686H39.9052V31.1654H31.1084V22.3686Z" fill="#69B0EE"/>
<path opacity="0.4" d="M37.0728 22.3686L34.1698 31.1654H32.1641L35.068 22.3686H37.0728Z" fill="white"/>
<path opacity="0.4" d="M38.8505 22.3686L35.9475 31.1654H35.4629L38.3659 22.3686H38.8505Z" fill="white"/>
<path d="M45.8271 22.3686H54.624V31.1654H45.8271V22.3686Z" fill="#69B0EE"/>
<path opacity="0.4" d="M51.7915 22.3686L48.8885 31.1654H46.8828L49.7866 22.3686H51.7915Z" fill="white"/>
<path opacity="0.4" d="M53.5693 22.3686L50.6662 31.1654H50.1816L53.0847 22.3686H53.5693Z" fill="white"/>
<path d="M16.3887 34.9329H25.1855V43.7298H16.3887V34.9329Z" fill="#69B0EE"/>
<path opacity="0.4" d="M22.3531 34.9329L19.45 43.7298H17.4443L20.3482 34.9329H22.3531Z" fill="white"/>
<path opacity="0.4" d="M24.1308 34.9329L21.2278 43.7298H20.7432L23.6462 34.9329H24.1308Z" fill="white"/>
<path d="M31.1084 34.9329H39.9052V43.7298H31.1084V34.9329Z" fill="#69B0EE"/>
<path opacity="0.4" d="M37.0728 34.9329L34.1698 43.7298H32.1641L35.068 34.9329H37.0728Z" fill="white"/>
<path opacity="0.4" d="M38.8505 34.9329L35.9475 43.7298H35.4629L38.3659 34.9329H38.8505Z" fill="white"/>
<path d="M45.8271 34.9329H54.624V43.7298H45.8271V34.9329Z" fill="#69B0EE"/>
<path opacity="0.4" d="M51.7915 34.9329L48.8885 43.7298H46.8828L49.7866 34.9329H51.7915Z" fill="white"/>
<path opacity="0.4" d="M53.5693 34.9329L50.6662 43.7298H50.1816L53.0847 34.9329H53.5693Z" fill="white"/>
</g>
<defs>
<clipPath id="clip0">
<rect width="71" height="71" fill="white"/>
</clipPath>
</defs>
</svg>
