<svg width="202" height="158" viewBox="0 0 202 158" fill="none" xmlns="http://www.w3.org/2000/svg">
<path d="M72.0898 16.9439C70.9321 15.7863 69.0378 15.7863 67.8801 16.9439C66.7225 18.1016 66.7225 19.9959 67.8801 21.1535C69.0378 22.3112 70.9321 22.3112 72.0898 21.1535C73.2474 19.9959 73.2474 18.1016 72.0898 16.9439Z" fill="url(#paint0_linear)"/>
<path d="M1.36821 96.4003C0.612616 96.4003 8.13007e-05 95.7878 8.13007e-05 95.0322C8.13007e-05 94.2766 0.612616 93.6641 1.36821 93.6641C2.12381 93.6641 2.73633 94.2766 2.73633 95.0322C2.73633 95.7878 2.12381 96.4003 1.36821 96.4003Z" fill="url(#paint1_linear)"/>
<path d="M116.502 3.57818C115.514 3.57818 114.713 2.77718 114.713 1.78909C114.713 0.801003 115.514 0 116.502 0C117.49 0 118.291 0.801003 118.291 1.78909C118.291 2.77718 117.49 3.57818 116.502 3.57818Z" fill="url(#paint2_linear)"/>
<path d="M48.7263 14.1023C48.3053 13.6814 47.5686 13.6814 47.0424 14.1023C46.6215 14.5233 46.6215 15.26 47.0424 15.7862C47.4634 16.2072 48.2001 16.2072 48.7263 15.7862C49.1472 15.26 49.1472 14.5233 48.7263 14.1023Z" fill="url(#paint3_linear)"/>
<path d="M49.4632 39.1496C49.2528 38.9391 48.8318 38.9391 48.6213 39.1496C48.4108 39.36 48.4108 39.781 48.6213 39.9915C48.8318 40.202 49.2528 40.202 49.4632 39.9915C49.6737 39.781 49.6737 39.36 49.4632 39.1496Z" fill="url(#paint4_linear)"/>
<path d="M17.1544 128.604C16.6313 128.604 16.2072 128.18 16.2072 127.657C16.2072 127.134 16.6313 126.709 17.1544 126.709C17.6775 126.709 18.1016 127.134 18.1016 127.657C18.1016 128.18 17.6775 128.604 17.1544 128.604Z" fill="url(#paint5_linear)"/>
<path d="M19.0485 59.4612C18.6276 59.0403 17.8909 59.0403 17.3647 59.4612C16.9437 59.8822 16.9437 60.6189 17.3647 61.1451C17.7857 61.566 18.5223 61.566 19.0485 61.1451C19.4695 60.6189 19.4695 59.8822 19.0485 59.4612Z" fill="url(#paint6_linear)"/>
<path d="M19.0485 25.3626C18.6276 24.9416 17.8909 24.9416 17.3647 25.3626C16.9437 25.7836 16.9437 26.5202 17.3647 27.0464C17.7857 27.4674 18.5223 27.4674 19.0485 27.0464C19.4695 26.6255 19.4695 25.8888 19.0485 25.3626Z" fill="url(#paint7_linear)"/>
<path d="M5.26261 71.774C4.10497 71.8793 3.36828 72.8264 3.36828 73.9841C3.47352 75.1417 4.42069 75.8784 5.57834 75.8784C6.73598 75.7732 7.47266 74.826 7.47266 73.6684C7.36742 72.5107 6.42026 71.6688 5.26261 71.774Z" fill="url(#paint8_linear)"/>
<path d="M38.097 31.4671C37.3603 31.5723 36.8341 32.2038 36.8341 32.9405C36.9393 33.6771 37.5707 34.2033 38.3074 34.2033C39.0441 34.0981 39.5703 33.4667 39.5703 32.73C39.5703 31.9933 38.8336 31.3618 38.097 31.4671Z" fill="url(#paint9_linear)"/>
<path d="M9.05137 132.708C8.52516 131.761 7.36752 131.551 6.42035 132.077C5.47318 132.603 5.26271 133.761 5.78892 134.708C6.31512 135.655 7.47277 135.865 8.41993 135.339C9.3671 134.813 9.68281 133.655 9.05137 132.708Z" fill="url(#paint10_linear)"/>
<path d="M12.1025 155.546C11.4711 155.546 10.9449 156.177 11.0501 156.809C11.0501 157.44 11.6816 157.966 12.313 157.861C12.9445 157.861 13.4707 157.23 13.3654 156.598C13.2602 155.967 12.734 155.44 12.1025 155.546Z" fill="url(#paint11_linear)"/>
<path d="M74.6164 3.68364C74.5112 2.94696 73.7745 2.526 73.143 2.63124C72.4064 2.73648 71.9854 3.47316 72.0906 4.10461C72.1959 4.84129 72.9326 5.26225 73.564 5.15701C74.1954 5.15701 74.7216 4.42033 74.6164 3.68364Z" fill="url(#paint12_linear)"/>
<path d="M201.431 64.3024C201.22 64.0919 200.8 64.1971 200.694 64.5129C200.484 64.8286 200.589 65.1443 200.905 65.3548C201.22 65.5653 201.536 65.46 201.747 65.1443C201.852 64.8286 201.747 64.5129 201.431 64.3024Z" fill="url(#paint13_linear)"/>
<path d="M172.49 24.2048C172.595 23.1524 171.753 22.2052 170.701 22.2052C169.649 22.0999 168.701 22.9419 168.701 23.9943C168.596 25.0467 169.438 25.9939 170.491 25.9939C171.543 25.9939 172.385 25.2572 172.49 24.2048Z" fill="url(#paint14_linear)"/>
<path d="M151.547 10.7346C151.126 10.5242 150.6 10.6294 150.284 11.0504C150.074 11.4713 150.179 11.9975 150.6 12.3132C151.021 12.5237 151.547 12.4185 151.863 11.9975C152.178 11.5766 151.968 10.9451 151.547 10.7346Z" fill="url(#paint15_linear)"/>
<path d="M191.959 50.3049C190.68 50.3049 189.644 49.2683 189.644 47.9896C189.644 46.7109 190.68 45.6743 191.959 45.6743C193.238 45.6743 194.274 46.7109 194.274 47.9896C194.274 49.2683 193.238 50.3049 191.959 50.3049Z" fill="url(#paint16_linear)"/>
<path d="M20.2065 116.501C21.1536 117.027 22.4165 116.817 22.9427 115.87C23.4689 114.923 23.2584 113.66 22.3113 113.133C21.3641 112.607 20.1012 112.818 19.575 113.765C18.9436 114.712 19.2593 115.87 20.2065 116.501Z" fill="url(#paint17_linear)"/>
<path d="M185.118 105.872C185.013 106.924 185.75 107.872 186.802 107.872C187.854 107.977 188.802 107.24 188.802 106.188C188.907 105.135 188.17 104.188 187.118 104.188C186.065 104.083 185.118 104.82 185.118 105.872Z" fill="url(#paint18_linear)"/>
<path d="M196.063 83.982C196.59 84.2978 197.326 84.1925 197.642 83.5611C197.958 83.0349 197.853 82.2982 197.221 81.9825C196.59 81.6667 195.958 81.772 195.642 82.4034C195.327 83.0349 195.537 83.5611 196.063 83.982Z" fill="url(#paint19_linear)"/>
<path d="M103.031 12.208C102.82 10.7346 101.347 9.78746 99.9787 9.99794C98.5054 10.2084 97.5582 11.6818 97.7687 13.0499C97.9792 14.5233 99.4525 15.4705 100.821 15.26C102.294 14.9443 103.346 13.5761 103.031 12.208Z" fill="url(#paint20_linear)"/>
<defs>
<linearGradient id="paint0_linear" x1="67.8574" y1="21.2066" x2="72.0964" y2="16.9675" gradientUnits="userSpaceOnUse">
<stop stop-color="#3F67E2"/>
<stop offset="1" stop-color="#91ACFF"/>
</linearGradient>
<linearGradient id="paint1_linear" x1="0.389153" y1="96.0252" x2="2.33985" y2="94.0745" gradientUnits="userSpaceOnUse">
<stop stop-color="#3F67E2"/>
<stop offset="1" stop-color="#91ACFF"/>
</linearGradient>
<linearGradient id="paint2_linear" x1="115.222" y1="3.08761" x2="117.773" y2="0.536701" gradientUnits="userSpaceOnUse">
<stop stop-color="#3F67E2"/>
<stop offset="1" stop-color="#91ACFF"/>
</linearGradient>
<linearGradient id="paint3_linear" x1="47.0559" y1="15.7845" x2="48.7065" y2="14.1339" gradientUnits="userSpaceOnUse">
<stop stop-color="#3F67E2"/>
<stop offset="1" stop-color="#91ACFF"/>
</linearGradient>
<linearGradient id="paint4_linear" x1="48.6281" y1="39.9906" x2="49.4533" y2="39.1653" gradientUnits="userSpaceOnUse">
<stop stop-color="#3F67E2"/>
<stop offset="1" stop-color="#91ACFF"/>
</linearGradient>
<linearGradient id="paint5_linear" x1="16.4766" y1="128.344" x2="17.8271" y2="126.994" gradientUnits="userSpaceOnUse">
<stop stop-color="#3F67E2"/>
<stop offset="1" stop-color="#91ACFF"/>
</linearGradient>
<linearGradient id="paint6_linear" x1="17.3782" y1="61.1434" x2="19.0288" y2="59.4928" gradientUnits="userSpaceOnUse">
<stop stop-color="#3F67E2"/>
<stop offset="1" stop-color="#91ACFF"/>
</linearGradient>
<linearGradient id="paint7_linear" x1="17.3782" y1="27.0447" x2="19.0288" y2="25.3942" gradientUnits="userSpaceOnUse">
<stop stop-color="#3F67E2"/>
<stop offset="1" stop-color="#91ACFF"/>
</linearGradient>
<linearGradient id="paint8_linear" x1="3.95189" y1="75.3145" x2="6.88426" y2="72.3884" gradientUnits="userSpaceOnUse">
<stop stop-color="#3F67E2"/>
<stop offset="1" stop-color="#91ACFF"/>
</linearGradient>
<linearGradient id="paint9_linear" x1="37.2231" y1="33.8266" x2="39.182" y2="31.8759" gradientUnits="userSpaceOnUse">
<stop stop-color="#3F67E2"/>
<stop offset="1" stop-color="#91ACFF"/>
</linearGradient>
<linearGradient id="paint10_linear" x1="6.05771" y1="135.097" x2="8.78527" y2="132.336" gradientUnits="userSpaceOnUse">
<stop stop-color="#3F67E2"/>
<stop offset="1" stop-color="#91ACFF"/>
</linearGradient>
<linearGradient id="paint11_linear" x1="11.3697" y1="157.553" x2="13.0395" y2="155.884" gradientUnits="userSpaceOnUse">
<stop stop-color="#3F67E2"/>
<stop offset="1" stop-color="#91ACFF"/>
</linearGradient>
<linearGradient id="paint12_linear" x1="72.438" y1="4.82234" x2="74.2614" y2="3.00069" gradientUnits="userSpaceOnUse">
<stop stop-color="#3F67E2"/>
<stop offset="1" stop-color="#91ACFF"/>
</linearGradient>
<linearGradient id="paint13_linear" x1="200.756" y1="65.29" x2="201.661" y2="64.4349" gradientUnits="userSpaceOnUse">
<stop stop-color="#3F67E2"/>
<stop offset="1" stop-color="#91ACFF"/>
</linearGradient>
<linearGradient id="paint14_linear" x1="169.234" y1="25.4732" x2="171.941" y2="22.7596" gradientUnits="userSpaceOnUse">
<stop stop-color="#3F67E2"/>
<stop offset="1" stop-color="#91ACFF"/>
</linearGradient>
<linearGradient id="paint15_linear" x1="150.44" y1="12.1732" x2="151.715" y2="10.8648" gradientUnits="userSpaceOnUse">
<stop stop-color="#3F67E2"/>
<stop offset="1" stop-color="#91ACFF"/>
</linearGradient>
<linearGradient id="paint16_linear" x1="190.302" y1="49.67" x2="193.603" y2="46.3689" gradientUnits="userSpaceOnUse">
<stop stop-color="#3F67E2"/>
<stop offset="1" stop-color="#91ACFF"/>
</linearGradient>
<linearGradient id="paint17_linear" x1="19.8121" y1="116.244" x2="22.6147" y2="113.408" gradientUnits="userSpaceOnUse">
<stop stop-color="#3F67E2"/>
<stop offset="1" stop-color="#91ACFF"/>
</linearGradient>
<linearGradient id="paint18_linear" x1="185.635" y1="107.374" x2="188.275" y2="104.734" gradientUnits="userSpaceOnUse">
<stop stop-color="#3F67E2"/>
<stop offset="1" stop-color="#91ACFF"/>
</linearGradient>
<linearGradient id="paint19_linear" x1="195.824" y1="83.833" x2="197.495" y2="82.1789" gradientUnits="userSpaceOnUse">
<stop stop-color="#3F67E2"/>
<stop offset="1" stop-color="#91ACFF"/>
</linearGradient>
<linearGradient id="paint20_linear" x1="98.4999" y1="14.5597" x2="102.293" y2="10.7476" gradientUnits="userSpaceOnUse">
<stop stop-color="#3F67E2"/>
<stop offset="1" stop-color="#91ACFF"/>
</linearGradient>
</defs>
</svg>
