<svg width="31" height="31" viewBox="0 0 31 31" fill="none" xmlns="http://www.w3.org/2000/svg">
<path d="M26.4603 4.53987C23.5327 1.6123 19.6403 0 15.5001 0C11.9095 0 8.40919 1.25617 5.6439 3.53697C5.42157 3.72024 5.39002 4.04907 5.57336 4.27134C5.75676 4.49367 6.08565 4.52509 6.30779 4.34182C8.88661 2.2148 12.1512 1.04334 15.5001 1.04334C23.4716 1.04334 29.9567 7.52852 29.9567 15.5C29.9567 19.0786 28.6386 22.513 26.2452 25.1707C26.0525 25.3848 26.0697 25.7146 26.2838 25.9074C26.3836 25.9972 26.5084 26.0415 26.6328 26.0415C26.7755 26.0415 26.9176 25.9832 27.0206 25.8688C29.5869 23.0194 31.0002 19.3369 31.0002 15.4999C31.0001 11.3598 29.3878 7.46743 26.4603 4.53987Z" fill="white"/>
<path d="M25.5313 26.6342C25.3458 26.4137 25.0168 26.3851 24.7962 26.5706C22.1987 28.7542 18.8972 29.9568 15.5 29.9568C7.52858 29.9568 1.0434 23.4716 1.0434 15.5002C1.0434 11.8715 2.39402 8.40125 4.84654 5.72889C5.04137 5.51661 5.02727 5.18663 4.81493 4.99179C4.60259 4.79695 4.27249 4.81124 4.07783 5.02346C1.44816 7.88884 0 11.6096 0 15.5002C0 19.6405 1.6123 23.5329 4.53987 26.4604C7.46749 29.3879 11.3599 31.0002 15.5001 31.0002C19.1426 31.0002 22.6824 29.7108 25.4677 27.3692C25.6882 27.1839 25.7167 26.8548 25.5313 26.6342Z" fill="white"/>
<path d="M17.5203 11.4473H13.4797C13.1915 11.4473 12.958 11.6809 12.958 11.9689V25.6404C12.958 25.9284 13.1915 26.162 13.4797 26.162H17.5203C17.8085 26.162 18.0419 25.9284 18.0419 25.6403V11.9689C18.0419 11.6808 17.8084 11.4473 17.5203 11.4473ZM16.9987 25.1187H14.0014V12.4906H16.9987V25.1187Z" fill="white"/>
<path d="M15.4997 4.76514C13.8995 4.76514 12.5977 6.06701 12.5977 7.66715C12.5977 9.26734 13.8995 10.5692 15.4997 10.5692C17.0999 10.5692 18.4017 9.26728 18.4017 7.66715C18.4017 6.06695 17.0999 4.76514 15.4997 4.76514ZM15.4997 9.52581C14.4748 9.52581 13.641 8.69202 13.641 7.66715C13.641 6.64227 14.4749 5.80848 15.4997 5.80848C16.5245 5.80848 17.3583 6.64227 17.3583 7.66715C17.3583 8.69202 16.5245 9.52581 15.4997 9.52581Z" fill="white"/>
</svg>
