<svg width="11" height="13" viewBox="0 0 11 13" fill="none" xmlns="http://www.w3.org/2000/svg">
<path d="M10.9529 10.2636L10.9091 10.3162C9.46672 12.0468 7.54548 13.0003 5.50037 13.0003C3.45496 13.0003 1.53402 12.0471 0.0913581 10.3162L0.0478516 10.2636L0.0581239 10.1962C0.336687 8.37924 1.28598 6.91966 2.73106 6.08548L2.83378 6.02626L2.91566 6.11207C3.59817 6.82811 4.51604 7.22209 5.50007 7.22209C6.4841 7.22209 7.40197 6.82781 8.08448 6.11207L8.16636 6.02626L8.26908 6.08548C9.71416 6.91966 10.6635 8.37924 10.9423 10.1962L10.9529 10.2636ZM5.50037 6.49245C7.29018 6.49245 8.74644 5.03619 8.74644 3.24637C8.74644 1.45656 7.29018 0 5.50037 0C3.71056 0 2.2543 1.45656 2.2543 3.24607C2.2543 5.03558 3.71056 6.49245 5.50037 6.49245Z" fill="#CFCFCF"/>
</svg>
