<svg width="12" height="13" viewBox="0 0 12 13" fill="none" xmlns="http://www.w3.org/2000/svg">
<path d="M10.3395 9.04807C9.61454 8.37638 8.87885 7.96952 8.16283 8.64019L7.73528 9.04554C7.42246 9.33978 6.84084 10.7146 4.5921 7.91219C2.34383 5.11332 3.68174 4.67754 3.99503 4.38583L4.42492 3.97998C5.1372 3.30778 4.86839 2.46158 4.35468 1.59051L4.04467 1.0629C3.52861 0.193869 2.96666 -0.376863 2.25251 0.294318L1.86664 0.659586C1.55101 0.908679 0.668746 1.71836 0.454736 3.25654C0.197175 5.10216 1.00966 7.21564 2.87113 9.53459C4.73025 11.8546 6.5505 13.0199 8.27476 12.9996C9.70773 12.9828 10.5731 12.1498 10.8438 11.8469L11.2311 11.4812C11.9434 10.8105 11.5008 10.1276 10.7754 9.45443L10.3395 9.04807Z" fill="#CFCFCF"/>
</svg>
