<svg width="25" height="23" viewBox="0 0 25 23" fill="none" xmlns="http://www.w3.org/2000/svg">
<path d="M22.6352 18.9327H2.36497C1.91713 18.9322 1.48779 18.754 1.17113 18.4374C0.854458 18.1207 0.676318 17.6913 0.675781 17.2435V5.08134H1.35146V17.2435C1.35146 17.5123 1.45824 17.7701 1.64831 17.9602C1.83838 18.1502 2.09617 18.257 2.36497 18.257H22.6352C22.904 18.257 23.1618 18.1502 23.3519 17.9602C23.542 17.7701 23.6488 17.5123 23.6488 17.2435V2.37864C23.6488 2.10984 23.542 1.85205 23.3519 1.66198C23.1618 1.47191 22.904 1.36513 22.6352 1.36513H2.36497C2.09617 1.36513 1.83838 1.47191 1.64831 1.66198C1.45824 1.85205 1.35146 2.10984 1.35146 2.37864V3.72999H0.675781V2.37864C0.676318 1.93081 0.854458 1.50147 1.17113 1.1848C1.48779 0.868129 1.91713 0.68999 2.36497 0.689453H22.6352C23.0831 0.68999 23.5124 0.868129 23.8291 1.1848C24.1458 1.50147 24.3239 1.93081 24.3244 2.37864V17.2435C24.3239 17.6913 24.1458 18.1207 23.8291 18.4374C23.5124 18.754 23.0831 18.9322 22.6352 18.9327Z" fill="white"/>
<path d="M17.5677 22.3107H7.43256C7.34296 22.3107 7.25703 22.2751 7.19368 22.2118C7.13032 22.1484 7.09473 22.0625 7.09473 21.9729C7.09473 20.2837 8.87479 20.2837 9.45959 20.2837H15.5407C16.1255 20.2837 17.9055 20.2837 17.9055 21.9729C17.9055 22.0625 17.8699 22.1484 17.8066 22.2118C17.7432 22.2751 17.6573 22.3107 17.5677 22.3107ZM7.81128 21.635H17.189C17.0711 21.2192 16.6633 20.9594 15.5407 20.9594H9.45959C8.33696 20.9594 7.92919 21.2192 7.81128 21.635Z" fill="white"/>
<path d="M15.2022 20.9595H9.79682C9.70722 20.9595 9.62129 20.9239 9.55793 20.8606C9.49458 20.7972 9.45898 20.7113 9.45898 20.6217V18.5947C9.45898 18.5051 9.49458 18.4191 9.55793 18.3558C9.62129 18.2924 9.70722 18.2568 9.79682 18.2568H15.2022C15.2918 18.2568 15.3778 18.2924 15.4411 18.3558C15.5045 18.4191 15.5401 18.5051 15.5401 18.5947V20.6217C15.5401 20.7113 15.5045 20.7972 15.4411 20.8606C15.3778 20.9239 15.2918 20.9595 15.2022 20.9595ZM10.1347 20.2839H14.8644V18.9325H10.1347V20.2839Z" fill="white"/>
<path d="M1.01367 15.5542H23.9866V16.2299H1.01367V15.5542Z" fill="white"/>
<path d="M11.1484 16.9053H13.8511V17.581H11.1484V16.9053Z" fill="white"/>
</svg>
