<svg width="18" height="30" viewBox="0 0 18 30" fill="none" xmlns="http://www.w3.org/2000/svg">
<path d="M15.4453 0H2.55469C1.34309 0 0.357422 0.985664 0.357422 2.19727V27.8027C0.357422 29.0143 1.34309 30 2.55469 30H15.4453C16.6569 30 17.6426 29.0143 17.6426 27.8027V2.19727C17.6426 0.985664 16.6569 0 15.4453 0ZM16.7637 23.8477H4.3125C4.0698 23.8477 3.87305 24.0444 3.87305 24.2871C3.87305 24.5298 4.0698 24.7266 4.3125 24.7266H16.7637V27.8027C16.7637 28.5297 16.1723 29.1211 15.4453 29.1211H2.55469C1.82771 29.1211 1.23633 28.5297 1.23633 27.8027V24.7266H2.55469C2.79738 24.7266 2.99414 24.5298 2.99414 24.2871C2.99414 24.0444 2.79738 23.8477 2.55469 23.8477H1.23633V4.39453H16.7637V23.8477ZM16.7637 3.51562H1.23633V2.19727C1.23633 1.47029 1.82771 0.878906 2.55469 0.878906H15.4453C16.1723 0.878906 16.7637 1.47029 16.7637 2.19727V3.51562Z" fill="#00C5DE"/>
<path d="M10.7578 1.75781H9C8.7573 1.75781 8.56055 1.95457 8.56055 2.19727C8.56055 2.43996 8.7573 2.63672 9 2.63672H10.7578C11.0005 2.63672 11.1973 2.43996 11.1973 2.19727C11.1973 1.95457 11.0005 1.75781 10.7578 1.75781Z" fill="#00C5DE"/>
<path d="M9 25.6055C8.27303 25.6055 7.68164 26.1969 7.68164 26.9238C7.68164 27.6508 8.27303 28.2422 9 28.2422C9.72697 28.2422 10.3184 27.6508 10.3184 26.9238C10.3184 26.1969 9.72697 25.6055 9 25.6055ZM9 27.3633C8.75766 27.3633 8.56055 27.1662 8.56055 26.9238C8.56055 26.6815 8.75766 26.4844 9 26.4844C9.24234 26.4844 9.43945 26.6815 9.43945 26.9238C9.43945 27.1662 9.24234 27.3633 9 27.3633Z" fill="#00C5DE"/>
<path d="M7.24219 2.63672C7.48489 2.63672 7.68164 2.43997 7.68164 2.19727C7.68164 1.95456 7.48489 1.75781 7.24219 1.75781C6.99948 1.75781 6.80273 1.95456 6.80273 2.19727C6.80273 2.43997 6.99948 2.63672 7.24219 2.63672Z" fill="#00C5DE"/>
</svg>
