<svg width="71" height="71" viewBox="0 0 71 71" fill="none" xmlns="http://www.w3.org/2000/svg">
<g clip-path="url(#clip0)">
<path d="M13.5537 27.9402H57.8828V64.5155H13.5537V27.9402Z" fill="#575B6D"/>
<path d="M4.28809 26.502H66.7118V29.3775H4.28809V26.502Z" fill="#DBD8DD"/>
<path d="M5.49414 62.0635H65.5047V66.966H5.49414V62.0635Z" fill="#DBD8DD"/>
<path d="M2.68066 65.9867H68.3192V71H2.68066V65.9867Z" fill="#EEEFEE"/>
<path d="M35.4996 0L0.0810547 26.502H70.9182L35.4996 0Z" fill="#EEEFEE"/>
<path d="M8.22461 23.5738L35.4999 3.0556L62.7743 23.5738H8.22461Z" fill="#DBD8DD"/>
<path d="M9.31738 32.4331H17.7906V59.1169H9.31738V32.4331Z" fill="#DBD8DD"/>
<path d="M7.83984 29.3775H19.2691V31.9023C19.2691 32.5049 18.7806 32.9933 18.1781 32.9933H8.93082C8.32827 32.9933 7.83984 32.5049 7.83984 31.9023V29.3775Z" fill="#EEEFEE"/>
<path d="M8.9305 58.5559H18.1752C18.7777 58.5559 19.2661 59.0443 19.2661 59.6469V62.0635H7.83691V59.6478C7.83645 59.0453 8.32442 58.5564 8.92698 58.5559H8.9305Z" fill="#E4E7E7"/>
<path d="M31.2627 32.4331H39.7359V59.1169H31.2627V32.4331Z" fill="#DBD8DD"/>
<path d="M29.7852 29.3775H41.2144V31.9023C41.2144 32.5049 40.726 32.9933 40.1234 32.9933H30.8769C30.2744 32.9933 29.7859 32.5049 29.7859 31.9023V29.3775H29.7852Z" fill="#EEEFEE"/>
<path d="M30.8771 58.5559H40.1226C40.7252 58.5559 41.2136 59.0443 41.2136 59.6469V62.0635H29.7852V59.6478C29.7847 59.0453 30.2727 58.5565 30.8752 58.5559H30.8771Z" fill="#E4E7E7"/>
<path d="M53.209 32.4331H61.6822V59.1169H53.209V32.4331Z" fill="#DBD8DD"/>
<path d="M51.7314 29.3775H63.1607V31.9023C63.1607 32.5049 62.6723 32.9933 62.0697 32.9933H52.8224C52.2199 32.9933 51.7314 32.5049 51.7314 31.9023V29.3775Z" fill="#EEEFEE"/>
<path d="M52.8231 58.5559H62.0687C62.6713 58.5559 63.1597 59.0443 63.1597 59.6469V62.0635H51.7305V59.6478C51.73 59.0453 52.218 58.5564 52.8205 58.5559H52.8231Z" fill="#E4E7E7"/>
<path d="M39.0803 11.7029C39.0808 13.6764 37.4813 15.2767 35.5078 15.2771C35.5049 15.2771 35.5019 15.2771 35.499 15.2771C33.5278 15.2705 31.9314 13.6741 31.9248 11.7029C31.926 9.7285 33.5277 8.12884 35.5021 8.13007C37.4323 8.13129 39.0131 9.66453 39.0733 11.5938C39.0806 11.6297 39.0829 11.6664 39.0803 11.7029Z" fill="#575B6D"/>
</g>
<defs>
<clipPath id="clip0">
<rect width="71" height="71" fill="white"/>
</clipPath>
</defs>
</svg>
