<svg width="73" height="72" viewBox="0 0 73 72" fill="none" xmlns="http://www.w3.org/2000/svg">
<g clip-path="url(#clip0)">
<path d="M9.58594 9.09387H63.4136V68.9601H9.58594V9.09387Z" fill="#DBD8DD"/>
<path d="M21.3438 0H51.6539V68.9594H21.3438V0Z" fill="#EEEFEE"/>
<path d="M12.0127 11.8212H18.9273V19.8693H12.0127V11.8212Z" fill="#69B0EE"/>
<path d="M12.0127 23.4141H18.9273V31.4622H12.0127V23.4141Z" fill="#69B0EE"/>
<path d="M12.0127 35.0061H18.9273V43.0542H12.0127V35.0061Z" fill="#69B0EE"/>
<path d="M12.0127 46.599H18.9273V54.6471H12.0127V46.599Z" fill="#69B0EE"/>
<path d="M12.0127 58.191H18.9273V66.2392H12.0127V58.191Z" fill="#69B0EE"/>
<path d="M53.8018 11.8212H60.7163V19.8693H53.8018V11.8212Z" fill="#69B0EE"/>
<path d="M53.8018 23.4141H60.7163V31.4622H53.8018V23.4141Z" fill="#69B0EE"/>
<path d="M53.8018 35.0061H60.7163V43.0542H53.8018V35.0061Z" fill="#69B0EE"/>
<path d="M53.8018 46.599H60.7163V54.6471H53.8018V46.599Z" fill="#69B0EE"/>
<path d="M53.8018 58.191H60.7163V66.2392H53.8018V58.191Z" fill="#69B0EE"/>
<path d="M24.4531 3.41382H48.5459V7.85327H24.4531V3.41382Z" fill="#69B0EE"/>
<path d="M24.4502 11.4006H48.5491V15.84H24.4502V11.4006Z" fill="#69B0EE"/>
<path d="M24.4502 19.3918H48.5491V23.8312H24.4502V19.3918Z" fill="#69B0EE"/>
<path d="M24.4502 27.3828H48.5491V31.8223H24.4502V27.3828Z" fill="#69B0EE"/>
<path d="M24.4502 35.3739H48.5491V39.8134H24.4502V35.3739Z" fill="#69B0EE"/>
<path d="M24.4502 43.3652H48.5491V47.8047H24.4502V43.3652Z" fill="#69B0EE"/>
<path d="M25.7432 51.3229H47.2576V68.9594H25.7432V51.3229Z" fill="#575B6D"/>
<path opacity="0.5" d="M55.1507 66.2392H54.8916L57.8045 58.191H58.0644L55.1507 66.2392Z" fill="#EEEFEE"/>
<path opacity="0.5" d="M57.0714 66.2392H55.5625L58.4754 58.191H59.9843L57.0714 66.2392Z" fill="#EEEFEE"/>
<path opacity="0.5" d="M55.1507 54.6463H54.8916L57.8045 46.599H58.0644L55.1507 54.6463Z" fill="#EEEFEE"/>
<path opacity="0.5" d="M57.0714 54.6463H55.5625L58.4754 46.599H59.9843L57.0714 54.6463Z" fill="#EEEFEE"/>
<path opacity="0.5" d="M55.1507 43.0542H54.8916L57.8045 35.0061H58.0644L55.1507 43.0542Z" fill="#EEEFEE"/>
<path opacity="0.5" d="M57.0714 43.0542H55.5625L58.4754 35.0061H59.9843L57.0714 43.0542Z" fill="#EEEFEE"/>
<path opacity="0.5" d="M55.1507 31.4622H54.8916L57.8045 23.4141H58.0644L55.1507 31.4622Z" fill="#EEEFEE"/>
<path opacity="0.5" d="M57.0714 31.4622H55.5625L58.4754 23.4141H59.9843L57.0714 31.4622Z" fill="#EEEFEE"/>
<path opacity="0.5" d="M55.1507 19.8695H54.8916L57.8045 11.8212H58.0644L55.1507 19.8695Z" fill="#EEEFEE"/>
<path opacity="0.5" d="M57.0714 19.8695H55.5625L58.4754 11.8212H59.9843L57.0714 19.8695Z" fill="#EEEFEE"/>
<path opacity="0.5" d="M36.8053 3.41382L34.1826 7.85327H33.3672L35.9746 3.41382H36.8053Z" fill="#EEEFEE"/>
<path opacity="0.5" d="M42.6312 3.41382L40.0245 7.85327H35.916L38.5236 3.41382H42.6312Z" fill="#EEEFEE"/>
<path opacity="0.5" d="M36.8053 11.4015L34.1826 15.84H33.3672L35.9746 11.4015H36.8053Z" fill="#EEEFEE"/>
<path opacity="0.5" d="M42.6312 11.4015L40.0245 15.84H35.916L38.5236 11.4015H42.6312Z" fill="#EEEFEE"/>
<path opacity="0.5" d="M36.8053 19.3882L34.1826 23.8276H33.3672L35.9746 19.3882H36.8053Z" fill="#EEEFEE"/>
<path opacity="0.5" d="M42.6312 19.3882L40.0245 23.8276H35.916L38.5236 19.3882H42.6312Z" fill="#EEEFEE"/>
<path opacity="0.5" d="M36.8053 27.375L34.1826 31.8145H33.3672L35.9746 27.375H36.8053Z" fill="#EEEFEE"/>
<path opacity="0.5" d="M42.6312 27.375L40.0245 31.8145H35.916L38.5236 27.375H42.6312Z" fill="#EEEFEE"/>
<path opacity="0.5" d="M36.8053 35.3626L34.1826 39.8012H33.3672L35.9746 35.3626H36.8053Z" fill="#EEEFEE"/>
<path opacity="0.5" d="M42.6312 35.3626L40.0245 39.8012H35.916L38.5236 35.3626H42.6312Z" fill="#EEEFEE"/>
<path opacity="0.5" d="M36.8053 43.3494L34.1826 47.7887H33.3672L35.9746 43.3494H36.8053Z" fill="#EEEFEE"/>
<path opacity="0.5" d="M42.6312 43.3494L40.0245 47.7887H35.916L38.5236 43.3494H42.6312Z" fill="#EEEFEE"/>
<path opacity="0.5" d="M13.1839 66.2392H12.9248L15.8377 58.191H16.0975L13.1839 66.2392Z" fill="#EEEFEE"/>
<path opacity="0.5" d="M15.1038 66.2392H13.5947L16.5076 58.191H18.0167L15.1038 66.2392Z" fill="#EEEFEE"/>
<path opacity="0.5" d="M13.1839 54.6463H12.9248L15.8377 46.599H16.0975L13.1839 54.6463Z" fill="#EEEFEE"/>
<path opacity="0.5" d="M15.1038 54.6463H13.5947L16.5076 46.599H18.0167L15.1038 54.6463Z" fill="#EEEFEE"/>
<path opacity="0.5" d="M13.1839 43.0542H12.9248L15.8377 35.0061H16.0975L13.1839 43.0542Z" fill="#EEEFEE"/>
<path opacity="0.5" d="M15.1038 43.0542H13.5947L16.5076 35.0061H18.0167L15.1038 43.0542Z" fill="#EEEFEE"/>
<path opacity="0.5" d="M13.1839 31.4622H12.9248L15.8377 23.4141H16.0975L13.1839 31.4622Z" fill="#EEEFEE"/>
<path opacity="0.5" d="M15.1038 31.4622H13.5947L16.5076 23.4141H18.0167L15.1038 31.4622Z" fill="#EEEFEE"/>
<path opacity="0.5" d="M13.1839 19.8695H12.9248L15.8377 11.8212H16.0975L13.1839 19.8695Z" fill="#EEEFEE"/>
<path opacity="0.5" d="M15.1038 19.8695H13.5947L16.5076 11.8212H18.0167L15.1038 19.8695Z" fill="#EEEFEE"/>
<path d="M6.3916 68.2939H66.6078V72.0002H6.3916V68.2939Z" fill="#BBBBCD"/>
<path d="M35.375 50.623H37.6238V68.27H35.375V50.623Z" fill="#EEEFEE"/>
</g>
<defs>
<clipPath id="clip0">
<rect width="73" height="72" fill="white"/>
</clipPath>
</defs>
</svg>
