<svg width="26" height="35" viewBox="0 0 26 35" fill="none" xmlns="http://www.w3.org/2000/svg">
<path d="M22.0067 14.8845V9.34174C22.0211 6.83379 21.048 4.4223 19.3109 2.66377C17.6314 0.942336 15.433 0 13.1048 0C13.0688 0 13.0255 0 12.9895 0C8.02321 0.00741997 3.98675 4.19228 3.98675 9.34174V14.8845C2.11268 15.1145 0.743164 16.732 0.743164 18.6909V31.1416C0.743164 33.2563 2.38658 35 4.44085 35H21.5598C23.6141 35 25.2575 33.2563 25.2575 31.1416V18.6909C25.2503 16.7395 23.8807 15.1145 22.0067 14.8845ZM5.42114 9.34174H5.42834C5.42834 5.00848 8.8233 1.46173 12.9967 1.46173H13.0039C14.9861 1.45431 16.889 2.26309 18.2946 3.70257C19.7578 5.19398 20.5723 7.22705 20.5579 9.34174V14.8919H18.9721V9.34174C18.9865 7.65741 18.3378 6.03986 17.1773 4.85266C16.0817 3.72482 14.5969 3.08671 13.0472 3.08671H13.0039C9.68825 3.08671 7.00689 5.89146 7.00689 9.33432V14.8919H5.42114V9.34174ZM17.5377 9.34174V14.8919H8.45569V9.34174C8.45569 6.71507 10.4883 4.57812 13.0111 4.57812H13.0544C14.2221 4.57812 15.3465 5.06042 16.1754 5.91372C17.0548 6.81895 17.5521 8.05809 17.5377 9.34174ZM23.8807 31.1639C23.8807 32.4624 22.8572 33.516 21.5958 33.516H4.46968C3.20829 33.516 2.18476 32.4624 2.18476 31.1639V18.728C2.18476 17.4295 3.20829 16.3759 4.46968 16.3759H21.5958C22.8572 16.3759 23.8807 17.4295 23.8807 18.728V31.1639Z" fill="#00C5DE"/>
<path d="M15.4906 24.4864C15.1734 23.3363 14.1571 22.5498 12.9966 22.5498C11.5622 22.5498 10.3945 23.7444 10.3945 25.2284C10.3945 26.423 11.1586 27.4692 12.2758 27.7957V29.8733C12.2758 30.2814 12.6002 30.6153 12.9966 30.6153C13.393 30.6153 13.7174 30.2814 13.7174 29.8733V27.7957C15.0941 27.3876 15.8942 25.9036 15.4906 24.4864ZM12.9966 26.4156C12.3551 26.4156 11.8361 25.8814 11.8361 25.221C11.8361 24.5606 12.3551 24.0264 12.9966 24.0264C13.6381 24.0264 14.1571 24.5606 14.1571 25.221C14.1571 25.8814 13.6381 26.4156 12.9966 26.4156Z" fill="#00C5DE"/>
</svg>
