<svg width="35" height="35" viewBox="0 0 35 35" fill="none" xmlns="http://www.w3.org/2000/svg">
<path d="M24.6208 8.79807C24.5167 8.79734 24.4156 8.76323 24.3323 8.70077C22.9438 7.67905 21.3285 7.00871 19.6246 6.74704C19.5002 6.7282 19.388 6.66195 19.3115 6.56218C19.2349 6.46241 19.2 6.33688 19.214 6.21191C19.2154 6.18566 19.2154 6.15935 19.214 6.13309V0.873203C19.2136 0.805009 19.2276 0.737504 19.2551 0.67507C19.2825 0.612636 19.3227 0.556666 19.3732 0.510793C19.4237 0.46492 19.4832 0.430168 19.548 0.408793C19.6127 0.387418 19.6812 0.379896 19.7491 0.386717C23.0444 0.722302 26.169 2.01615 28.7369 4.10834C28.7898 4.15131 28.833 4.20488 28.8638 4.26561C28.8946 4.32633 28.9123 4.39284 28.9158 4.46085C28.9193 4.52885 28.9085 4.59683 28.884 4.66039C28.8596 4.72394 28.8221 4.78166 28.7739 4.8298L25.0523 8.55142C25.0398 8.56351 25.0284 8.5767 25.0182 8.59083C24.9808 8.64356 24.9333 8.68832 24.8785 8.72248C24.8236 8.75665 24.7624 8.77953 24.6986 8.7898C24.6729 8.79473 24.6469 8.7975 24.6208 8.79807ZM20.1889 5.85969C21.754 6.15873 23.2411 6.77548 24.5585 7.67185L27.6983 4.53255C25.5054 2.86512 22.9185 1.79322 20.1889 1.42099V5.85969Z" fill="white"/>
<path d="M29.0577 16.1143C28.9416 16.1141 28.8293 16.0724 28.7412 15.9966C28.6532 15.9209 28.5951 15.8161 28.5776 15.7013C28.3158 13.9977 27.6468 12.3824 26.6272 10.9926C26.5547 10.8935 26.5222 10.7706 26.5365 10.6486C26.5508 10.5266 26.6106 10.4145 26.7041 10.3349C26.7284 10.3135 26.7528 10.2925 26.7746 10.2716L30.4948 6.55145C30.5429 6.50338 30.6006 6.46593 30.6641 6.44154C30.7277 6.41714 30.7956 6.40633 30.8635 6.40982C30.9315 6.4133 30.9979 6.431 31.0586 6.46176C31.1193 6.49253 31.1728 6.53568 31.2158 6.58843C33.3091 9.15452 34.6031 12.2786 34.9374 15.5733C34.9442 15.6412 34.9367 15.7097 34.9153 15.7745C34.894 15.8392 34.8592 15.8988 34.8133 15.9492C34.7675 15.9997 34.7115 16.04 34.6491 16.0674C34.5866 16.0948 34.5191 16.1088 34.4509 16.1085H29.1896C29.1643 16.1065 29.1389 16.1065 29.1137 16.1085C29.0951 16.1114 29.0765 16.1134 29.0577 16.1143ZM29.4678 15.1365H33.9056C33.535 12.4065 32.4633 9.81906 30.795 7.62659L27.6571 10.7649C28.5521 12.0836 29.1682 13.5712 29.4678 15.1365Z" fill="white"/>
<path d="M16.2971 34.2652C16.2805 34.2652 16.2645 34.2652 16.2484 34.2652C12.9532 33.9294 9.82906 32.6337 7.2635 30.5387C7.21067 30.4957 7.16746 30.4422 7.13664 30.3814C7.10583 30.3207 7.08811 30.2542 7.08462 30.1862C7.08114 30.1182 7.09197 30.0502 7.11641 29.9867C7.14086 29.9231 7.17837 29.8654 7.22653 29.8172L10.9457 26.0971C10.9686 26.0747 10.9876 26.0518 11.007 26.029C11.0884 25.9346 11.2023 25.8742 11.3261 25.8598C11.4499 25.8454 11.5745 25.878 11.6754 25.9511C13.0613 26.9735 14.6749 27.6438 16.3773 27.9044C16.5017 27.9232 16.6139 27.9895 16.6904 28.0892C16.767 28.189 16.8019 28.3145 16.7879 28.4395C16.7865 28.4659 16.7865 28.4924 16.7879 28.5188V33.7787C16.7879 33.9077 16.7367 34.0315 16.6454 34.1227C16.5542 34.2139 16.4305 34.2652 16.3014 34.2652H16.2971ZM8.30069 30.1159C10.4929 31.7853 13.0803 32.858 15.8106 33.2295V28.7927C14.2455 28.4943 12.7586 27.877 11.4424 26.9791L8.30069 30.1159ZM11.3836 26.3403L11.7513 26.659L11.3836 26.3403Z" fill="white"/>
<path d="M2.71423 11.493C2.6342 11.4932 2.55536 11.4737 2.4847 11.4361C2.41403 11.3985 2.35373 11.3441 2.30912 11.2777C2.26452 11.2112 2.237 11.1348 2.229 11.0552C2.221 10.9756 2.23277 10.8952 2.26326 10.8212C2.45756 10.3394 2.67777 9.86843 2.92293 9.41039C2.98409 9.29672 3.0879 9.212 3.21152 9.17487C3.33514 9.13774 3.46845 9.15124 3.58212 9.21239C3.69579 9.27355 3.78051 9.37736 3.81764 9.50098C3.85477 9.6246 3.84128 9.75791 3.78012 9.87158C3.55113 10.2978 3.34584 10.7363 3.1652 11.1851C3.12947 11.2756 3.0674 11.3534 2.987 11.4083C2.9066 11.4632 2.81158 11.4927 2.71423 11.493Z" fill="white"/>
<path d="M5.15645 28.2429H5.13116C5.06311 28.2395 4.99655 28.2217 4.93579 28.1909C4.87503 28.16 4.82143 28.1168 4.77845 28.0639C3.27555 26.2114 2.17849 24.0639 1.55834 21.7605C0.938188 19.457 0.808765 17.049 1.17845 14.6923C1.18617 14.6273 1.20692 14.5645 1.23948 14.5077C1.27203 14.4509 1.31572 14.4013 1.36792 14.3618C1.42012 14.3223 1.47976 14.2937 1.54326 14.2778C1.60677 14.2619 1.67283 14.2589 1.7375 14.2691C1.80217 14.2794 1.86411 14.3025 1.91961 14.3373C1.97511 14.372 2.02302 14.4176 2.06049 14.4712C2.09796 14.5249 2.12421 14.5856 2.13766 14.6497C2.15111 14.7138 2.15149 14.7799 2.13878 14.8441C1.80539 16.9759 1.90465 19.153 2.43062 21.2456C2.95659 23.3382 3.89851 25.3035 5.20024 27.0243L8.34391 23.885C7.63023 22.839 7.09344 21.6828 6.75505 20.4626C6.46953 19.4415 6.32452 18.3864 6.32402 17.3262C6.32323 16.6134 6.38952 15.9021 6.52202 15.2017C6.6222 14.6391 6.76748 14.0855 6.95645 13.5462C7.35781 12.3672 7.94942 11.2619 8.7078 10.2741C9.01041 9.87027 9.34141 9.48855 9.69829 9.13181C10.5419 8.27332 11.5138 7.55118 12.5793 6.99127C13.5937 6.45452 14.6829 6.07308 15.8105 5.8597V1.42148C13.4367 1.74784 11.1661 2.60177 9.16559 3.92056C9.05794 3.98647 8.9289 4.00797 8.80571 3.9805C8.68251 3.95304 8.57481 3.87878 8.50535 3.77339C8.43589 3.668 8.41011 3.53974 8.43346 3.4157C8.4568 3.29166 8.52744 3.18155 8.63045 3.10862C10.9142 1.60299 13.5274 0.670146 16.2483 0.389158C16.3162 0.382338 16.3847 0.389859 16.4495 0.411234C16.5142 0.43261 16.5738 0.467361 16.6242 0.513234C16.6747 0.559107 16.715 0.615077 16.7424 0.677511C16.7698 0.739946 16.7838 0.80745 16.7835 0.875644V6.137C16.782 6.16325 16.782 6.18956 16.7835 6.21581C16.7975 6.34078 16.7625 6.46631 16.686 6.56608C16.6094 6.66585 16.4972 6.73211 16.3729 6.75094C15.2045 6.92765 14.0742 7.30017 13.0297 7.85283C12.0519 8.36624 11.1599 9.02865 10.3857 9.81629C10.0595 10.1428 9.75681 10.492 9.47986 10.8613C8.78436 11.7681 8.24205 12.7827 7.87445 13.8648C7.70196 14.3583 7.56969 14.8649 7.47894 15.3798C7.35731 16.0212 7.29639 16.6728 7.29699 17.3257C7.29787 19.6024 8.02508 21.8195 9.37283 23.6544C9.44527 23.7535 9.47761 23.8762 9.46336 23.9981C9.4491 24.12 9.38931 24.232 9.29597 24.3116C9.27407 24.3306 9.2551 24.3501 9.2337 24.3715L5.5004 28.0999C5.45527 28.1452 5.40167 28.1811 5.34266 28.2057C5.28364 28.2302 5.22037 28.2429 5.15645 28.2429Z" fill="white"/>
<path d="M5.27781 7.24112C5.18533 7.24117 5.09474 7.21487 5.01668 7.16529C4.93861 7.11571 4.8763 7.0449 4.83703 6.96117C4.79777 6.87743 4.78319 6.78424 4.795 6.69252C4.8068 6.6008 4.84451 6.51434 4.9037 6.44328C5.2277 6.05409 5.56483 5.68193 5.90732 5.33992C5.9522 5.29346 6.00588 5.2564 6.06523 5.2309C6.12458 5.20541 6.18842 5.19199 6.25301 5.19142C6.31761 5.19086 6.38167 5.20317 6.44146 5.22763C6.50125 5.25209 6.55556 5.28822 6.60124 5.33389C6.64692 5.37957 6.68304 5.43389 6.7075 5.49368C6.73196 5.55346 6.74427 5.61753 6.74371 5.68212C6.74315 5.74672 6.72973 5.81055 6.70423 5.86991C6.67874 5.92926 6.64167 5.98294 6.59521 6.02782C6.27413 6.3489 5.95743 6.69771 5.6524 7.06501C5.60675 7.1201 5.54952 7.16445 5.48477 7.19489C5.42002 7.22533 5.34935 7.24111 5.27781 7.24112Z" fill="white"/>
<path d="M19.7024 34.2652C19.5734 34.2652 19.4496 34.2139 19.3584 34.1227C19.2672 34.0314 19.2159 33.9077 19.2159 33.7787V28.5149C19.2174 28.4885 19.2174 28.462 19.2159 28.4356C19.2019 28.3107 19.2368 28.1852 19.3132 28.0855C19.3897 27.9857 19.5018 27.9194 19.626 27.9004C21.8715 27.5432 23.9465 26.4851 25.5543 24.8773C27.162 23.2696 28.2202 21.1946 28.5774 18.9491C28.5956 18.8245 28.6618 18.712 28.7617 18.6354C28.8616 18.5588 28.9875 18.5242 29.1125 18.539C29.1388 18.5414 29.1646 18.539 29.1908 18.539H34.4527C34.5209 18.5386 34.5884 18.5526 34.6508 18.5801C34.7132 18.6075 34.7692 18.6478 34.8151 18.6982C34.861 18.7487 34.8957 18.8082 34.9171 18.873C34.9385 18.9377 34.946 19.0063 34.9392 19.0741C34.5314 22.9629 32.8003 26.5937 30.0354 29.3587C27.2706 32.1236 23.6399 33.8549 19.7511 34.2627C19.7349 34.2645 19.7187 34.2653 19.7024 34.2652ZM20.1889 28.7927V33.2309C23.6558 32.7474 26.8705 31.1468 29.3456 28.6716C31.8208 26.1964 33.4214 22.9817 33.9049 19.5149H29.4667C29.0155 21.8074 27.8923 23.9139 26.2401 25.5661C24.5879 27.2182 22.4815 28.3414 20.1889 28.7927Z" fill="white"/>
</svg>
