<svg width="29" height="29" viewBox="0 0 29 29" fill="none" xmlns="http://www.w3.org/2000/svg">
<path d="M25.9792 21.75H22.3542C22.0207 21.75 21.75 21.4793 21.75 21.1458C21.75 20.8123 22.0207 20.5417 22.3542 20.5417H25.9792C26.9785 20.5417 27.7917 19.7285 27.7917 18.7292V10.2708C27.7917 9.27154 26.9785 8.45833 25.9792 8.45833H3.02083C2.02154 8.45833 1.20833 9.27154 1.20833 10.2708V18.7292C1.20833 19.7285 2.02154 20.5417 3.02083 20.5417H6.64583C6.97933 20.5417 7.25 20.8123 7.25 21.1458C7.25 21.4793 6.97933 21.75 6.64583 21.75H3.02083C1.35454 21.75 0 20.3943 0 18.7292V10.2708C0 8.60575 1.35454 7.25 3.02083 7.25H25.9792C27.6455 7.25 29 8.60575 29 10.2708V18.7292C29 20.3943 27.6455 21.75 25.9792 21.75Z" fill="#00C5DE"/>
<path d="M17.5212 25.375H10.2712C9.93766 25.375 9.66699 25.1043 9.66699 24.7708C9.66699 24.4373 9.93766 24.1666 10.2712 24.1666H17.5212C17.8547 24.1666 18.1253 24.4373 18.1253 24.7708C18.1253 25.1043 17.8547 25.375 17.5212 25.375Z" fill="#00C5DE"/>
<path d="M17.5212 22.9583H10.2712C9.93766 22.9583 9.66699 22.6877 9.66699 22.3542C9.66699 22.0207 9.93766 21.75 10.2712 21.75H17.5212C17.8547 21.75 18.1253 22.0207 18.1253 22.3542C18.1253 22.6877 17.8547 22.9583 17.5212 22.9583Z" fill="#00C5DE"/>
<path d="M12.6878 20.5416H10.2712C9.93766 20.5416 9.66699 20.2709 9.66699 19.9374C9.66699 19.6039 9.93766 19.3333 10.2712 19.3333H12.6878C13.0213 19.3333 13.292 19.6039 13.292 19.9374C13.292 20.2709 13.0213 20.5416 12.6878 20.5416Z" fill="#00C5DE"/>
<path d="M22.3545 8.45833C22.021 8.45833 21.7503 8.18767 21.7503 7.85417V3.02083C21.7503 2.02154 20.9371 1.20833 19.9378 1.20833H9.06283C8.06353 1.20833 7.25033 2.02154 7.25033 3.02083V7.85417C7.25033 8.18767 6.97966 8.45833 6.64616 8.45833C6.31266 8.45833 6.04199 8.18767 6.04199 7.85417V3.02083C6.04199 1.35575 7.39653 0 9.06283 0H19.9378C21.6041 0 22.9587 1.35575 22.9587 3.02083V7.85417C22.9587 8.18767 22.688 8.45833 22.3545 8.45833Z" fill="#00C5DE"/>
<path d="M19.9378 28.9999H9.06283C7.39653 28.9999 6.04199 27.6442 6.04199 25.9791V16.3124C6.04199 15.9789 6.31266 15.7083 6.64616 15.7083H22.3545C22.688 15.7083 22.9587 15.9789 22.9587 16.3124V25.9791C22.9587 27.6442 21.6041 28.9999 19.9378 28.9999ZM7.25033 16.9166V25.9791C7.25033 26.9784 8.06353 27.7916 9.06283 27.7916H19.9378C20.9371 27.7916 21.7503 26.9784 21.7503 25.9791V16.9166H7.25033Z" fill="#00C5DE"/>
</svg>
