<svg width="40" height="40" viewBox="0 0 40 40" fill="none" xmlns="http://www.w3.org/2000/svg">
<path d="M18.2451 9.10887C17.8941 8.85801 17.4061 8.93919 17.1553 9.29014C16.9044 9.6414 16.9856 10.1291 17.3369 10.3799C18.6464 11.3156 19.4279 12.8335 19.4279 14.4406C19.4279 17.1899 17.1913 19.4269 14.4417 19.4269C11.692 19.4269 9.45508 17.1899 9.45508 14.4406C9.45508 12.8335 10.2369 11.3156 11.5468 10.3799C11.8977 10.1291 11.9789 9.64109 11.728 9.29014C11.4775 8.93889 10.9895 8.85771 10.6382 9.10856C8.91919 10.3369 7.89258 12.33 7.89258 14.4406C7.89258 18.0514 10.8305 20.9894 14.4417 20.9894C18.0528 20.9894 20.9904 18.0514 20.9904 14.4406C20.9904 12.33 19.9641 10.3369 18.2451 9.10887Z" fill="#00C5DE"/>
<path d="M39.895 28.0832L37.8723 24.5798C37.6566 24.2062 37.1786 24.0781 36.8051 24.2938L35.8716 24.8328C35.246 24.3292 34.5428 23.9227 33.7967 23.6334V22.5571C33.7967 22.1255 33.447 21.7758 33.0154 21.7758H28.97C28.5385 21.7758 28.1888 22.1255 28.1888 22.5571V23.6334C27.4426 23.9227 26.7392 24.3292 26.1139 24.8328L25.1804 24.2938C25.1416 24.2715 25.1019 24.2538 25.0613 24.2386L26.4093 22.8894C26.7145 22.5842 26.7142 22.0898 26.4093 21.7847L25.3168 20.6921C25.8606 19.7498 26.2762 18.7466 26.5579 17.6968H28.1015C28.533 17.6968 28.8827 17.3471 28.8827 16.9156V11.9501C28.8827 11.5186 28.533 11.1688 28.1015 11.1688H26.5579C26.2762 10.119 25.8606 9.11591 25.3165 8.17352L26.4035 7.08679C26.55 6.94031 26.6321 6.74133 26.6321 6.53412C26.6321 6.3269 26.5497 6.12823 26.4032 5.98175L22.8909 2.47192C22.5858 2.16705 22.0911 2.16705 21.7862 2.47223L20.7007 3.55774C19.7583 3.01392 18.7552 2.59827 17.7054 2.31659V0.78125C17.7054 0.349731 17.3556 0 16.9241 0H11.9586C11.5274 0 11.1774 0.349731 11.1774 0.78125V2.31659C10.1279 2.59827 9.12475 3.01392 8.18237 3.55774L7.09686 2.47223C6.79169 2.16736 6.297 2.16705 5.99213 2.47223L2.47955 5.98175C2.33307 6.12823 2.25067 6.3269 2.25067 6.53442C2.25067 6.74164 2.33276 6.94031 2.47955 7.08679L3.56628 8.17352C3.02246 9.11621 2.60651 10.1193 2.32513 11.1691H0.783997C0.352783 11.1691 0.00305176 11.5186 0.00274658 11.9498L0 16.9153C0 17.1225 0.0820923 17.3215 0.228577 17.468C0.375366 17.6144 0.574036 17.6968 0.78125 17.6968H2.32483C2.60651 18.7466 3.02216 19.7501 3.56628 20.6924L2.47375 21.785C2.16858 22.0898 2.16858 22.5842 2.47345 22.8894L5.98328 26.402C6.12976 26.5485 6.32843 26.6309 6.53564 26.6309H6.53595C6.74316 26.6309 6.94183 26.5485 7.08832 26.402L8.18207 25.3082C9.12475 25.8521 10.1279 26.268 11.1777 26.5497V28.0991C11.1777 28.5306 11.5274 28.8803 11.9589 28.8803H16.9241C17.3556 28.8803 17.7054 28.5306 17.7054 28.0991V26.5497C18.7552 26.268 19.7583 25.8521 20.701 25.3082L21.7947 26.402C21.9412 26.5485 22.1399 26.6309 22.3474 26.6309C22.5546 26.6309 22.7533 26.5485 22.8998 26.402L23.2822 26.0193L22.0905 28.0832C21.8747 28.457 22.0026 28.9346 22.3764 29.1504L23.3087 29.6887C23.2474 30.0842 23.2166 30.4855 23.2166 30.8875C23.2166 31.2891 23.2474 31.6904 23.3087 32.0859L22.3764 32.6242C22.197 32.7277 22.066 32.8986 22.0123 33.0984C21.9586 33.2986 21.9867 33.512 22.0905 33.6914L24.1132 37.1948C24.2169 37.3743 24.3875 37.5052 24.5877 37.5589C24.7876 37.6126 25.0009 37.5845 25.1804 37.4808L26.1139 36.9418C26.7392 37.4454 27.4426 37.8519 28.1888 38.1415V39.2178C28.1888 39.6494 28.5385 39.9991 28.97 39.9991H33.0154C33.447 39.9991 33.7967 39.6494 33.7967 39.2178V38.1415C34.5428 37.8519 35.2463 37.4454 35.8716 36.9418L36.8051 37.4808C37.179 37.6968 37.6566 37.5687 37.8723 37.1948L39.895 33.6914C39.9988 33.512 40.0269 33.2986 39.9731 33.0984C39.9194 32.8986 39.7885 32.7277 39.6091 32.6242L38.6768 32.0859C38.7381 31.6904 38.7689 31.2891 38.7689 30.8875C38.7689 30.4855 38.7381 30.0842 38.6768 29.6887L39.6091 29.1504C39.9826 28.9346 40.1108 28.457 39.895 28.0832ZM22.3468 24.7446L21.3708 23.7686C21.1105 23.5083 20.7037 23.465 20.3946 23.6649C19.2789 24.3857 18.056 24.8923 16.7599 25.1709C16.4001 25.2481 16.1429 25.5664 16.1429 25.9348V27.3175H12.7402V25.9348C12.7402 25.5664 12.4829 25.2481 12.1231 25.1709C10.8267 24.8923 9.60419 24.3857 8.48846 23.6649C8.17932 23.465 7.77252 23.5083 7.51221 23.7686L6.53595 24.7446L4.13055 22.3373L5.1059 21.3623C5.36621 21.102 5.40955 20.6952 5.20966 20.3857C4.48883 19.2703 3.98224 18.0475 3.70361 16.7514C3.6264 16.3916 3.30811 16.1343 2.93976 16.1343H1.56281L1.56464 12.7313H2.93976C3.30811 12.7313 3.6264 12.4744 3.70361 12.1143C3.98224 10.8182 4.48883 9.59534 5.20966 8.48022C5.40955 8.17078 5.36621 7.76398 5.1059 7.50366L4.13696 6.53473L6.54419 4.12933L7.51221 5.09735C7.77252 5.35797 8.17932 5.40131 8.48877 5.20111C9.60419 4.48029 10.8267 3.97369 12.1228 3.69537C12.4829 3.61786 12.7399 3.29987 12.7399 2.93152V1.5625H16.1429V2.93152C16.1429 3.29956 16.4001 3.61786 16.7599 3.69537C18.056 3.97369 19.2789 4.48029 20.3943 5.20111C20.7034 5.401 21.1102 5.35767 21.3708 5.09735L22.3389 4.12933L24.7461 6.53473L23.7772 7.50366C23.5165 7.76398 23.4735 8.17078 23.6734 8.48022C24.3942 9.59534 24.9008 10.8182 25.1794 12.1143C25.2567 12.4744 25.5749 12.7313 25.9433 12.7313H27.3206V16.1343H25.9433C25.5749 16.1343 25.2567 16.3916 25.1794 16.7514C24.9011 18.0475 24.3942 19.2703 23.6734 20.3857C23.4738 20.6949 23.5168 21.102 23.7772 21.3623L24.7525 22.3373L22.3468 24.7446ZM37.0435 29.4681C37.1515 29.9307 37.2064 30.4083 37.2064 30.8875C37.2064 31.3663 37.1515 31.8439 37.0435 32.3065C36.9653 32.6419 37.1155 32.9889 37.4136 33.161L38.1512 33.5867L36.9098 35.737L36.1703 35.3104C35.8722 35.1379 35.4962 35.1816 35.2451 35.4175C34.5483 36.0718 33.6993 36.5625 32.7899 36.8369C32.46 36.9363 32.2342 37.2403 32.2342 37.5848V38.4366H29.751V37.5848C29.751 37.2403 29.5254 36.9363 29.1956 36.8369C28.2858 36.5625 27.4368 36.0718 26.7401 35.4175C26.489 35.1816 26.113 35.1382 25.8148 35.3104L25.0757 35.737L23.8339 33.5867L24.5715 33.161C24.8697 32.9889 25.0201 32.6419 24.9417 32.3065C24.8337 31.8439 24.7787 31.3663 24.7787 30.8875C24.7787 30.4083 24.8337 29.9307 24.9417 29.4681C25.0198 29.1327 24.8697 28.786 24.5715 28.6139L23.8339 28.1879L25.0754 26.0376L25.8148 26.4645C26.113 26.6367 26.489 26.5933 26.7401 26.3574C27.4368 25.7031 28.2858 25.2124 29.1952 24.938C29.5251 24.8386 29.751 24.5346 29.751 24.1901V23.3383H32.2339V24.1901C32.2339 24.5346 32.4597 24.8386 32.7896 24.938C33.699 25.2124 34.548 25.7031 35.2447 26.3574C35.4959 26.593 35.8719 26.6367 36.1703 26.4645L36.9095 26.0376L38.1509 28.1879L37.4133 28.6139C37.1155 28.786 36.9653 29.133 37.0435 29.4681Z" fill="#00C5DE"/>
<path d="M32.6562 6.5625C33.0878 6.5625 33.4375 6.21277 33.4375 5.78125V0.78125C33.4375 0.349731 33.0878 0 32.6562 0C32.2247 0 31.875 0.349731 31.875 0.78125V5.78125C31.875 6.21277 32.2247 6.5625 32.6562 6.5625Z" fill="#00C5DE"/>
<path d="M29.5312 6.5625C29.9628 6.5625 30.3125 6.21277 30.3125 5.78125V0.78125C30.3125 0.349731 29.9628 0 29.5312 0C29.0997 0 28.75 0.349731 28.75 0.78125V5.78125C28.75 6.21277 29.0997 6.5625 29.5312 6.5625Z" fill="#00C5DE"/>
<path d="M37.5 0C36.1215 0 35 1.12152 35 2.5V4.0625C35 5.44098 36.1215 6.5625 37.5 6.5625C38.8785 6.5625 40 5.44098 40 4.0625V2.5C40 1.12152 38.8785 0 37.5 0ZM38.4375 4.0625C38.4375 4.57947 38.017 5 37.5 5C36.983 5 36.5625 4.57947 36.5625 4.0625V2.5C36.5625 1.98303 36.983 1.5625 37.5 1.5625C38.017 1.5625 38.4375 1.98303 38.4375 2.5V4.0625Z" fill="#00C5DE"/>
<path d="M39.2188 8.125C38.7872 8.125 38.4375 8.47473 38.4375 8.90625V13.9062C38.4375 14.3378 38.7872 14.6875 39.2188 14.6875C39.6503 14.6875 40 14.3378 40 13.9062V8.90625C40 8.47473 39.6503 8.125 39.2188 8.125Z" fill="#00C5DE"/>
<path d="M34.375 14.6875C35.7535 14.6875 36.875 13.566 36.875 12.1875V10.625C36.875 9.24652 35.7535 8.125 34.375 8.125C32.9965 8.125 31.875 9.24652 31.875 10.625V12.1875C31.875 13.566 32.9965 14.6875 34.375 14.6875ZM33.4375 10.625C33.4375 10.108 33.858 9.6875 34.375 9.6875C34.892 9.6875 35.3125 10.108 35.3125 10.625V12.1875C35.3125 12.7045 34.892 13.125 34.375 13.125C33.858 13.125 33.4375 12.7045 33.4375 12.1875V10.625Z" fill="#00C5DE"/>
<path d="M3.35938 33.4375C2.92786 33.4375 2.57812 33.7872 2.57812 34.2188V39.2188C2.57812 39.6503 2.92786 40 3.35938 40C3.79089 40 4.14062 39.6503 4.14062 39.2188V34.2188C4.14062 33.7872 3.79089 33.4375 3.35938 33.4375Z" fill="#00C5DE"/>
<path d="M8.20312 33.4375C6.82465 33.4375 5.70312 34.559 5.70312 35.9375V37.5C5.70312 38.8785 6.82465 40 8.20312 40C9.5816 40 10.7031 38.8785 10.7031 37.5V35.9375C10.7031 34.559 9.5816 33.4375 8.20312 33.4375ZM9.14062 37.5C9.14062 38.017 8.72009 38.4375 8.20312 38.4375C7.68616 38.4375 7.26562 38.017 7.26562 37.5V35.9375C7.26562 35.4205 7.68616 35 8.20312 35C8.72009 35 9.14062 35.4205 9.14062 35.9375V37.5Z" fill="#00C5DE"/>
<path d="M13.0469 33.4375C12.6154 33.4375 12.2656 33.7872 12.2656 34.2188V39.2188C12.2656 39.6503 12.6154 40 13.0469 40C13.4784 40 13.8281 39.6503 13.8281 39.2188V34.2188C13.8281 33.7872 13.4784 33.4375 13.0469 33.4375Z" fill="#00C5DE"/>
<path d="M17.8906 33.4375C16.5121 33.4375 15.3906 34.559 15.3906 35.9375V37.5C15.3906 38.8785 16.5121 40 17.8906 40C19.2691 40 20.3906 38.8785 20.3906 37.5V35.9375C20.3906 34.559 19.2691 33.4375 17.8906 33.4375ZM18.8281 37.5C18.8281 38.017 18.4076 38.4375 17.8906 38.4375C17.3737 38.4375 16.9531 38.017 16.9531 37.5V35.9375C16.9531 35.4205 17.3737 35 17.8906 35C18.4076 35 18.8281 35.4205 18.8281 35.9375V37.5Z" fill="#00C5DE"/>
<path d="M14.4414 9.4541C14.2357 9.4541 14.0343 9.37048 13.889 9.22491C13.7438 9.07965 13.6602 8.87823 13.6602 8.67285C13.6602 8.46716 13.7438 8.26575 13.889 8.12048C14.0343 7.97491 14.2357 7.8916 14.4414 7.8916C14.6468 7.8916 14.8482 7.97491 14.9938 8.12048C15.139 8.26575 15.2227 8.46716 15.2227 8.67285C15.2227 8.87823 15.139 9.07965 14.9938 9.22491C14.8482 9.37048 14.6468 9.4541 14.4414 9.4541Z" fill="#00C5DE"/>
</svg>
