<svg width="107" height="69" viewBox="0 0 107 69" fill="none" xmlns="http://www.w3.org/2000/svg">
<path d="M82.8417 0.141602C69.1803 0.141602 58.3935 11.218 58.3935 24.8793C58.3935 38.5407 69.6135 49.6171 83.2748 49.6171C83.4115 49.6171 83.6177 49.5986 83.7543 49.5962C78.3528 53.8975 71.5684 56.4895 64.1425 56.4895C60.726 56.4895 57.9766 59.2597 57.9766 62.6739C57.9766 66.0881 60.1747 68.8583 63.5912 68.8583C87.8402 68.856 107 49.1284 107 24.8793C107 24.8747 107 24.8701 107 24.8631C107 11.2087 96.4984 0.141602 82.8417 0.141602Z" fill="#38455D"/>
<path d="M24.8999 0.141602C11.2385 0.141602 0.433142 11.218 0.433142 24.8793C0.433142 38.5407 11.6439 49.6171 25.3075 49.6171C25.4442 49.6171 25.6457 49.5986 25.7824 49.5962C20.3808 53.8975 13.5942 56.4895 6.16822 56.4895C2.75173 56.4895 0 59.2597 0 62.6739C0 66.0881 2.23288 68.8583 5.64938 68.8583C29.8984 68.856 49.0933 49.1284 49.0933 24.8793C49.0933 24.8747 49.0933 24.8701 49.0933 24.8631C49.0933 11.2087 38.5566 0.141602 24.8999 0.141602Z" fill="#38455D"/>
</svg>
