<svg width="34" height="34" viewBox="0 0 34 34" fill="none" xmlns="http://www.w3.org/2000/svg">
<path d="M32.7016 28.8248H30.2498V16.3159C30.2498 15.8056 29.8347 15.3905 29.3244 15.3905H21.7484V11.7838C21.7484 11.2735 21.3333 10.8584 20.8231 10.8584H13.1769C12.6666 10.8584 12.2516 11.2735 12.2516 11.7838V15.3118C12.2516 15.5868 12.4744 15.8097 12.7494 15.8097C13.0244 15.8097 13.2472 15.5868 13.2472 15.3118V11.8541H20.7528V28.8249H13.2472V17.4334C13.2472 17.1585 13.0243 16.9356 12.7493 16.9356C12.4743 16.9356 12.2515 17.1585 12.2515 17.4334V19.2138H4.67552C4.16521 19.2138 3.75015 19.6289 3.75015 20.1392V28.8249H1.29835C0.582466 28.8249 0 29.4073 0 30.1232V33.4827C0 33.7576 0.22283 33.9805 0.497834 33.9805H33.5022C33.7772 33.9805 34 33.7576 34 33.4827V30.1232C34 29.4073 33.4175 28.8248 32.7016 28.8248ZM4.74582 20.2094H12.2515V28.8248H4.74582V20.2094ZM33.0043 32.9849H0.995668V30.1232C0.995668 29.9563 1.13141 29.8206 1.29835 29.8206H24.7048C24.9798 29.8206 25.2027 29.5977 25.2027 29.3227C25.2027 29.0478 24.9798 28.8249 24.7048 28.8249H21.7485V16.3861H29.2542V28.8249H26.8264C26.5514 28.8249 26.3286 29.0478 26.3286 29.3227C26.3286 29.5977 26.5514 29.8206 26.8264 29.8206H32.7017C32.8687 29.8206 33.0044 29.9563 33.0044 30.1232V32.9849H33.0043Z" fill="#00C5DE"/>
<path d="M14.0393 6.08875L13.6447 8.38967C13.5871 8.72528 13.7224 9.05816 13.9979 9.25829C14.2734 9.45842 14.6317 9.48437 14.9333 9.32593L16.9997 8.23952L19.0661 9.32593C19.1973 9.39483 19.3391 9.42888 19.4803 9.42888C19.6637 9.42888 19.8458 9.3714 20.0015 9.25829C20.277 9.05809 20.4123 8.72528 20.3547 8.38967L19.9601 6.08868L21.632 4.45911C21.8758 4.22141 21.9619 3.87259 21.8567 3.54873C21.7514 3.22488 21.4767 2.99322 21.1397 2.9443L18.8294 2.60856L17.7961 0.515132C17.6454 0.209727 17.3402 0.0200195 16.9997 0.0200195C16.6591 0.0200195 16.3539 0.209727 16.2032 0.515066L15.1701 2.60856L12.8597 2.9443C12.5227 2.99322 12.248 3.22488 12.1428 3.54873C12.0375 3.87259 12.1237 4.22141 12.3675 4.45911L14.0393 6.08875ZM15.3692 3.58577C15.6585 3.54375 15.9085 3.36208 16.0379 3.09995L16.9997 1.15116L17.9614 3.09995C18.0908 3.36208 18.3408 3.54375 18.6302 3.58577L20.7807 3.89828L19.2245 5.41528C19.0151 5.61939 18.9196 5.91324 18.9691 6.20139L19.3364 8.34334L17.4129 7.33214C17.154 7.19593 16.845 7.196 16.5862 7.33207L14.6627 8.34334L15.0301 6.20139C15.0795 5.91331 14.984 5.61939 14.7746 5.41528L13.2184 3.89834L15.3692 3.58577Z" fill="#00C5DE"/>
<path d="M24.207 4.72488C24.207 4.99982 24.4299 5.22272 24.7049 5.22272H25.4178C25.6928 5.22272 25.9157 4.99982 25.9157 4.72488C25.9157 4.44995 25.6928 4.22705 25.4178 4.22705H24.7049C24.4299 4.22705 24.207 4.44988 24.207 4.72488Z" fill="#00C5DE"/>
<path d="M23.8469 1.74461C23.9157 1.74461 23.9856 1.73027 24.0523 1.7L24.7016 1.40535C24.9519 1.29171 25.0627 0.996594 24.9491 0.746283C24.8355 0.495972 24.5404 0.385121 24.29 0.498694L23.6408 0.793345C23.3905 0.906984 23.2796 1.2021 23.3933 1.45241C23.4766 1.63601 23.6575 1.74461 23.8469 1.74461Z" fill="#00C5DE"/>
<path d="M23.6408 8.65535L24.29 8.95C24.3568 8.98027 24.4267 8.99461 24.4955 8.99461C24.6848 8.99461 24.8658 8.88601 24.9491 8.70241C25.0627 8.4521 24.9519 8.15698 24.7016 8.04334L24.0523 7.74869C23.8018 7.63512 23.5068 7.74597 23.3933 7.99628C23.2796 8.24659 23.3905 8.54171 23.6408 8.65535Z" fill="#00C5DE"/>
<path d="M8.64822 5.22272H9.36119C9.63619 5.22272 9.85902 4.99982 9.85902 4.72488C9.85902 4.44995 9.63619 4.22705 9.36119 4.22705H8.64822C8.37322 4.22705 8.15039 4.44995 8.15039 4.72488C8.15039 4.99982 8.37322 5.22272 8.64822 5.22272Z" fill="#00C5DE"/>
<path d="M9.36442 1.40538L10.0137 1.70003C10.0804 1.7303 10.1503 1.74463 10.2191 1.74463C10.4085 1.74463 10.5894 1.63604 10.6727 1.45244C10.7864 1.20213 10.6755 0.907012 10.4252 0.793374L9.77597 0.498722C9.52539 0.385083 9.2304 0.496001 9.1169 0.746312C9.00326 0.996623 9.11411 1.29174 9.36442 1.40538Z" fill="#00C5DE"/>
<path d="M10.0137 7.74867L9.36442 8.04332C9.11411 8.15695 9.00326 8.45207 9.1169 8.70238C9.2002 8.88605 9.38115 8.99457 9.57053 8.99457C9.63929 8.99457 9.70926 8.98024 9.77597 8.94997L10.4252 8.65532C10.6755 8.54168 10.7864 8.24656 10.6727 7.99625C10.5592 7.74594 10.2641 7.63516 10.0137 7.74867Z" fill="#00C5DE"/>
</svg>
