<svg width="21" height="21" viewBox="0 0 21 21" fill="none" xmlns="http://www.w3.org/2000/svg">
<path d="M20.2969 0.1875H16.1719C15.8871 0.1875 15.6562 0.418124 15.6562 0.703125V2.25H5.34375V0.703125C5.34375 0.418124 5.11288 0.1875 4.82812 0.1875H0.703125C0.418371 0.1875 0.1875 0.418124 0.1875 0.703125V4.82812C0.1875 5.11313 0.418371 5.34375 0.703125 5.34375H4.82812C5.11288 5.34375 5.34375 5.11313 5.34375 4.82812V3.28125H15.6562V4.82812C15.6562 5.11313 15.8871 5.34375 16.1719 5.34375H17.7188V8.4375C17.7188 9.2905 17.0249 9.98438 16.1719 9.98438H13.0781V8.4375C13.0781 8.1525 12.8473 7.92188 12.5625 7.92188H8.4375C8.15275 7.92188 7.92188 8.1525 7.92188 8.4375V9.98438H4.82812C3.40663 9.98438 2.25 11.141 2.25 12.5625V15.1406H0.703125C0.418371 15.1406 0.1875 15.3712 0.1875 15.6562V19.7812C0.1875 20.0663 0.418371 20.2969 0.703125 20.2969H4.82812C5.11288 20.2969 5.34375 20.0663 5.34375 19.7812V18.2344H15.6562V19.7812C15.6562 20.0663 15.8871 20.2969 16.1719 20.2969H20.2969C20.5816 20.2969 20.8125 20.0663 20.8125 19.7812V15.6562C20.8125 15.3712 20.5816 15.1406 20.2969 15.1406H16.1719C15.8871 15.1406 15.6562 15.3712 15.6562 15.6562V17.2031H5.34375V15.6562C5.34375 15.3712 5.11288 15.1406 4.82812 15.1406H3.28125V12.5625C3.28125 11.7095 3.97513 11.0156 4.82812 11.0156H7.92188V12.5625C7.92188 12.8475 8.15275 13.0781 8.4375 13.0781H12.5625C12.8473 13.0781 13.0781 12.8475 13.0781 12.5625V11.0156H16.1719C17.5934 11.0156 18.75 9.859 18.75 8.4375V5.34375H20.2969C20.5816 5.34375 20.8125 5.11313 20.8125 4.82812V0.703125C20.8125 0.418124 20.5816 0.1875 20.2969 0.1875ZM4.3125 4.3125H1.21875V1.21875H4.3125V4.3125ZM16.6875 16.1719H19.7812V19.2656H16.6875V16.1719ZM4.3125 19.2656H1.21875V16.1719H4.3125V19.2656ZM12.0469 12.0469H8.95312V8.95312H12.0469V12.0469ZM19.7812 4.3125H16.6875V1.21875H19.7812V4.3125Z" fill="white"/>
</svg>
