<svg width="25" height="25" viewBox="0 0 25 25" fill="none" xmlns="http://www.w3.org/2000/svg">
<path d="M10.937 3.521H3.12453C2.91168 3.521 2.73926 3.69342 2.73926 3.90631C2.73926 4.11916 2.91168 4.29158 3.12453 4.29158H10.937C11.1499 4.29158 11.3223 4.11916 11.3223 3.90631C11.3223 3.69342 11.1499 3.521 10.937 3.521Z" fill="#00C5DE"/>
<path d="M20.7028 5.07742C21.3498 5.07742 21.8743 4.55291 21.8743 3.9059C21.8743 3.25888 21.3498 2.73438 20.7028 2.73438C20.0558 2.73438 19.5312 3.25888 19.5312 3.9059C19.5312 4.55291 20.0558 5.07742 20.7028 5.07742Z" fill="#00C5DE"/>
<path d="M23.4375 0H1.5625C0.699531 0 0 0.699531 0 1.5625V6.25C0 7.11293 0.699531 7.8125 1.5625 7.8125H23.4375C24.3004 7.8125 25 7.11293 25 6.25V1.5625C25 0.699531 24.3004 0 23.4375 0ZM24.2188 6.25C24.2188 6.68074 23.8683 7.03125 23.4375 7.03125H1.5625C1.13172 7.03125 0.78125 6.68074 0.78125 6.25V1.5625C0.78125 1.13168 1.13172 0.78125 1.5625 0.78125H23.4375C23.8683 0.78125 24.2188 1.13168 24.2188 1.5625V6.25Z" fill="#00C5DE"/>
<path d="M10.937 12.1147H3.12453C2.91168 12.1147 2.73926 12.2872 2.73926 12.5001C2.73926 12.7129 2.91168 12.8853 3.12453 12.8853H10.937C11.1499 12.8853 11.3223 12.7129 11.3223 12.5001C11.3223 12.2872 11.1499 12.1147 10.937 12.1147Z" fill="#00C5DE"/>
<path d="M20.7028 13.6712C21.3498 13.6712 21.8743 13.1467 21.8743 12.4996C21.8743 11.8526 21.3498 11.3281 20.7028 11.3281C20.0558 11.3281 19.5312 11.8526 19.5312 12.4996C19.5312 13.1467 20.0558 13.6712 20.7028 13.6712Z" fill="#00C5DE"/>
<path d="M23.4375 8.59375H1.5625C0.699531 8.59375 0 9.29328 0 10.1562V14.8438C0 15.7067 0.699531 16.4062 1.5625 16.4062H23.4375C24.3004 16.4062 25 15.7067 25 14.8438V10.1562C25 9.29328 24.3004 8.59375 23.4375 8.59375ZM24.2188 14.8438C24.2188 15.2745 23.8683 15.625 23.4375 15.625H1.5625C1.13172 15.625 0.78125 15.2745 0.78125 14.8438V10.1562C0.78125 9.72543 1.13172 9.375 1.5625 9.375H23.4375C23.8683 9.375 24.2188 9.72543 24.2188 10.1562V14.8438Z" fill="#00C5DE"/>
<path d="M10.937 20.7085H3.12453C2.91168 20.7085 2.73926 20.8809 2.73926 21.0938C2.73926 21.3067 2.91168 21.4791 3.12453 21.4791H10.937C11.1499 21.4791 11.3223 21.3067 11.3223 21.0938C11.3223 20.8809 11.1499 20.7085 10.937 20.7085Z" fill="#00C5DE"/>
<path d="M20.7028 22.2649C21.3498 22.2649 21.8743 21.7404 21.8743 21.0934C21.8743 20.4464 21.3498 19.9219 20.7028 19.9219C20.0558 19.9219 19.5312 20.4464 19.5312 21.0934C19.5312 21.7404 20.0558 22.2649 20.7028 22.2649Z" fill="#00C5DE"/>
<path d="M23.4375 17.1875H1.5625C0.699531 17.1875 0 17.887 0 18.75V23.4375C0 24.3004 0.699531 25 1.5625 25H23.4375C24.3004 25 25 24.3004 25 23.4375V18.75C25 17.887 24.3004 17.1875 23.4375 17.1875ZM24.2188 23.4375C24.2188 23.8682 23.8683 24.2188 23.4375 24.2188H1.5625C1.13172 24.2188 0.78125 23.8682 0.78125 23.4375V18.75C0.78125 18.3192 1.13172 17.9688 1.5625 17.9688H23.4375C23.8683 17.9688 24.2188 18.3192 24.2188 18.75V23.4375Z" fill="#00C5DE"/>
</svg>
