<svg width="20" height="24" viewBox="0 0 20 24" fill="none" xmlns="http://www.w3.org/2000/svg">
<path d="M10.0004 23.3511C9.94497 23.3511 9.89048 23.3369 9.84211 23.3099C4.20438 20.1539 0.838867 15.0808 0.838867 9.73563V4.64536C0.838832 4.60067 0.848033 4.55645 0.865892 4.51549C0.883752 4.47452 0.909884 4.43769 0.942651 4.4073C0.975334 4.37671 1.01407 4.35331 1.05636 4.33862C1.09865 4.32392 1.14355 4.31826 1.18816 4.32201C4.95033 4.6139 7.74665 3.45379 9.74027 0.778763C9.7718 0.740454 9.81141 0.7096 9.85627 0.688418C9.90113 0.667236 9.95012 0.65625 9.99973 0.65625C10.0493 0.65625 10.0983 0.667236 10.1432 0.688418C10.1881 0.7096 10.2277 0.740454 10.2592 0.778763C12.2544 3.45379 15.0547 4.61325 18.8126 4.32201C18.8572 4.31856 18.9021 4.32439 18.9444 4.33914C18.9867 4.35389 19.0254 4.37723 19.0583 4.4077C19.0911 4.43816 19.1172 4.4751 19.1351 4.51617C19.1529 4.55724 19.162 4.60155 19.1619 4.64633V9.73563C19.1361 12.4568 18.3055 15.1095 16.7749 17.3595C15.0684 19.8358 12.8015 21.8744 10.1587 23.3096C10.1103 23.3367 10.0558 23.351 10.0004 23.3511ZM1.48752 4.99206V9.73563C1.48752 14.7915 4.66589 19.6094 10.0004 22.6541C12.4875 21.2768 14.6214 19.3416 16.2345 17.0005C17.6944 14.8568 18.4873 12.3291 18.5132 9.73563V4.99206C14.8484 5.19638 12.0537 4.05152 10.0004 1.50233C7.94773 4.05087 5.15595 5.19638 1.48752 4.99206Z" fill="white"/>
<path d="M9.99975 21.0859C9.93817 21.0858 9.87788 21.0683 9.82591 21.0353C5.35023 18.1896 2.78418 14.071 2.78418 9.7358V6.61612C2.78405 6.53311 2.81577 6.45321 2.87278 6.39288C2.9298 6.33254 3.00778 6.29637 3.09067 6.2918C5.5656 6.21339 7.93423 5.26757 9.78245 3.61969C9.84204 3.56591 9.91947 3.53613 9.99975 3.53613C10.08 3.53613 10.1574 3.56591 10.217 3.61969C12.065 5.26736 14.4333 6.21316 16.9079 6.2918C16.9907 6.29637 17.0687 6.33254 17.1257 6.39288C17.1828 6.45321 17.2145 6.53311 17.2143 6.61612V9.73515C17.1881 12.073 16.4707 14.3509 15.1526 16.282C13.8392 18.1934 12.1439 19.8119 10.1736 21.0353C10.1216 21.0683 10.0613 21.0858 9.99975 21.0859ZM3.43283 6.92067V9.7358C3.43283 13.7899 5.8231 17.6568 9.99975 20.3759C11.8214 19.2175 13.3906 17.7034 14.6133 15.9242C15.8606 14.0995 16.5402 11.9466 16.5667 9.73645V6.92131C14.1504 6.78097 11.8454 5.85819 9.99975 4.29234C8.15405 5.85796 5.84905 6.78051 3.43283 6.92067Z" fill="white"/>
<path d="M8.63016 14.307C8.54415 14.3069 8.46167 14.2728 8.40086 14.2119L6.52757 12.3386C6.46849 12.2775 6.4358 12.1955 6.43654 12.1105C6.43727 12.0255 6.47138 11.9441 6.53152 11.884C6.59165 11.8239 6.67299 11.7898 6.75803 11.789C6.84307 11.7883 6.92499 11.821 6.98616 11.88L8.63016 13.5247L13.0141 9.14015C13.0751 9.07934 13.1578 9.04526 13.2439 9.04541C13.3301 9.04556 13.4126 9.07993 13.4735 9.14096C13.5343 9.20199 13.5684 9.28468 13.5682 9.37083C13.568 9.45699 13.5337 9.53955 13.4726 9.60037L8.85946 14.2119C8.79865 14.2728 8.71617 14.3069 8.63016 14.307Z" fill="white"/>
</svg>
