<svg width="63" height="63" viewBox="0 0 63 63" fill="none" xmlns="http://www.w3.org/2000/svg">
<g clip-path="url(#clip0)">
<path d="M4.1875 18.084H58.8127V55.6453H4.1875V18.084Z" fill="#EEEFEE"/>
<path d="M7.82438 26.4044H31.8601C32.1309 26.4044 32.3505 26.624 32.3505 26.8948V49.4003C32.3505 49.6711 32.1309 49.8907 31.8601 49.8907H7.82438C7.55356 49.8907 7.33398 49.6711 7.33398 49.4003V26.8948C7.33398 26.624 7.55356 26.4044 7.82438 26.4044Z" fill="#F6B863"/>
<path d="M8.83887 27.8993H30.8446V48.3889H8.83887V27.8993Z" fill="#69B0EE"/>
<g opacity="0.5">
<path opacity="0.5" d="M21.8253 27.8993L10.0727 48.3897H8.83887V48.0328L20.384 27.8993H21.8253Z" fill="#EEEFEE"/>
<path opacity="0.5" d="M30.8446 27.8993V30.9455L20.8305 48.3897H14.2178L25.9712 27.8993H30.8446Z" fill="#EEEFEE"/>
</g>
<path d="M36.8848 26.4083H55.6651V55.8448H36.8848V26.4083Z" fill="#F6B863"/>
<path d="M61.6087 15.1634V18.4171C61.6051 20.2648 60.1042 21.7598 58.2565 21.7562C57.3707 21.7545 56.5218 21.4016 55.8959 20.7749C55.2639 20.1537 54.9101 19.3032 54.9151 18.4171V15.1634H61.6087Z" fill="#DA364C"/>
<path d="M54.9199 15.1634V18.4187C54.9207 20.2659 53.4239 21.7643 51.5766 21.7651C51.5755 21.7651 51.5746 21.7651 51.5734 21.7651C49.7262 21.7651 48.2285 20.2676 48.2285 18.4202V15.1634H54.9199Z" fill="#DBD8DD"/>
<path d="M48.2278 15.1634V18.4187C48.2286 20.2659 46.7318 21.7643 44.8845 21.7651C44.884 21.7651 44.8834 21.7651 44.883 21.7651C43.0357 21.7651 41.5381 20.2676 41.5381 18.4202V15.1634H48.2278Z" fill="#DA364C"/>
<path d="M41.5373 15.1634V18.4187C41.5382 20.2659 40.0414 21.7643 38.1941 21.7651C38.1935 21.7651 38.193 21.7651 38.1926 21.7651C36.3453 21.7651 34.8477 20.2676 34.8477 18.4202V15.1634H41.5373Z" fill="#DBD8DD"/>
<path d="M61.6086 15.1643H54.9141L50.0674 5.45267H55.1059L61.6086 15.1643Z" fill="#EF5261"/>
<path d="M54.9141 15.2421L50.0673 5.45267H44.499L48.2274 15.2421H54.9141Z" fill="#EEEFEE"/>
<path d="M48.2279 15.1643L44.4995 5.45267H39.8555L41.5373 15.1643H48.2279Z" fill="#EF5261"/>
<path d="M39.8549 5.45267L41.5368 15.2421H34.8464L34.7803 5.45267H39.8549Z" fill="#EEEFEE"/>
<path d="M8.08496 15.1634V18.4171C8.08858 20.2648 9.58943 21.7598 11.4371 21.7562C12.323 21.7545 13.1719 21.4016 13.7978 20.7749C14.4298 20.1537 14.7836 19.3032 14.7786 18.4171V15.1634H8.08496Z" fill="#DBD8DD"/>
<path d="M1.39062 15.1634V18.4171C1.39425 20.2648 2.89509 21.7598 4.74278 21.7562C5.62862 21.7545 6.47755 21.4016 7.10343 20.7749C7.73543 20.1537 8.08923 19.3032 8.08422 18.4171V15.1634H1.39062Z" fill="#DA364C"/>
<path d="M14.7754 15.1634V18.4187C14.7746 20.2659 16.2714 21.7643 18.1186 21.7651H18.1202C19.9674 21.7651 21.4651 20.2676 21.4651 18.4202V15.1634H14.7754Z" fill="#DA364C"/>
<path d="M21.4658 15.1634V18.4187C21.465 20.2659 22.9618 21.7643 24.8091 21.7651H24.8106C26.6579 21.7651 28.1555 20.2676 28.1555 18.4202V15.1634H21.4658Z" fill="#DBD8DD"/>
<path d="M28.1563 15.1634V18.4187C28.1554 20.2659 29.6522 21.7643 31.4995 21.7651C33.3468 21.7651 34.8444 20.2676 34.8444 18.4202V15.1634H28.1563Z" fill="#DA364C"/>
<path d="M8.08496 15.1643H14.7794L19.6261 5.45267H13.867L8.08496 15.1643Z" fill="#EEEFEE"/>
<path d="M1.39062 15.1643H8.08506L13.7185 5.45267H7.89333L1.39062 15.1643Z" fill="#EF5261"/>
<path d="M14.7793 15.1643L19.626 5.45267H24.909L21.4659 15.1643H14.7793Z" fill="#EF5261"/>
<path d="M21.4658 15.2421L24.9089 5.45267H29.8382L28.1563 15.2421H21.4658Z" fill="#EEEFEE"/>
<path d="M29.8381 5.45267L28.1562 15.1643H34.8468L34.7806 5.45267H29.8381Z" fill="#EF5261"/>
<path d="M0 54.4365H63V57.5472H0V54.4365Z" fill="#EF5261"/>
<path d="M40.2314 29.0263H52.4894V37.4364H40.2314V29.0263Z" fill="#69B0EE"/>
<path opacity="0.5" d="M48.0847 29.0263L42.2634 37.4364H40.7041L46.5254 29.0263H48.0847Z" fill="#EEEFEE"/>
<path opacity="0.5" d="M52.1616 29.0263L46.3402 37.4364H43.6367L49.458 29.0263H52.1616Z" fill="#EEEFEE"/>
<path d="M40.2315 44.1158C40.7449 44.1158 41.1612 43.6995 41.1612 43.1861C41.1612 42.6726 40.7449 42.2564 40.2315 42.2564C39.718 42.2564 39.3018 42.6726 39.3018 43.1861C39.3018 43.6995 39.718 44.1158 40.2315 44.1158Z" fill="#575B6D"/>
</g>
<defs>
<clipPath id="clip0">
<rect width="63" height="63" fill="white"/>
</clipPath>
</defs>
</svg>
