<svg width="29" height="29" viewBox="0 0 29 29" fill="none" xmlns="http://www.w3.org/2000/svg">
<path d="M14.5004 28.2161C11.7876 28.2161 9.1357 27.4117 6.88008 25.9045C4.62446 24.3974 2.86642 22.2552 1.82827 19.7489C0.790123 17.2426 0.518496 14.4847 1.04774 11.824C1.57698 9.16333 2.88333 6.71933 4.80157 4.80108C6.71982 2.88284 9.16382 1.57649 11.8245 1.04725C14.4852 0.518008 17.2431 0.789634 19.7494 1.82778C22.2557 2.86593 24.3979 4.62397 25.905 6.87959C27.4122 9.13521 28.2166 11.7871 28.2166 14.4999C28.2125 18.1364 26.766 21.6228 24.1946 24.1942C21.6233 26.7656 18.1369 28.212 14.5004 28.2161ZM14.5004 1.56748C11.9426 1.56748 9.44226 2.32596 7.31553 3.74699C5.1888 5.16802 3.53122 7.18779 2.55239 9.55089C1.57357 11.914 1.31746 14.5143 1.81646 17.0229C2.31546 19.5316 3.54716 21.8359 5.35579 23.6445C7.16442 25.4532 9.46876 26.6849 11.9774 27.1839C14.4861 27.6829 17.0863 27.4267 19.4494 26.4479C21.8125 25.4691 23.8323 23.8115 25.2533 21.6848C26.6744 19.5581 27.4328 17.0577 27.4328 14.4999C27.4289 11.0712 26.0651 7.7841 23.6407 5.35966C21.2162 2.93521 17.9291 1.57142 14.5004 1.56748Z" fill="white"/>
<path d="M5.91802 9.40991C5.84812 9.40987 5.77951 9.39113 5.71929 9.35565C5.65908 9.32016 5.60945 9.26922 5.57555 9.20809C5.54165 9.14697 5.52471 9.07789 5.52649 9.00802C5.52828 8.93815 5.54872 8.87003 5.58569 8.81071C5.8034 8.46308 6.04431 8.13052 6.30677 7.81531C6.33932 7.77468 6.37963 7.74095 6.42536 7.71608C6.47109 7.69121 6.52131 7.6757 6.5731 7.67045C6.62488 7.66521 6.6772 7.67033 6.72698 7.68552C6.77677 7.70071 6.82303 7.72567 6.86306 7.75894C6.9031 7.7922 6.9361 7.83311 6.96015 7.87927C6.98421 7.92544 6.99882 7.97593 7.00314 8.0278C7.00747 8.07967 7.00141 8.13189 6.98533 8.18139C6.96926 8.2309 6.94348 8.27671 6.9095 8.31614C6.66981 8.60416 6.44985 8.90805 6.25112 9.22573C6.21583 9.2822 6.16672 9.32875 6.10843 9.36098C6.05015 9.39321 5.98462 9.41005 5.91802 9.40991Z" fill="white"/>
<path d="M14.5 25.0811C11.6947 25.078 9.00519 23.9622 7.02152 21.9785C5.03786 19.9949 3.92207 17.3053 3.91896 14.5C3.91734 13.5248 4.05309 12.5542 4.32222 11.6169C4.3365 11.5674 4.36038 11.5213 4.3925 11.481C4.42462 11.4408 4.46435 11.4073 4.50942 11.3824C4.55449 11.3576 4.60402 11.3418 4.65517 11.3361C4.70633 11.3303 4.75812 11.3347 4.80757 11.349C4.85703 11.3633 4.90319 11.3872 4.94342 11.4193C4.98365 11.4514 5.01715 11.4912 5.04202 11.5362C5.0669 11.5813 5.08265 11.6308 5.08838 11.682C5.09411 11.7331 5.08971 11.7849 5.07543 11.8344C4.82666 12.701 4.70119 13.5984 4.70274 14.5C4.70381 16.5232 5.33155 18.4963 6.49964 20.1481C7.66773 21.8 9.31882 23.0494 11.2259 23.7247C13.133 24.4 15.2025 24.468 17.1498 23.9193C19.0971 23.3706 20.8266 22.2321 22.1005 20.6605C23.3745 19.0888 24.1303 17.1612 24.2641 15.1425C24.398 13.1238 23.9032 11.1132 22.8478 9.38714C21.7924 7.66109 20.2283 6.30434 18.3705 5.5034C16.5126 4.70247 14.4523 4.49669 12.4728 4.91435C12.3718 4.93415 12.2672 4.91347 12.1814 4.85678C12.0955 4.80008 12.0354 4.71192 12.014 4.61131C11.9926 4.5107 12.0117 4.40571 12.067 4.319C12.1223 4.23229 12.2095 4.1708 12.3098 4.14781C13.76 3.84118 15.2584 3.84268 16.708 4.1522C18.1577 4.46172 19.5261 5.07236 20.7246 5.94455C21.9231 6.81674 22.925 7.93101 23.6653 9.21516C24.4057 10.4993 24.868 11.9247 25.0222 13.3989C25.1765 14.8732 25.0192 16.3634 24.5607 17.7729C24.1022 19.1825 23.3527 20.4801 22.3607 21.5814C21.3687 22.6828 20.1563 23.5635 18.8022 24.1664C17.448 24.7693 15.9823 25.0809 14.5 25.0811Z" fill="white"/>
<path d="M8.60999 6.58377C8.52726 6.58384 8.44663 6.55773 8.37965 6.50917C8.31267 6.46061 8.26277 6.3921 8.23711 6.31346C8.21144 6.23481 8.21133 6.15006 8.23677 6.07134C8.26222 5.99262 8.31192 5.92397 8.37877 5.87523C8.70929 5.63635 9.0543 5.41817 9.4118 5.22195C9.45691 5.1962 9.50669 5.17968 9.55824 5.17334C9.6098 5.167 9.6621 5.17097 9.7121 5.18503C9.76211 5.19908 9.80882 5.22294 9.84952 5.25521C9.89022 5.28748 9.92411 5.32752 9.9492 5.373C9.97429 5.41848 9.99009 5.46849 9.99568 5.52013C10.0013 5.57178 9.99653 5.62401 9.98175 5.67381C9.96697 5.7236 9.94244 5.76997 9.90959 5.8102C9.87673 5.85043 9.8362 5.88372 9.79036 5.90815C9.46152 6.08844 9.14425 6.28909 8.84042 6.50892C8.77344 6.55759 8.69277 6.58379 8.60999 6.58377Z" fill="white"/>
<path d="M19.6005 17.3903H16.8509C16.4881 17.3894 16.1305 17.3043 15.8062 17.1415C15.4819 16.9788 15.1999 16.7429 14.9824 16.4525L12.4226 13.016C12.2782 12.8233 12.0911 12.6667 11.8759 12.5587C11.6607 12.4507 11.4234 12.3942 11.1826 12.3936H9.39873C9.29479 12.3936 9.19511 12.3524 9.12162 12.2789C9.04812 12.2054 9.00684 12.1057 9.00684 12.0018C9.00684 11.8978 9.04812 11.7981 9.12162 11.7246C9.19511 11.6512 9.29479 11.6099 9.39873 11.6099H11.1814C11.5442 11.6107 11.9018 11.6958 12.2261 11.8586C12.5503 12.0213 12.8322 12.2572 13.0496 12.5477L15.6102 15.9842C15.7546 16.177 15.9419 16.3336 16.1572 16.4416C16.3726 16.5496 16.61 16.606 16.8509 16.6065H19.6012C19.7052 16.6065 19.8049 16.6478 19.8784 16.7213C19.9518 16.7948 19.9931 16.8944 19.9931 16.9984C19.9931 17.1023 19.9518 17.202 19.8784 17.2755C19.8049 17.349 19.7052 17.3903 19.6012 17.3903H19.6005Z" fill="white"/>
<path d="M11.1814 17.3903H9.39873C9.29479 17.3903 9.19511 17.349 9.12162 17.2755C9.04812 17.202 9.00684 17.1023 9.00684 16.9984C9.00684 16.8944 9.04812 16.7948 9.12162 16.7213C9.19511 16.6478 9.29479 16.6065 9.39873 16.6065H11.1814C11.4224 16.6061 11.66 16.5497 11.8754 16.4417C12.0908 16.3336 12.2781 16.177 12.4226 15.9842L14.9828 12.5477C15.2002 12.2573 15.4822 12.0214 15.8064 11.8587C16.1306 11.6959 16.4882 11.6108 16.8509 11.6099H19.6012C19.7052 11.6099 19.8049 11.6512 19.8784 11.7246C19.9518 11.7981 19.9931 11.8978 19.9931 12.0018C19.9931 12.1057 19.9518 12.2054 19.8784 12.2789C19.8049 12.3524 19.7052 12.3936 19.6012 12.3936H16.8509C16.6102 12.3942 16.3728 12.4507 16.1577 12.5587C15.9425 12.6667 15.7553 12.8233 15.611 13.016L13.0496 16.4525C12.8322 16.7429 12.5503 16.9788 12.2261 17.1416C11.9018 17.3043 11.5442 17.3895 11.1814 17.3903Z" fill="white"/>
</svg>
