<svg width="13" height="19" viewBox="0 0 13 19" fill="none" xmlns="http://www.w3.org/2000/svg">
<path d="M10.4377 3.8H11.9614L12.0431 0H9.01474C7.42171 0 4.40928 0.810951 4.40987 3.817C4.40824 3.84936 4.37339 4.53888 4.40141 6.33331H0.957031V9.71108H4.44038V19H8.55703V9.71111H11.9348V6.33335H8.55703V5.48009C8.5571 4.8319 9.09352 3.8 10.4377 3.8ZM11.0904 7.17777V8.86665H7.71264V18.1555H5.28487V8.86665H1.80153V7.17777H5.26239L5.25374 6.73142C5.2127 4.70977 5.25285 3.85945 5.25374 3.83017C5.25374 0.892332 8.86181 0.844424 9.01541 0.844424H11.1805L11.1348 2.95554H10.4377C8.75419 2.95554 7.71268 4.24101 7.71268 5.48005V7.17777H11.0904Z" fill="white"/>
</svg>
