<svg width="17" height="17" viewBox="0 0 17 17" fill="none" xmlns="http://www.w3.org/2000/svg">
<path d="M14.413 0H2.58696C1.1608 0 0 1.16043 0 2.58696V7.02174V14.413C0 15.8396 1.1608 17 2.58696 17H14.413C15.8392 17 17 15.8396 17 14.413V7.02174V2.58696C17 1.16043 15.8392 0 14.413 0ZM16.2609 14.413C16.2609 15.4319 15.4319 16.2609 14.413 16.2609H2.58696C1.56807 16.2609 0.73913 15.4319 0.73913 14.413V7.3913H3.825C3.81798 7.42124 3.81539 7.45191 3.80911 7.48185C3.7825 7.60454 3.76033 7.72798 3.7437 7.85289C3.73704 7.90094 3.73002 7.94898 3.72522 7.99776C3.70748 8.1637 3.69565 8.33074 3.69565 8.5C3.69565 11.149 5.85096 13.3043 8.5 13.3043C11.149 13.3043 13.3043 11.149 13.3043 8.5C13.3043 8.33074 13.2925 8.16333 13.2752 7.99702C13.2703 7.94898 13.2633 7.90167 13.2567 7.854C13.2397 7.72724 13.2175 7.60196 13.1902 7.47778C13.1839 7.44896 13.1817 7.41939 13.1746 7.39093H16.2609V14.413ZM4.43478 8.5C4.43478 8.03213 4.51313 7.57683 4.66909 7.14443C5.23933 5.52352 6.77893 4.43478 8.5 4.43478C8.71509 4.43478 8.92759 4.45178 9.13528 4.48467C10.4868 4.69902 11.6535 5.58598 12.2134 6.84841C12.2563 6.94487 12.2954 7.04354 12.3309 7.14443C12.3309 7.1448 12.3313 7.1448 12.3313 7.14517C12.3317 7.14591 12.3317 7.14628 12.332 7.14702C12.4869 7.57683 12.5652 8.03213 12.5652 8.5C12.5652 10.7414 10.7414 12.5652 8.5 12.5652C6.25859 12.5652 4.43478 10.7414 4.43478 8.5ZM16.2609 6.65217H12.9337C12.9259 6.6337 12.9167 6.61633 12.9089 6.59785C12.8867 6.54574 12.8623 6.49511 12.8383 6.44448C12.8102 6.38461 12.7818 6.32511 12.7511 6.26709C12.7249 6.21683 12.6968 6.16767 12.6691 6.11889C12.6369 6.06272 12.6044 6.00691 12.5704 5.95222C12.5401 5.9038 12.5087 5.8565 12.4769 5.80957C12.4414 5.75709 12.4052 5.70498 12.3675 5.65398C12.3335 5.60778 12.2988 5.5627 12.2633 5.51798C12.2241 5.46883 12.1842 5.42004 12.1435 5.37274C12.1066 5.3295 12.0685 5.287 12.0301 5.24524C11.9876 5.19941 11.9443 5.15433 11.9004 5.10998C11.8601 5.0697 11.8194 5.02978 11.7777 4.99098C11.7322 4.94848 11.6853 4.90709 11.6383 4.86644C11.5955 4.82948 11.5526 4.79289 11.5083 4.75741C11.4595 4.71824 11.4096 4.68054 11.3593 4.64322C11.3139 4.60959 11.2688 4.57596 11.2222 4.54417C11.1705 4.5087 11.1176 4.4747 11.0644 4.44143C11.0171 4.4115 10.9698 4.3812 10.9214 4.35311C10.8667 4.32133 10.8109 4.29139 10.7551 4.26183C10.7059 4.23559 10.6568 4.20898 10.6065 4.18422C10.5489 4.15613 10.4905 4.13063 10.4317 4.10476C10.3811 4.08259 10.3308 4.0593 10.2795 4.03898C10.2188 4.01459 10.1568 3.99352 10.0947 3.97135C10.0437 3.95324 9.99304 3.93439 9.9413 3.91776C9.87626 3.89743 9.81048 3.88043 9.74433 3.8627C9.6937 3.84902 9.6438 3.83424 9.5928 3.82204C9.52259 3.80578 9.45126 3.79322 9.3803 3.77991C9.33226 3.77104 9.28459 3.75996 9.23617 3.75257C9.15635 3.74 9.07504 3.73224 8.99411 3.72374C8.95309 3.71967 8.9128 3.71302 8.87141 3.7097C8.74798 3.70083 8.62454 3.69565 8.5 3.69565C8.37546 3.69565 8.25202 3.70083 8.12933 3.71043C8.08793 3.71376 8.04765 3.72004 8.00663 3.72448C7.9257 3.73298 7.84476 3.74074 7.76493 3.7533C7.71578 3.76107 7.66811 3.77178 7.61933 3.78102C7.54874 3.79433 7.47778 3.80652 7.4083 3.82278C7.3562 3.83498 7.30557 3.85013 7.2542 3.86417C7.18915 3.88154 7.12411 3.89854 7.06017 3.9185C7.00733 3.93513 6.95596 3.95472 6.90385 3.97283C6.84324 3.99426 6.78226 4.01533 6.72239 4.03898C6.66954 4.06004 6.6178 4.0837 6.5657 4.10661C6.50878 4.13174 6.4515 4.1565 6.3957 4.18385C6.34322 4.20935 6.29222 4.23706 6.24085 4.26441C6.18726 4.29287 6.13404 4.32133 6.08156 4.352C6.03056 4.38193 5.98067 4.41372 5.93078 4.44513C5.88052 4.47691 5.83063 4.5087 5.78148 4.54233C5.73196 4.57633 5.68391 4.6118 5.6355 4.64765C5.58856 4.68239 5.542 4.7175 5.49617 4.75409C5.4485 4.79215 5.4023 4.8317 5.35611 4.87161C5.3125 4.9093 5.26963 4.94737 5.2275 4.98654C5.18241 5.02867 5.13843 5.07154 5.09483 5.11515C5.05454 5.1558 5.01463 5.19683 4.97583 5.23896C4.9337 5.28441 4.89267 5.33061 4.85202 5.37791C4.8147 5.42152 4.77811 5.46587 4.74226 5.51096C4.70383 5.55937 4.66613 5.60815 4.62917 5.65804C4.59443 5.70498 4.56117 5.75302 4.52828 5.80143C4.49391 5.85207 4.45991 5.90307 4.42739 5.95554C4.39561 6.00654 4.3653 6.05865 4.33537 6.11076C4.30543 6.16287 4.27587 6.21498 4.24778 6.26857C4.21822 6.32474 4.19087 6.38239 4.16352 6.44004C4.13913 6.49178 4.11437 6.54352 4.09146 6.59637C4.08333 6.61522 4.07372 6.63296 4.06596 6.6518H0.73913V2.58696C0.73913 1.56807 1.56807 0.73913 2.58696 0.73913H14.413C15.4319 0.73913 16.2609 1.56807 16.2609 2.58696V6.65217Z" fill="white"/>
<path d="M8.50004 5.91309C7.07389 5.91309 5.91309 7.07352 5.91309 8.50004C5.91309 9.92656 7.07389 11.087 8.50004 11.087C9.92619 11.087 11.087 9.92656 11.087 8.50004C11.087 7.07352 9.92619 5.91309 8.50004 5.91309ZM8.50004 10.3479C7.48115 10.3479 6.65222 9.51893 6.65222 8.50004C6.65222 7.48115 7.48115 6.65222 8.50004 6.65222C9.51893 6.65222 10.3479 7.48115 10.3479 8.50004C10.3479 9.51893 9.51893 10.3479 8.50004 10.3479Z" fill="white"/>
<path d="M14.4128 2.21777H13.3041C13.0998 2.21777 12.9346 2.38334 12.9346 2.58734V3.69603C12.9346 3.90003 13.0998 4.0656 13.3041 4.0656H14.4128C14.6172 4.0656 14.7824 3.90003 14.7824 3.69603V2.58734C14.7824 2.38334 14.6172 2.21777 14.4128 2.21777ZM14.0433 3.32647H13.6737V2.9569H14.0433V3.32647Z" fill="white"/>
</svg>
