<svg width="16" height="17" viewBox="0 0 16 17" fill="none" xmlns="http://www.w3.org/2000/svg">
<path d="M2.16 0.141602C1.57334 0.141602 1.04 0.368279 0.64 0.793279C0.213344 1.2466 0 1.81325 0 2.40825C0 3.03157 0.24 3.59825 0.64 4.02325C1.04 4.44825 1.6 4.70325 2.13334 4.67492C2.13334 4.67492 2.16 4.67492 2.18669 4.67492C2.72003 4.67492 3.22669 4.44825 3.62669 4.02325C4.02669 3.59825 4.26669 3.03157 4.26669 2.40825C4.29334 1.81325 4.05334 1.24657 3.65334 0.821568C3.25334 0.368246 2.72 0.141602 2.16 0.141602ZM3.25334 3.6266C2.96 3.93828 2.56 4.1366 2.13334 4.10828C1.73334 4.10828 1.30669 3.93828 1.01334 3.6266C0.693344 3.31492 0.533344 2.8616 0.533344 2.40828C0.533344 1.95496 0.693344 1.52996 1.01334 1.18996C1.30669 0.878279 1.70669 0.708279 2.16 0.708279C2.56 0.708279 2.96 0.878279 3.25334 1.18996C3.57334 1.52996 3.73334 1.95496 3.73334 2.40828C3.73334 2.8616 3.57334 3.31492 3.25334 3.6266Z" fill="white"/>
<path d="M3.19995 5.24121H1.03995C0.613289 5.24121 0.266602 5.60953 0.266602 6.09121V16.0079C0.266602 16.4612 0.639945 16.8579 1.0666 16.8579H3.19995C3.6266 16.8579 3.99995 16.4612 3.99995 16.0362V6.09121C3.99995 5.63786 3.6266 5.24121 3.19995 5.24121ZM3.4666 16.0362C3.4666 16.1779 3.33326 16.2912 3.19995 16.2912H1.0666C0.933258 16.2912 0.799945 16.1495 0.799945 16.0079V6.09121C0.799945 5.94953 0.906602 5.80789 1.03995 5.80789H3.19995C3.33329 5.80789 3.4666 5.94957 3.4666 6.09121V16.0362Z" fill="white"/>
<path d="M12.2666 4.95801H11.7066C10.6666 4.95801 9.67999 5.43969 9.03999 6.20469V5.80801C9.03999 5.52469 8.77333 5.24133 8.50664 5.24133H5.83998C5.59998 5.24133 5.30664 5.46801 5.30664 5.77965V16.348C5.30664 16.6597 5.59998 16.858 5.83998 16.858H8.77333C9.01333 16.858 9.30667 16.6597 9.30667 16.348V10.228C9.30667 9.29298 9.94667 8.5563 10.7733 8.5563C11.2 8.5563 11.6 8.7263 11.8933 9.03798C12.16 9.29298 12.2667 9.68965 12.2667 10.1997V16.2913C12.2667 16.5747 12.5333 16.858 12.8 16.858H15.4667C15.7333 16.858 16 16.5747 16 16.2913V8.98133C16 6.71469 14.3733 4.95801 12.2666 4.95801ZM15.4666 16.263L15.44 16.2913H12.8266L12.8 10.1997C12.8 9.51969 12.64 9.00969 12.2933 8.64136C11.8933 8.21636 11.36 7.98969 10.8 7.98969C9.67999 8.01801 8.79999 8.98136 8.79999 10.228V16.2913H5.86664V5.80801H8.50664L8.5333 5.83633V7.62133L9.2533 6.85633L9.27995 6.82801C9.8133 6.03469 10.7466 5.52469 11.7333 5.52469H12.2933C14.08 5.52469 15.4666 7.05469 15.4666 8.98136V16.263Z" fill="white"/>
</svg>
