<svg width="35" height="35" viewBox="0 0 35 35" fill="none" xmlns="http://www.w3.org/2000/svg">
<path d="M9.1673 30.8542C8.64161 30.8542 8.11593 30.6877 7.65703 30.3544C6.73815 29.6871 6.37167 28.5583 6.72359 27.4785L9.34811 19.4245L2.48209 14.4674C1.56095 13.8023 1.1916 12.6741 1.54106 11.5931C1.89051 10.512 2.85041 9.81353 3.98655 9.81353H12.4498L15.0318 1.78336C15.3797 0.701436 16.3389 0.00143555 17.4755 0H17.4788C18.6139 0 19.5732 0.697334 19.9234 1.77748L22.5288 9.81353H23.4463C23.8239 9.81353 24.1299 10.1196 24.1299 10.4971C24.1299 10.8746 23.8239 11.1807 23.4463 11.1807H22.0317C21.7354 11.1807 21.4728 10.9898 21.3814 10.7079L18.6228 2.19912C18.424 1.58566 17.9016 1.36719 17.4786 1.36719C17.4781 1.36719 17.4776 1.36719 17.4771 1.36719C17.0538 1.36773 16.531 1.58724 16.3334 2.20186L13.5988 10.7064C13.5079 10.989 13.245 11.1807 12.948 11.1807H3.98655C3.34117 11.1807 2.97209 11.611 2.84194 12.0136C2.71178 12.4163 2.75915 12.9811 3.28238 13.359L10.5527 18.608C10.7936 18.7819 10.8945 19.0915 10.8025 19.374L8.02344 27.9022C7.82356 28.5156 8.11805 28.9997 8.46039 29.2482C8.80267 29.4967 9.35426 29.6269 9.87557 29.2471L17.125 23.9652C17.3646 23.7906 17.6896 23.7903 17.9295 23.9647L25.1533 29.2152C25.6754 29.5946 26.2269 29.4636 26.5689 29.2144C26.9109 28.9652 27.2047 28.4804 27.0036 27.8672L24.2198 19.3817C24.1272 19.0994 24.2275 18.7896 24.468 18.6152L31.7195 13.3574C32.2414 12.979 32.288 12.4145 32.1576 12.0124C32.0272 11.6103 31.6581 11.1807 31.0134 11.1807H29.5988C29.2212 11.1807 28.9152 10.8745 28.9152 10.4971C28.9152 10.1196 29.2212 9.81347 29.5988 9.81347H31.0134C32.1483 9.81347 33.1079 10.511 33.458 11.5905C33.8083 12.6701 33.4408 13.7981 32.522 14.4642L25.6743 19.4293L28.3027 27.441C28.6568 28.5205 28.2923 29.6503 27.3741 30.3194C26.4559 30.9883 25.2687 30.9891 24.3496 30.321L17.5281 25.363L10.6807 30.3519C10.2212 30.6868 9.69428 30.8542 9.1673 30.8542Z" fill="#00C5DE"/>
<path d="M17.5 34.9999C17.1225 34.9999 16.8164 34.6938 16.8164 34.3163V28.7876C16.8164 28.4101 17.1225 28.104 17.5 28.104C17.8775 28.104 18.1836 28.4101 18.1836 28.7876V34.3163C18.1836 34.6938 17.8775 34.9999 17.5 34.9999Z" fill="#00C5DE"/>
<path d="M34.1753 22.885C34.1053 22.885 34.0342 22.8741 33.964 22.8514L28.7059 21.1429C28.3469 21.0262 28.1504 20.6406 28.267 20.2815C28.3837 19.9225 28.7694 19.7262 29.1284 19.8426L34.3865 21.551C34.7455 21.6677 34.9421 22.0534 34.8254 22.4124C34.7314 22.7013 34.4635 22.885 34.1753 22.885Z" fill="#00C5DE"/>
<path d="M24.5561 7.75518C24.4168 7.75518 24.2763 7.71273 24.1549 7.62455C23.8494 7.40265 23.7818 6.97513 24.0036 6.6697L27.2533 2.19688C27.4753 1.89145 27.9027 1.82371 28.2082 2.04567C28.5136 2.26757 28.5813 2.69508 28.3594 3.00051L25.1097 7.47334C24.976 7.6575 24.7675 7.75518 24.5561 7.75518Z" fill="#00C5DE"/>
<path d="M10.4446 7.75514C10.2332 7.75514 10.0248 7.65739 9.89099 7.4733L6.64132 3.00054C6.41943 2.69511 6.48717 2.26759 6.79254 2.0457C7.09803 1.82367 7.52548 1.89148 7.74738 2.19691L10.997 6.66973C11.2189 6.97516 11.1512 7.40268 10.8458 7.62458C10.7246 7.71269 10.584 7.75514 10.4446 7.75514Z" fill="#00C5DE"/>
<path d="M0.825255 22.8851C0.537052 22.8851 0.269152 22.7014 0.175226 22.4125C0.0586048 22.0535 0.25507 21.6678 0.614093 21.5511L5.87216 19.8427C6.23132 19.7261 6.61687 19.9226 6.73356 20.2816C6.85025 20.6407 6.65371 21.0264 6.29469 21.143L1.03669 22.8515C0.966486 22.8742 0.895255 22.8851 0.825255 22.8851Z" fill="#00C5DE"/>
</svg>
