<svg width="27" height="27" viewBox="0 0 27 27" fill="none" xmlns="http://www.w3.org/2000/svg">
<path d="M4.74877 20.8801C4.37077 20.8801 4.0074 20.9745 3.68502 21.1516C1.98681 18.9747 1.05469 16.2704 1.05469 13.5C1.05469 6.63753 6.63753 1.05469 13.5 1.05469C14.3343 1.05469 15.1681 1.1377 15.9785 1.30147C16.2636 1.35915 16.5421 1.17458 16.5998 0.889069C16.6575 0.603561 16.4729 0.32547 16.1874 0.267586C15.3084 0.0900192 14.4043 0 13.5 0C9.89408 0 6.50384 1.40426 3.95405 3.95405C1.40426 6.50384 0 9.89408 0 13.5C0 16.5333 1.02997 19.4934 2.90513 21.8664C2.6637 22.2271 2.53393 22.6511 2.53393 23.095C2.53393 23.6866 2.76444 24.2428 3.18281 24.6609C3.60098 25.0793 4.15716 25.3098 4.74877 25.3098C5.34039 25.3098 5.89657 25.0793 6.31494 24.6609C6.73331 24.2428 6.96362 23.6864 6.96362 23.0948C6.96362 22.5034 6.73331 21.947 6.31494 21.5288C5.89657 21.1104 5.34039 20.8801 4.74877 20.8801ZM5.56904 23.9152C5.35007 24.1344 5.05859 24.2551 4.74877 24.2551C4.43896 24.2551 4.14768 24.1344 3.92851 23.9152C3.70933 23.6961 3.58862 23.4048 3.58862 23.095C3.58862 22.785 3.70933 22.4937 3.92851 22.2745C4.14748 22.0553 4.43896 21.9348 4.74877 21.9348C5.05859 21.9348 5.34986 22.0555 5.56904 22.2745C5.78822 22.4937 5.90893 22.785 5.90893 23.095C5.90893 23.4048 5.78822 23.6961 5.56904 23.9152Z" fill="white"/>
<path d="M24.0943 5.13271C24.6676 4.27269 24.5755 3.09688 23.8173 2.33862C23.3989 1.92045 22.8427 1.68994 22.2511 1.68994C21.6595 1.68994 21.1033 1.92045 20.6849 2.33862C20.2666 2.75699 20.0363 3.31317 20.0363 3.90479C20.0363 4.4964 20.2666 5.05258 20.6849 5.47095C21.1033 5.88933 21.6595 6.11963 22.2511 6.11963C22.6291 6.11963 22.9925 6.02528 23.3149 5.84813C25.0131 8.02528 25.9452 10.7294 25.9452 13.4998C25.9452 20.3622 20.3623 25.9451 13.4999 25.9451C12.6738 25.9451 11.8478 25.8637 11.045 25.703C10.7595 25.646 10.4817 25.8312 10.4244 26.1167C10.3673 26.4024 10.5525 26.6801 10.838 26.7373C11.7088 26.9114 12.6044 26.9998 13.4999 26.9998C17.1058 26.9998 20.496 25.5955 23.0458 23.0457C25.5956 20.4959 26.9999 17.1057 26.9999 13.4998C26.9999 10.4663 25.9697 7.50597 24.0943 5.13271ZM21.4308 4.72526C21.2117 4.50608 21.0909 4.21481 21.0909 3.90479C21.0909 3.59497 21.2117 3.3037 21.4308 3.08452C21.6498 2.86534 21.9413 2.74463 22.2511 2.74463C22.5609 2.74463 22.8524 2.86534 23.0716 3.08452C23.5237 3.53688 23.5237 4.2729 23.0716 4.72526C22.8524 4.94423 22.5609 5.06494 22.2511 5.06494C21.9411 5.06494 21.6498 4.94423 21.4308 4.72526Z" fill="white"/>
<path d="M11.3237 22.5703C11.3237 22.8616 11.56 23.0977 11.8511 23.0977H15.1484C15.4397 23.0977 15.6758 22.8616 15.6758 22.5703V21.548C16.3691 21.3613 17.032 21.0865 17.6549 20.7277L18.3767 21.4495C18.4756 21.5484 18.6097 21.604 18.7498 21.604C18.8895 21.604 19.0238 21.5484 19.1227 21.4493L21.4533 19.117C21.659 18.911 21.659 18.5771 21.4533 18.3713L20.7323 17.6504C21.0911 17.0274 21.3659 16.3645 21.5526 15.6712H22.571C22.8623 15.6712 23.0983 15.4351 23.0983 15.1438V11.8465C23.0983 11.5552 22.8623 11.3191 22.571 11.3191H21.5523C21.3657 10.626 21.0911 9.96309 20.7323 9.34016L21.4493 8.6231C21.5482 8.52422 21.6038 8.38992 21.6038 8.25005C21.6036 8.11018 21.548 7.97587 21.4491 7.87699L19.1167 5.54638C18.9109 5.34059 18.577 5.34059 18.371 5.54659L17.6549 6.26283C17.032 5.90398 16.3691 5.62919 15.6758 5.44256V4.42969C15.6758 4.13841 15.4397 3.90234 15.1484 3.90234H11.8511C11.56 3.90234 11.3237 4.13841 11.3237 4.42969V5.44276C10.6306 5.62919 9.96767 5.90398 9.34475 6.26283L8.62851 5.54659C8.42272 5.3408 8.08881 5.34059 7.88281 5.54638L5.55055 7.8772C5.45147 7.97607 5.39585 8.11018 5.39585 8.25005C5.39585 8.38992 5.45147 8.52422 5.55035 8.6231L6.26741 9.34016C5.90857 9.96309 5.63377 10.6258 5.44714 11.3191H4.43057C4.13929 11.3191 3.90322 11.5552 3.90322 11.8463L3.90137 15.1436C3.90116 15.2835 3.95678 15.4178 4.05566 15.5167C4.15453 15.6156 4.28864 15.6712 4.42871 15.6712H5.44714C5.63377 16.3645 5.90857 17.0274 6.26741 17.6504L5.54643 18.3713C5.34065 18.5771 5.34044 18.911 5.54643 19.117L7.87705 21.4493C7.97592 21.5482 8.11002 21.604 8.24989 21.604H8.2501C8.38997 21.604 8.52407 21.5484 8.62295 21.4495L9.34454 20.7277C9.96767 21.0865 10.6306 21.3613 11.3237 21.548V22.5703ZM9.55136 19.6186C9.34269 19.4837 9.0681 19.513 8.89218 19.6887L8.2501 20.3307L6.66498 18.7444L7.30644 18.1027C7.48216 17.927 7.51141 17.6524 7.37648 17.4437C6.89837 16.7038 6.56219 15.8928 6.37762 15.033C6.3253 14.7901 6.11065 14.6165 5.86202 14.6165H4.95626L4.9575 12.3738H5.86202C6.11065 12.3738 6.3253 12.2004 6.37762 11.9573C6.56219 11.0977 6.89837 10.2867 7.37648 9.54678C7.51141 9.3381 7.48216 9.06351 7.30644 8.8878L6.6691 8.25025L8.25546 6.66513L8.89218 7.30206C9.0681 7.47778 9.34248 7.50682 9.55136 7.3721C10.2911 6.89399 11.1021 6.55781 11.9619 6.37324C12.2048 6.32092 12.3784 6.10606 12.3784 5.85764V4.95703H14.6211V5.85743C14.6211 6.10606 14.7945 6.32092 15.0376 6.37303C15.8972 6.55781 16.7084 6.89378 17.4481 7.37189C17.6568 7.50682 17.9314 7.47778 18.1071 7.30186L18.744 6.66513L20.3304 8.25025L19.693 8.8876C19.5171 9.06351 19.4881 9.3381 19.623 9.54678C20.1011 10.2867 20.4371 11.0977 20.6219 11.9573C20.674 12.2004 20.8888 12.3738 21.1375 12.3738H22.0436V14.6165H21.1375C20.8888 14.6165 20.6742 14.7901 20.6219 15.033C20.4373 15.8926 20.1011 16.7038 19.623 17.4435C19.4881 17.6524 19.5173 17.927 19.693 18.1027L20.3345 18.7442L18.7494 20.3305L18.1073 19.6887C17.9314 19.5127 17.6568 19.4837 17.4481 19.6186C16.7082 20.0967 15.8972 20.4327 15.0376 20.6175C14.7945 20.6698 14.6211 20.8845 14.6211 21.1331V22.043H12.3784V21.1331C12.3784 20.8847 12.2048 20.6698 11.9619 20.6175C11.1023 20.4329 10.2913 20.0967 9.55136 19.6186Z" fill="white"/>
<path d="M17.8573 13.5C17.8573 11.0973 15.9027 9.14258 13.5 9.14258C11.0973 9.14258 9.14258 11.0973 9.14258 13.5C9.14258 15.9027 11.0973 17.8573 13.5 17.8573C15.9027 17.8573 17.8573 15.9027 17.8573 13.5ZM10.1973 13.5C10.1973 11.6788 11.6788 10.1973 13.5 10.1973C15.3212 10.1973 16.8027 11.679 16.8027 13.5C16.8027 15.3209 15.3212 16.8027 13.5 16.8027C11.6788 16.8027 10.1973 15.3212 10.1973 13.5Z" fill="white"/>
</svg>
