<svg width="24" height="24" viewBox="0 0 24 24" fill="none" xmlns="http://www.w3.org/2000/svg">
<path d="M5.38616 21.4599C5.21955 21.2933 4.94947 21.2933 4.78285 21.4599L4.4812 21.7616L4.17955 21.4599C4.01293 21.2933 3.74285 21.2933 3.57624 21.4599C3.40963 21.6265 3.40963 21.8966 3.57624 22.0632L3.87789 22.3649L3.57613 22.6665C3.40952 22.8332 3.40952 23.1032 3.57613 23.2698C3.65944 23.3532 3.76867 23.3949 3.87779 23.3949C3.98691 23.3949 4.09613 23.3532 4.17944 23.2698L4.48109 22.9682L4.78275 23.2698C4.86605 23.3532 4.97528 23.3949 5.0844 23.3949C5.19352 23.3949 5.30275 23.3532 5.38605 23.2698C5.55267 23.1032 5.55267 22.8332 5.38605 22.6665L5.0844 22.3649L5.38616 22.0632C5.55277 21.8965 5.55277 21.6265 5.38616 21.4599Z" fill="white"/>
<path d="M19.8415 3.16498C20.5473 3.16498 21.1215 2.5908 21.1215 1.88498C21.1215 1.17917 20.5473 0.60498 19.8415 0.60498C19.1357 0.60498 18.5615 1.17917 18.5615 1.88498C18.5615 2.5908 19.1356 3.16498 19.8415 3.16498ZM19.8415 1.45832C20.0769 1.45832 20.2682 1.64978 20.2682 1.88498C20.2682 2.12018 20.0769 2.31165 19.8415 2.31165C19.6061 2.31165 19.4149 2.12018 19.4149 1.88498C19.4149 1.64978 19.6061 1.45832 19.8415 1.45832Z" fill="white"/>
<path d="M17.8916 10.6315C17.8916 10.8835 18.0959 11.0876 18.3477 11.0876C18.5995 11.0876 18.8038 10.8833 18.8038 10.6315C18.8038 10.3797 18.5995 10.1753 18.3477 10.1753C18.0959 10.1753 17.8916 10.3796 17.8916 10.6315Z" fill="white"/>
<path d="M0.64151 7.00512H10.0282C10.264 7.00512 10.4548 6.81408 10.4548 6.57846V4.01846C10.4548 3.78284 10.264 3.5918 10.0282 3.5918H0.64151C0.40567 3.5918 0.214844 3.78284 0.214844 4.01846V6.57846C0.214844 6.81408 0.40567 7.00512 0.64151 7.00512ZM1.06818 4.44513H9.60151V6.15179H1.06818V4.44513Z" fill="white"/>
<path d="M18.5615 16.8182V14.2582C18.5615 14.0226 18.3707 13.8315 18.1348 13.8315H0.64151C0.40567 13.8315 0.214844 14.0226 0.214844 14.2582V16.8182C0.214844 17.0538 0.40567 17.2449 0.64151 17.2449H18.1348C18.3707 17.2449 18.5615 17.0538 18.5615 16.8182ZM17.7082 16.3915H1.06818V14.6849H17.7082V16.3915Z" fill="white"/>
<path d="M21.9747 18.9517H9.17471C8.93887 18.9517 8.74805 19.1427 8.74805 19.3783V21.9383C8.74805 22.1739 8.93887 22.365 9.17471 22.365H21.9747C22.2106 22.365 22.4014 22.1739 22.4014 21.9383V19.3783C22.4014 19.1427 22.2106 18.9517 21.9747 18.9517ZM21.548 21.5117H9.60138V19.805H21.548V21.5117Z" fill="white"/>
<path d="M4.48135 8.71191C4.24551 8.71191 4.05469 8.90295 4.05469 9.13858V11.6986C4.05469 11.9342 4.24551 12.1252 4.48135 12.1252H13.4413C13.6772 12.1252 13.868 11.9342 13.868 11.6986V9.13858C13.868 8.90295 13.6772 8.71191 13.4413 8.71191H4.48135ZM13.0147 11.2719H4.90802V9.56525H13.0147V11.2719Z" fill="white"/>
<path d="M16.8544 5.72492H21.1211V12.1249C21.1211 12.3605 21.3119 12.5516 21.5477 12.5516C21.7836 12.5516 21.9744 12.3605 21.9744 12.1249V5.29825C21.9744 5.06262 21.7836 4.87158 21.5477 4.87158H16.8544C16.6186 4.87158 16.4277 5.06262 16.4277 5.29825C16.4277 5.53388 16.6186 5.72492 16.8544 5.72492Z" fill="white"/>
<path d="M13.1402 7.41019C13.2202 7.49019 13.3285 7.53521 13.4418 7.53521C13.5551 7.53521 13.6635 7.49019 13.7435 7.41019L15.5534 5.59995C15.72 5.43334 15.72 5.16326 15.5534 4.99665L13.7434 3.18641C13.5834 3.02641 13.3001 3.02641 13.1401 3.18641L11.33 4.99665C11.1634 5.16326 11.1634 5.43334 11.33 5.59995L13.1402 7.41019ZM13.4418 4.09137L14.6484 5.29819L13.4418 6.50502L12.2352 5.29819L13.4418 4.09137Z" fill="white"/>
<path d="M23.6598 15.2364L21.8498 13.4262C21.6898 13.2662 21.4065 13.2662 21.2465 13.4262L19.4365 15.2364C19.2699 15.403 19.2699 15.6731 19.4365 15.8397L21.2465 17.65C21.3265 17.73 21.4349 17.775 21.5482 17.775C21.6614 17.775 21.7698 17.73 21.8498 17.65L23.6598 15.8397C23.8266 15.6731 23.8266 15.403 23.6598 15.2364ZM21.5483 16.7449L20.3417 15.5381L21.5483 14.3312L22.7549 15.5381L21.5483 16.7449Z" fill="white"/>
</svg>
