<svg width="33" height="39" viewBox="0 0 33 39" fill="none" xmlns="http://www.w3.org/2000/svg">
<path d="M19.4598 36.4227H12.9938C12.7118 36.4228 12.4327 36.3658 12.1733 36.2551C11.914 36.1445 11.6797 35.9824 11.4846 35.7788C11.2895 35.5751 11.1377 35.3341 11.0383 35.0701C10.9389 34.8062 10.894 34.5249 10.9063 34.2432V29.8945C10.9063 29.7512 10.9632 29.6137 11.0646 29.5123C11.166 29.411 11.3035 29.354 11.4468 29.354C11.5902 29.354 11.7277 29.411 11.829 29.5123C11.9304 29.6137 11.9874 29.7512 11.9874 29.8945V34.2432C11.9757 34.3827 11.9931 34.5231 12.0383 34.6556C12.0835 34.788 12.1557 34.9097 12.2502 35.013C12.3447 35.1162 12.4596 35.1988 12.5876 35.2556C12.7155 35.3123 12.8539 35.3419 12.9938 35.3427H19.4598C19.7784 35.3514 20.0895 35.245 20.3362 35.0431C20.5829 34.8412 20.7486 34.5573 20.803 34.2432V29.8945C20.803 29.7512 20.86 29.6137 20.9614 29.5123C21.0627 29.411 21.2002 29.354 21.3436 29.354C21.4869 29.354 21.6244 29.411 21.7258 29.5123C21.8272 29.6137 21.8841 29.7512 21.8841 29.8945V34.2432C21.8349 34.8474 21.5563 35.4098 21.1054 35.8151C20.6546 36.2204 20.0658 36.4378 19.4598 36.4227Z" fill="#00C5DE"/>
<path d="M20.8852 30.4349H11.9057C11.652 30.4334 11.4069 30.3431 11.2129 30.1797C11.0188 30.0163 10.8882 29.79 10.8436 29.5403C10.3904 27.4163 9.36195 25.4579 7.87059 23.8792C6.4384 22.2416 5.5082 20.2261 5.19119 18.0738C4.87419 15.9215 5.18381 13.7234 6.08303 11.7424C6.98225 9.76139 8.43302 8.0813 10.2619 6.90303C12.0907 5.72475 14.2202 5.09814 16.3957 5.09814C18.5713 5.09814 20.7008 5.72475 22.5296 6.90303C24.3584 8.0813 25.8092 9.76139 26.7084 11.7424C27.6076 13.7234 27.9173 15.9215 27.6003 18.0738C27.2833 20.2261 26.353 22.2416 24.9209 23.8792C23.429 25.4578 22.3999 27.4162 21.9463 29.5403C21.9017 29.7899 21.7712 30.0159 21.5774 30.1793C21.3836 30.3427 21.1387 30.4332 20.8852 30.4349ZM16.3884 6.18408C14.4217 6.18471 12.4967 6.75171 10.8436 7.8173C9.19057 8.8829 7.87934 10.402 7.0667 12.193C6.25405 13.984 5.97438 15.9712 6.26111 17.9169C6.54783 19.8627 7.38883 21.6847 8.68356 23.1652C10.3051 24.8897 11.4203 27.0275 11.9068 29.3441L20.8798 29.3538C21.3681 27.034 22.485 24.8932 24.1084 23.1657C25.3658 21.7281 26.1961 19.9674 26.5055 18.0827C26.8148 16.1979 26.5909 14.2642 25.8589 12.5001C25.127 10.736 23.9163 9.21167 22.3636 8.09947C20.8109 6.98727 18.9781 6.3315 17.0722 6.20624C16.8437 6.19182 16.6158 6.18444 16.3884 6.18408Z" fill="#00C5DE"/>
<path d="M16.3949 38.3903C15.7431 38.3893 15.1182 38.1298 14.6573 37.6688C14.1965 37.2077 13.9373 36.5827 13.9366 35.9308C13.9349 35.7825 13.9899 35.6391 14.0904 35.5299C14.1908 35.4207 14.3291 35.354 14.4771 35.3433H18.3149C18.4583 35.3433 18.5958 35.4002 18.6972 35.5016C18.7985 35.603 18.8555 35.7404 18.8555 35.8838C18.86 36.2103 18.7997 36.5345 18.6783 36.8377C18.5568 37.1408 18.3764 37.4169 18.1477 37.6499C17.9189 37.883 17.6462 38.0684 17.3454 38.1955C17.0445 38.3225 16.7215 38.3887 16.3949 38.3903ZM15.109 36.4243C15.2088 36.6846 15.3852 36.9085 15.6149 37.0664C15.8446 37.2243 16.1167 37.3088 16.3955 37.3088C16.6742 37.3088 16.9464 37.2243 17.1761 37.0664C17.4058 36.9085 17.5822 36.6846 17.682 36.4243H15.109Z" fill="#00C5DE"/>
<path d="M10.7027 32.8161C10.564 32.8161 10.4306 32.7628 10.3301 32.6672C10.2296 32.5716 10.1697 32.4411 10.1628 32.3026C10.1558 32.1641 10.2024 32.0282 10.2928 31.923C10.3833 31.8179 10.5107 31.7515 10.6487 31.7377L21.9497 30.5799C22.0215 30.5704 22.0945 30.5754 22.1643 30.5947C22.234 30.6139 22.2993 30.647 22.356 30.6919C22.4128 30.7369 22.46 30.7927 22.4947 30.8563C22.5295 30.9198 22.5511 30.9896 22.5584 31.0617C22.5656 31.1337 22.5583 31.2065 22.5369 31.2756C22.5155 31.3448 22.4804 31.4089 22.4337 31.4643C22.387 31.5196 22.3297 31.565 22.2651 31.5978C22.2006 31.6305 22.1301 31.65 22.0578 31.655L10.7568 32.8128C10.7388 32.8149 10.7208 32.816 10.7027 32.8161Z" fill="#00C5DE"/>
<path d="M10.786 35.0367C10.6427 35.0438 10.5023 34.9938 10.3959 34.8975C10.2894 34.8012 10.2256 34.6665 10.2184 34.5232C10.2113 34.3798 10.2614 34.2395 10.3577 34.133C10.454 34.0266 10.5886 33.9628 10.732 33.9556L21.9498 32.8064C22.0216 32.7969 22.0945 32.802 22.1643 32.8212C22.2341 32.8405 22.2993 32.8735 22.3561 32.9185C22.4129 32.9634 22.46 33.0193 22.4948 33.0828C22.5295 33.1463 22.5512 33.2162 22.5584 33.2882C22.5657 33.3603 22.5584 33.433 22.537 33.5022C22.5155 33.5713 22.4805 33.6355 22.4338 33.6908C22.3871 33.7462 22.3298 33.7916 22.2652 33.8243C22.2006 33.8571 22.1301 33.8765 22.0579 33.8815L10.8412 35.034C10.8228 35.036 10.8044 35.0369 10.786 35.0367Z" fill="#00C5DE"/>
<path d="M16.3521 3.84759C16.2087 3.84759 16.0712 3.79064 15.9698 3.68927C15.8685 3.5879 15.8115 3.45041 15.8115 3.30705V1.09083C15.8115 0.947473 15.8685 0.809985 15.9698 0.708614C16.0712 0.607243 16.2087 0.550293 16.3521 0.550293C16.4954 0.550293 16.6329 0.607243 16.7343 0.708614C16.8357 0.809985 16.8926 0.947473 16.8926 1.09083V3.30705C16.8926 3.45041 16.8357 3.5879 16.7343 3.68927C16.6329 3.79064 16.4954 3.84759 16.3521 3.84759Z" fill="#00C5DE"/>
<path d="M9.86018 5.61007C9.76512 5.61026 9.67168 5.58537 9.58931 5.53792C9.50693 5.49047 9.43853 5.42213 9.39099 5.3398L8.28451 3.42196C8.21396 3.29788 8.19535 3.15093 8.23275 3.01317C8.27015 2.87542 8.36052 2.75805 8.48413 2.68668C8.60775 2.61531 8.75457 2.59573 8.89257 2.63221C9.03057 2.6687 9.14853 2.75829 9.22072 2.88142L10.3278 4.79926C10.3752 4.88139 10.4001 4.97456 10.4002 5.06939C10.4002 5.16423 10.3753 5.25741 10.3279 5.33956C10.2805 5.42172 10.2124 5.48996 10.1303 5.53745C10.0482 5.58493 9.95502 5.60998 9.86018 5.61007Z" fill="#00C5DE"/>
<path d="M5.11692 10.3831C5.02201 10.3833 4.92874 10.3583 4.84665 10.3106L2.9299 9.20306C2.86618 9.16877 2.80999 9.12204 2.76467 9.06563C2.71935 9.00923 2.68582 8.9443 2.66606 8.87469C2.6463 8.80508 2.64071 8.73222 2.64963 8.66041C2.65856 8.58861 2.6818 8.51932 2.718 8.45667C2.75419 8.39402 2.8026 8.33927 2.86034 8.29567C2.91809 8.25207 2.984 8.22051 3.05417 8.20286C3.12435 8.1852 3.19735 8.18182 3.26885 8.1929C3.34035 8.20399 3.4089 8.22931 3.47044 8.26738L5.38773 9.37441C5.49078 9.43391 5.57131 9.52575 5.61684 9.63568C5.66237 9.74561 5.67036 9.86749 5.63956 9.98242C5.60876 10.0974 5.5409 10.1989 5.44651 10.2714C5.35211 10.3438 5.23645 10.3831 5.11746 10.3831H5.11692Z" fill="#00C5DE"/>
<path d="M3.39836 16.8877H1.18214C1.03878 16.8877 0.901293 16.8308 0.799922 16.7294C0.698551 16.628 0.641602 16.4905 0.641602 16.3472C0.641602 16.2038 0.698551 16.0663 0.799922 15.965C0.901293 15.8636 1.03878 15.8066 1.18214 15.8066H3.39836C3.54172 15.8066 3.67921 15.8636 3.78058 15.965C3.88195 16.0663 3.9389 16.2038 3.9389 16.3472C3.9389 16.4905 3.88195 16.628 3.78058 16.7294C3.67921 16.8308 3.54172 16.8877 3.39836 16.8877Z" fill="#00C5DE"/>
<path d="M3.24364 24.4874C3.12466 24.4874 3.00899 24.4481 2.9146 24.3757C2.8202 24.3032 2.75234 24.2017 2.72154 24.0867C2.69075 23.9718 2.69873 23.8499 2.74427 23.74C2.7898 23.6301 2.87033 23.5382 2.97337 23.4787L4.89121 22.3717C4.95272 22.3362 5.02062 22.3132 5.09103 22.3039C5.16144 22.2947 5.23298 22.2994 5.30157 22.3178C5.37016 22.3362 5.43445 22.3679 5.49078 22.4111C5.54711 22.4544 5.59437 22.5083 5.62986 22.5698C5.66535 22.6313 5.68839 22.6992 5.69764 22.7696C5.70689 22.84 5.70218 22.9116 5.68379 22.9802C5.66539 23.0488 5.63367 23.1131 5.59042 23.1694C5.54718 23.2257 5.49326 23.273 5.43175 23.3085L3.51391 24.4155C3.43169 24.4628 3.33848 24.4875 3.24364 24.4874Z" fill="#00C5DE"/>
<path d="M22.9306 5.61007C22.8358 5.60998 22.7426 5.58493 22.6605 5.53745C22.5784 5.48996 22.5103 5.42172 22.4629 5.33956C22.4155 5.25741 22.3906 5.16423 22.3906 5.06939C22.3906 4.97456 22.4156 4.88139 22.463 4.79926L23.5679 2.88142C23.6401 2.75829 23.7581 2.6687 23.8961 2.63221C24.0341 2.59573 24.1809 2.61531 24.3045 2.68668C24.4281 2.75805 24.5185 2.87542 24.5559 3.01317C24.5933 3.15093 24.5747 3.29788 24.5041 3.42196L23.3971 5.3398C23.3498 5.42174 23.2818 5.48982 23.2 5.53725C23.1181 5.58467 23.0252 5.60979 22.9306 5.61007Z" fill="#00C5DE"/>
<path d="M27.6753 10.3831C27.5563 10.3831 27.4406 10.3438 27.3462 10.2714C27.2518 10.1989 27.184 10.0974 27.1532 9.98242C27.1224 9.86749 27.1304 9.74561 27.1759 9.63568C27.2214 9.52575 27.302 9.43391 27.405 9.37441L29.3223 8.26738C29.3838 8.22931 29.4524 8.20399 29.5239 8.1929C29.5954 8.18182 29.6684 8.1852 29.7386 8.20286C29.8087 8.22051 29.8747 8.25207 29.9324 8.29567C29.9901 8.33927 30.0386 8.39402 30.0748 8.45667C30.1109 8.51932 30.1342 8.58861 30.1431 8.66041C30.152 8.73222 30.1465 8.80508 30.1267 8.87469C30.1069 8.9443 30.0734 9.00923 30.0281 9.06563C29.9828 9.12204 29.9266 9.16877 29.8629 9.20306L27.9456 10.3106C27.8635 10.3583 27.7702 10.3833 27.6753 10.3831Z" fill="#00C5DE"/>
<path d="M31.6064 16.8877H29.3902C29.2468 16.8877 29.1093 16.8308 29.0079 16.7294C28.9066 16.628 28.8496 16.4905 28.8496 16.3472C28.8496 16.2038 28.9066 16.0663 29.0079 15.965C29.1093 15.8636 29.2468 15.8066 29.3902 15.8066H31.6064C31.7497 15.8066 31.8872 15.8636 31.9886 15.965C32.09 16.0663 32.1469 16.2038 32.1469 16.3472C32.1469 16.4905 32.09 16.628 31.9886 16.7294C31.8872 16.8308 31.7497 16.8877 31.6064 16.8877Z" fill="#00C5DE"/>
<path d="M29.5474 24.4874C29.4525 24.4874 29.3594 24.4626 29.2771 24.4155L27.3603 23.3085C27.2988 23.273 27.2449 23.2257 27.2017 23.1694C27.1584 23.113 27.1267 23.0488 27.1083 22.9802C27.0899 22.9116 27.0852 22.84 27.0945 22.7696C27.1037 22.6992 27.1267 22.6313 27.1622 22.5698C27.1977 22.5083 27.245 22.4544 27.3013 22.4111C27.3576 22.3679 27.4219 22.3362 27.4905 22.3178C27.5591 22.2994 27.6307 22.2947 27.7011 22.3039C27.7715 22.3132 27.8394 22.3362 27.9009 22.3717L29.8176 23.4787C29.9207 23.5382 30.0012 23.6301 30.0467 23.74C30.0923 23.8499 30.1003 23.9718 30.0695 24.0867C30.0387 24.2017 29.9708 24.3032 29.8764 24.3757C29.782 24.4481 29.6663 24.4874 29.5474 24.4874Z" fill="#00C5DE"/>
<path d="M14.0658 30.4352C13.9439 30.4351 13.8255 30.3938 13.73 30.3179C13.6346 30.2421 13.5675 30.1362 13.5399 30.0174L10.9193 18.7736C10.8972 18.6785 10.9013 18.5792 10.9311 18.4862C10.9609 18.3932 11.0153 18.31 11.0886 18.2455C11.1619 18.181 11.2513 18.1375 11.3473 18.1197C11.4433 18.1019 11.5424 18.1105 11.6339 18.1444L14.0836 19.0542L16.1155 17.8261C16.1999 17.775 16.2966 17.748 16.3953 17.748C16.4939 17.748 16.5906 17.775 16.675 17.8261L18.7074 19.0542L21.155 18.1444C21.2465 18.1105 21.3456 18.1019 21.4416 18.1197C21.5376 18.1375 21.627 18.181 21.7003 18.2455C21.7736 18.31 21.828 18.3932 21.8578 18.4862C21.8876 18.5792 21.8917 18.6785 21.8696 18.7736L19.2512 30.0169C19.2187 30.1565 19.132 30.2775 19.0102 30.3532C18.8885 30.4289 18.7416 30.4532 18.602 30.4207C18.4624 30.3881 18.3414 30.3014 18.2657 30.1797C18.1899 30.0579 18.1657 29.9111 18.1982 29.7715L20.5885 19.5071L18.8393 20.1558C18.7629 20.1839 18.6812 20.1944 18.6002 20.1868C18.5192 20.1791 18.441 20.1534 18.3712 20.1115L16.395 18.9207L14.4199 20.1142C14.3502 20.1563 14.2719 20.1822 14.1909 20.1899C14.1098 20.1976 14.0281 20.1868 13.9517 20.1585L12.202 19.5098L14.595 29.772C14.6274 29.9116 14.603 30.0584 14.5271 30.18C14.4513 30.3017 14.3303 30.3882 14.1907 30.4207C14.1497 30.4302 14.1078 30.4351 14.0658 30.4352Z" fill="#00C5DE"/>
</svg>
