<svg width="27" height="27" viewBox="0 0 27 27" fill="none" xmlns="http://www.w3.org/2000/svg">
<path d="M13.0781 23.625H13.9219V24.4688H13.0781V23.625Z" fill="white"/>
<path d="M20.3574 20.958L20.954 20.3614L21.5507 20.958L20.954 21.5546L20.3574 20.958Z" fill="white"/>
<path d="M23.625 13.0781H24.4688V13.9219H23.625V13.0781Z" fill="white"/>
<path d="M25.7343 10.5471H22.7432C22.5799 10.0324 22.3732 9.53247 22.1251 9.05283L24.2391 6.93839C24.3182 6.85928 24.3627 6.75199 24.3627 6.64012C24.3627 6.52826 24.3182 6.42097 24.2391 6.34186L22.4491 4.55226C21.278 3.35869 19.8821 2.409 18.3418 1.75807C16.8016 1.10715 15.1476 0.767896 13.4755 0.75991C11.8034 0.751924 10.1462 1.07537 8.59984 1.71155C7.05345 2.34773 5.64846 3.28404 4.46604 4.46638C3.28361 5.64872 2.3472 7.05365 1.71091 8.59999C1.07462 10.1463 0.751062 11.8034 0.758929 13.4756C0.766797 15.1477 1.10594 16.8017 1.75675 18.342C2.40756 19.8822 3.35715 21.2783 4.55065 22.4495L6.34024 24.2395C6.41936 24.3186 6.52664 24.363 6.63851 24.363C6.75037 24.363 6.85766 24.3186 6.93677 24.2395L9.05121 22.1255C9.53129 22.3734 10.0316 22.58 10.5468 22.7431V25.7346C10.5468 25.8465 10.5912 25.9538 10.6703 26.0329C10.7494 26.112 10.8567 26.1565 10.9686 26.1565H16.0311C16.143 26.1565 16.2503 26.112 16.3294 26.0329C16.4086 25.9538 16.453 25.8465 16.453 25.7346V22.7435C16.9677 22.5804 17.4676 22.3738 17.9473 22.1259L20.0617 24.2399C20.1408 24.319 20.2481 24.3634 20.36 24.3634C20.4719 24.3634 20.5791 24.319 20.6583 24.2399L24.2379 20.6603C24.317 20.5812 24.3614 20.4739 24.3614 20.362C24.3614 20.2502 24.317 20.1429 24.2379 20.0638L22.1239 17.9493C22.3723 17.4692 22.5793 16.9687 22.7427 16.4534H25.7343C25.8461 16.4534 25.9535 16.4089 26.0326 16.3298C26.1117 16.2507 26.1561 16.1434 26.1561 16.0315V10.969C26.1561 10.8571 26.1117 10.7498 26.0326 10.6707C25.9535 10.5916 25.8461 10.5471 25.7343 10.5471ZM5.14676 5.14711C7.30997 2.98321 10.2287 1.7435 13.2879 1.6892C16.3472 1.6349 19.3081 2.77024 21.5467 4.85601L20.951 5.4517C18.8691 3.5304 16.1246 2.48911 13.2922 2.5459C10.4598 2.60269 7.75923 3.75316 5.75602 5.75637C3.75281 7.75958 2.60234 10.4602 2.54555 13.2926C2.48876 16.125 3.53005 18.8695 5.45135 20.9514L4.85566 21.5471C2.76989 19.3084 1.63455 16.3475 1.68885 13.2883C1.74315 10.229 2.98286 7.31032 5.14676 5.14711ZM17.0795 9.92062C18.0161 10.8726 18.5386 12.1562 18.5332 13.4917C18.5278 14.8272 17.9948 16.1065 17.0505 17.0508C16.1061 17.9952 14.8269 18.5281 13.4913 18.5335C12.1558 18.539 10.8723 18.0165 9.92027 17.0798C9.84116 17.0008 9.73388 16.9563 9.62201 16.9563C9.51014 16.9563 9.40286 17.0008 9.32374 17.0798L6.04831 20.3553C4.27894 18.4329 3.32121 15.9009 3.37532 13.2888C3.42944 10.6766 4.49123 8.18651 6.3387 6.33905C8.18616 4.49158 10.6763 3.42979 13.2884 3.37567C15.9006 3.32156 18.4325 4.27929 20.3549 6.04866L17.0795 9.32367C17.0403 9.36285 17.0092 9.40938 16.9879 9.46059C16.9667 9.51181 16.9558 9.56671 16.9558 9.62215C16.9558 9.67759 16.9667 9.73248 16.9879 9.7837C17.0092 9.83492 17.0403 9.88144 17.0795 9.92062ZM25.3124 15.6096H22.4284C22.3362 15.6096 22.2465 15.6397 22.1731 15.6955C22.0996 15.7513 22.0465 15.8296 22.0218 15.9184C21.8365 16.5802 21.5729 17.2175 21.2367 17.8169C21.1913 17.8973 21.1736 17.9903 21.1863 18.0818C21.1989 18.1732 21.2412 18.258 21.3067 18.3231L23.3439 20.3608L20.3613 23.3434L18.3236 21.3062C18.2585 21.2407 18.1737 21.1984 18.0823 21.1858C17.9908 21.1731 17.8978 21.1908 17.8174 21.2362C17.218 21.5724 16.5807 21.836 15.9189 22.0213C15.8301 22.046 15.7518 22.0991 15.696 22.1726C15.6402 22.246 15.61 22.3357 15.6101 22.4279V25.3127H11.3905V22.4288C11.3906 22.3366 11.3604 22.2469 11.3046 22.1734C11.2488 22.1 11.1705 22.0468 11.0817 22.0221C10.4199 21.8368 9.78261 21.5732 9.18326 21.237C9.10284 21.1917 9.00977 21.174 8.91832 21.1866C8.82688 21.1993 8.74211 21.2416 8.67701 21.307L6.63935 23.3443L5.44629 22.1512L9.6334 17.9645C10.7622 18.9418 12.2193 19.4553 13.7115 19.4016C15.2036 19.348 16.6201 18.7312 17.6758 17.6753C18.7315 16.6195 19.3482 15.203 19.4017 13.7108C19.4552 12.2187 18.9416 10.7616 17.9642 9.63291L22.1509 5.4458L23.3439 6.63886L21.3067 8.67651C21.2412 8.74161 21.1989 8.82638 21.1863 8.91783C21.1736 9.00927 21.1913 9.10234 21.2367 9.18276C21.5729 9.78209 21.8365 10.4194 22.0218 11.0812C22.0465 11.1701 22.0996 11.2484 22.1731 11.3041C22.2465 11.3599 22.3362 11.3901 22.4284 11.39H25.3124V15.6096Z" fill="white"/>
<path d="M13.9219 11.8724V7.17188C13.9219 7.05999 13.8774 6.95268 13.7983 6.87356C13.7192 6.79445 13.6119 6.75 13.5 6.75C13.3881 6.75 13.2808 6.79445 13.2017 6.87356C13.1226 6.95268 13.0781 7.05999 13.0781 7.17188V11.8724C12.7882 11.9482 12.5237 12.0999 12.3118 12.3118C12.0999 12.5237 11.9482 12.7882 11.8724 13.0781H8.85938C8.74749 13.0781 8.64018 13.1226 8.56106 13.2017C8.48195 13.2808 8.4375 13.3881 8.4375 13.5C8.4375 13.6119 8.48195 13.7192 8.56106 13.7983C8.64018 13.8774 8.74749 13.9219 8.85938 13.9219H11.8724C11.9462 14.2098 12.0948 14.473 12.3032 14.6849C12.5116 14.8967 12.7724 15.0497 13.059 15.1281C13.3457 15.2066 13.648 15.2079 13.9353 15.1317C14.2225 15.0556 14.4845 14.9048 14.6947 14.6947C14.9048 14.4845 15.0556 14.2225 15.1317 13.9353C15.2079 13.648 15.2066 13.3457 15.1281 13.059C15.0497 12.7724 14.8967 12.5116 14.6849 12.3032C14.473 12.0948 14.2098 11.9462 13.9219 11.8724ZM13.5 14.3438C13.3331 14.3438 13.17 14.2943 13.0312 14.2016C12.8925 14.1088 12.7843 13.9771 12.7205 13.8229C12.6566 13.6687 12.6399 13.4991 12.6725 13.3354C12.705 13.1717 12.7854 13.0214 12.9034 12.9034C13.0214 12.7854 13.1717 12.705 13.3354 12.6725C13.4991 12.6399 13.6687 12.6566 13.8229 12.7205C13.9771 12.7843 14.1088 12.8925 14.2016 13.0312C14.2943 13.17 14.3438 13.3331 14.3438 13.5C14.3438 13.7238 14.2549 13.9384 14.0966 14.0966C13.9384 14.2549 13.7238 14.3438 13.5 14.3438Z" fill="white"/>
<path d="M13.5 5.48438C13.3881 5.48438 13.2808 5.43993 13.2017 5.36081C13.1226 5.28169 13.0781 5.17439 13.0781 5.0625V4.21875C13.0781 4.10686 13.1226 3.99956 13.2017 3.92044C13.2808 3.84132 13.3881 3.79688 13.5 3.79688C13.6119 3.79688 13.7192 3.84132 13.7983 3.92044C13.8774 3.99956 13.9219 4.10686 13.9219 4.21875V5.0625C13.9219 5.17439 13.8774 5.28169 13.7983 5.36081C13.7192 5.43993 13.6119 5.48438 13.5 5.48438Z" fill="white"/>
<path d="M17.7183 6.61443C17.6443 6.61436 17.5716 6.59481 17.5075 6.55775C17.4435 6.52069 17.3903 6.46743 17.3533 6.40331C17.3163 6.33919 17.2969 6.26647 17.2969 6.19245C17.2969 6.11843 17.3164 6.04572 17.3534 5.98162L17.7753 5.25051C17.8316 5.1544 17.9237 5.08448 18.0314 5.05601C18.1391 5.02753 18.2537 5.04281 18.3502 5.09852C18.4466 5.15422 18.5172 5.24582 18.5464 5.35333C18.5755 5.46085 18.561 5.57554 18.506 5.67238L18.0841 6.40349C18.047 6.46769 17.9937 6.52098 17.9295 6.55801C17.8653 6.59504 17.7924 6.6145 17.7183 6.61443Z" fill="white"/>
<path d="M9.28125 6.61443C9.20713 6.6145 9.13429 6.59504 9.07008 6.55801C9.00587 6.52098 8.95255 6.46769 8.91548 6.40349L8.49361 5.67238C8.43855 5.57554 8.42403 5.46085 8.45322 5.35333C8.4824 5.24582 8.55293 5.15422 8.64941 5.09852C8.74589 5.04281 8.86048 5.02753 8.96819 5.05601C9.07589 5.08448 9.16796 5.1544 9.2243 5.25051L9.64617 5.98162C9.68318 6.04572 9.70267 6.11843 9.70269 6.19245C9.70271 6.26647 9.68326 6.33919 9.64628 6.40331C9.6093 6.46743 9.55611 6.52069 9.49204 6.55775C9.42796 6.59481 9.35527 6.61436 9.28125 6.61443Z" fill="white"/>
<path d="M6.19255 9.7027C6.11848 9.70286 6.04569 9.68335 5.98162 9.64617L5.25051 9.2243C5.1544 9.16796 5.08448 9.07589 5.05601 8.96818C5.02753 8.86048 5.04281 8.74589 5.09852 8.64941C5.15422 8.55293 5.24582 8.4824 5.35333 8.45322C5.46084 8.42403 5.57554 8.43855 5.67238 8.49361L6.40349 8.91548C6.48391 8.96192 6.54676 9.0336 6.5823 9.11939C6.61784 9.20519 6.62407 9.30032 6.60003 9.39002C6.576 9.47972 6.52304 9.55898 6.44936 9.61552C6.37569 9.67205 6.28542 9.7027 6.19255 9.7027Z" fill="white"/>
<path d="M5.0625 13.9219H4.21875C4.10686 13.9219 3.99956 13.8774 3.92044 13.7983C3.84132 13.7192 3.79688 13.6119 3.79688 13.5C3.79688 13.3881 3.84132 13.2808 3.92044 13.2017C3.99956 13.1226 4.10686 13.0781 4.21875 13.0781H5.0625C5.17439 13.0781 5.28169 13.1226 5.36081 13.2017C5.43993 13.2808 5.48438 13.3881 5.48438 13.5C5.48438 13.6119 5.43993 13.7192 5.36081 13.7983C5.28169 13.8774 5.17439 13.9219 5.0625 13.9219Z" fill="white"/>
<path d="M5.46287 18.5629C5.37001 18.5629 5.27974 18.5323 5.20606 18.4757C5.13239 18.4192 5.07943 18.3399 5.05539 18.2502C5.03136 18.1605 5.03759 18.0654 5.07312 17.9796C5.10866 17.8938 5.17151 17.8221 5.25194 17.7757L5.98305 17.3538C6.03104 17.3257 6.08413 17.3073 6.13926 17.2998C6.19438 17.2923 6.25045 17.2957 6.30424 17.3099C6.35803 17.3241 6.40847 17.3489 6.45267 17.3826C6.49686 17.4164 6.53394 17.4586 6.56176 17.5068C6.58958 17.555 6.60759 17.6082 6.61476 17.6634C6.62193 17.7186 6.61812 17.7746 6.60354 17.8283C6.58897 17.882 6.56391 17.9323 6.52982 17.9763C6.49574 18.0202 6.45329 18.057 6.40492 18.0845L5.67381 18.5064C5.60974 18.5436 5.53695 18.5631 5.46287 18.5629Z" fill="white"/>
<path d="M13.4998 17.7186C12.9456 17.7201 12.3965 17.6115 11.8847 17.399C11.3728 17.1865 10.9082 16.8744 10.518 16.4808C10.4778 16.4418 10.4457 16.3952 10.4237 16.3437C10.4016 16.2922 10.3901 16.2368 10.3897 16.1808C10.3893 16.1248 10.4 16.0693 10.4213 16.0175C10.4426 15.9656 10.474 15.9186 10.5136 15.879C10.5533 15.8395 10.6004 15.8082 10.6523 15.7871C10.7042 15.7659 10.7598 15.7553 10.8158 15.7559C10.8718 15.7565 10.9271 15.7682 10.9786 15.7904C11.03 15.8125 11.0765 15.8447 11.1154 15.8851C11.4273 16.2038 11.7994 16.4574 12.21 16.6313C12.6207 16.8053 13.0617 16.896 13.5076 16.8984C13.9536 16.9008 14.3956 16.8147 14.808 16.6451C15.2205 16.4756 15.5952 16.2259 15.9105 15.9105C16.2259 15.5952 16.4755 15.2205 16.6451 14.808C16.8147 14.3956 16.9008 13.9536 16.8984 13.5076C16.896 13.0617 16.8052 12.6207 16.6313 12.21C16.4574 11.7994 16.2037 11.4273 15.8851 11.1154C15.8447 11.0765 15.8125 11.03 15.7904 10.9786C15.7682 10.9271 15.7565 10.8718 15.7559 10.8158C15.7553 10.7598 15.7659 10.7042 15.7871 10.6523C15.8082 10.6004 15.8395 10.5533 15.879 10.5136C15.9186 10.474 15.9656 10.4426 16.0174 10.4213C16.0693 10.4 16.1248 10.3893 16.1808 10.3897C16.2368 10.3901 16.2922 10.4016 16.3437 10.4237C16.3952 10.4457 16.4418 10.4778 16.4808 10.518C17.0702 11.1079 17.4716 11.8593 17.6342 12.6773C17.7968 13.4952 17.7133 14.343 17.3943 15.1135C17.0753 15.884 16.5351 16.5427 15.8419 17.0064C15.1488 17.4701 14.3337 17.7179 13.4998 17.7186Z" fill="white"/>
</svg>
