<svg width="34" height="26" viewBox="0 0 34 26" fill="none" xmlns="http://www.w3.org/2000/svg">
<path d="M9.40761 20.4563C9.13564 20.4563 8.86169 20.3628 8.63815 20.1724L0.946216 13.6227C0.680885 13.3965 0.52832 13.0662 0.52832 12.7173C0.52832 12.369 0.681549 12.0387 0.946216 11.8125L8.63815 5.26283C9.13763 4.83698 9.88785 4.89734 10.3137 5.39682C10.7389 5.89697 10.6792 6.64719 10.1791 7.07238L3.55043 12.7173L10.1791 18.3622C10.6792 18.788 10.7389 19.5383 10.3137 20.0378C10.0782 20.3144 9.74391 20.4563 9.40761 20.4563Z" fill="white"/>
<path d="M24.5926 20.4563C24.2563 20.4563 23.922 20.3144 23.6871 20.0378C23.2613 19.5383 23.3217 18.788 23.8211 18.3622L30.4498 12.7173L23.8211 7.07238C23.3217 6.64719 23.2613 5.89697 23.6871 5.39682C24.1123 4.89734 24.8632 4.83698 25.362 5.26283L33.054 11.8125C33.3193 12.0387 33.4719 12.369 33.4719 12.7173C33.4719 13.0662 33.3193 13.3965 33.054 13.6227L25.362 20.1724C25.1385 20.3628 24.8646 20.4563 24.5926 20.4563Z" fill="white"/>
<path d="M14.2765 25.369C14.1949 25.369 14.1127 25.3604 14.0297 25.3432C13.3876 25.2079 12.9764 24.577 13.1117 23.9349L17.9055 1.17427C18.0409 0.532171 18.671 0.12091 19.3138 0.256228C19.9559 0.391546 20.3671 1.02171 20.2318 1.66447L15.438 24.4251C15.3199 24.985 14.8264 25.369 14.2765 25.369Z" fill="white"/>
</svg>
