<svg width="25" height="25" viewBox="0 0 25 25" fill="none" xmlns="http://www.w3.org/2000/svg">
<path d="M23.7596 22.5623H22.5768L22.9418 22.211C23.5104 21.6638 23.7213 20.8548 23.4923 20.0996L22.2316 15.9414C21.8411 14.6534 20.7737 13.7164 19.4459 13.4961L18.9393 13.412C18.6586 13.086 18.2431 12.8791 17.7801 12.8791H15.7475C15.45 12.8006 15.2339 12.547 15.2054 12.2377L15.1369 11.4941C16.0455 10.8132 16.7767 9.78558 16.9141 8.45253H17.0681C17.6758 8.45253 18.1702 7.95809 18.1702 7.35038V6.53485C18.1702 6.10126 17.9185 5.72538 17.5536 5.54554C17.5534 5.36976 17.5533 5.07479 17.5533 4.58002C17.5533 4.37772 17.3894 4.21381 17.1871 4.21381C16.9848 4.21381 16.8209 4.37772 16.8209 4.58002C16.8209 4.9807 16.8209 5.25072 16.821 5.43275H16.5494C16.3464 5.43275 16.1629 5.28231 16.1629 5.0621V4.32821C16.1629 3.6912 15.6447 3.17299 15.0077 3.17299C14.9492 3.17714 14.5645 3.1454 14.0733 3.31205C14.0079 3.32904 13.4018 3.58163 12.544 3.58163C11.6892 3.58163 11.078 3.32845 11.0147 3.31205C10.4984 3.13685 10.1016 3.17928 10.0025 3.17299C9.36548 3.17299 8.84727 3.6912 8.84727 4.32821V5.0621C8.84727 5.2784 8.66079 5.43275 8.46069 5.43275H8.18862V2.74359C8.18862 2.14071 8.72168 1.64452 9.36563 1.74481C9.87944 1.82499 10.3364 1.49388 10.3894 0.975427C10.495 0.824011 10.6679 0.732507 10.8557 0.732458L14.9719 0.732361C15.9932 0.732361 16.8207 1.55853 16.8207 2.58031C16.8207 2.70756 16.8208 2.77123 16.8209 2.80306C16.8217 3.11703 17.0608 3.19999 17.1872 3.19999C17.3895 3.19999 17.5534 3.03607 17.5534 2.83378C17.5534 2.83138 17.5534 2.82904 17.5534 2.82665C17.5533 2.81674 17.5531 2.77303 17.5531 2.58031C17.5531 1.15414 16.3983 -0.000158685 14.9719 -6.1029e-05L10.8557 3.66273e-05C10.3711 8.54554e-05 9.92993 0.266443 9.7042 0.695154C9.65562 0.787537 9.6627 0.8703 9.66211 0.87572C9.66211 0.990759 9.58936 1.03837 9.47852 1.02113C8.40498 0.853601 7.4562 1.67787 7.4562 2.74354V5.54564C7.0915 5.72552 6.84004 6.10131 6.84004 6.5347V7.35023C6.84004 7.95795 7.33442 8.45238 7.94214 8.45238H8.09649C8.17847 9.23548 8.47339 9.97279 8.95947 10.6028C9.2167 10.9362 9.52437 11.2369 9.8729 11.4978L9.80474 12.2375C9.77627 12.5469 9.56026 12.8005 9.2627 12.879H7.22998C6.76699 12.879 6.35147 13.0858 6.0708 13.4119L5.56431 13.496C4.23657 13.7162 3.16909 14.6532 2.77852 15.9413L1.51777 20.0996C1.28887 20.8548 1.4998 21.6638 2.06831 22.211L2.4333 22.5623H1.23838C0.566309 22.5623 0.0195312 23.1091 0.0195312 23.7811C0.0195312 24.4532 0.566309 25 1.23838 25H23.7596C24.4317 25 24.9784 24.4532 24.9784 23.7811C24.9784 23.1091 24.4317 22.5623 23.7596 22.5623ZM16.937 6.16512H17.0681C17.271 6.16512 17.4377 6.33002 17.4377 6.5348V7.35033C17.4377 7.55423 17.2719 7.72006 17.0681 7.72006H16.9364L16.937 6.16512ZM7.94209 7.72006C7.73823 7.72006 7.57241 7.55423 7.57241 7.35033V6.5348C7.57241 6.33026 7.73897 6.16512 7.94209 6.16512H8.07319L8.07368 7.7201H7.94209V7.72006ZM19.326 14.2186C20.3768 14.393 21.2216 15.1345 21.5306 16.1539L22.7914 20.312C22.9401 20.8025 22.8031 21.328 22.4338 21.6833L21.5207 22.5623H20.7253C20.7995 22.3625 20.8383 22.1492 20.8383 21.9306C20.8383 21.512 20.4978 21.1715 20.0792 21.1715H19.3092V14.4082C19.3092 14.3424 19.305 14.2775 19.2969 14.2138L19.326 14.2186ZM20.0793 21.904C20.094 21.904 20.106 21.916 20.106 21.9306C20.106 22.1598 20.0344 22.3794 19.9021 22.5624H5.10801C4.97573 22.3794 4.9042 22.1598 4.9042 21.9306C4.9042 21.916 4.91616 21.904 4.93086 21.904H20.0793ZM8.8062 8.08212L8.80562 6.1118C9.2479 5.97118 9.57964 5.56468 9.57964 5.062V4.32811C9.57964 4.09501 9.76934 3.90531 10.0024 3.90531C10.1098 3.91156 10.3958 3.87533 10.7794 4.00555C10.8491 4.02352 11.5505 4.3139 12.544 4.3139C13.5197 4.3139 14.2609 4.01761 14.3087 4.00555C14.6716 3.88236 14.9529 3.90902 15.0077 3.90531C15.2408 3.90531 15.4305 4.09501 15.4305 4.32811V5.062C15.4305 5.56542 15.7634 5.97089 16.2045 6.11161L16.2039 8.08216C16.1746 9.38514 15.4801 10.2486 14.9023 10.7437C14.2048 11.3414 13.2867 11.7185 12.5051 11.7285C10.9666 11.7093 8.85689 10.3349 8.8062 8.08212ZM14.6512 12.8791H10.3589C10.454 12.7061 10.515 12.5118 10.5341 12.3049L10.568 11.9367C11.1815 12.2602 11.805 12.4531 12.501 12.4609H12.5092C13.103 12.4543 13.7894 12.2739 14.4418 11.9323L14.4761 12.3049C14.4951 12.5117 14.5562 12.7061 14.6512 12.8791ZM2.21875 20.312L3.47944 16.1539C3.78853 15.1345 4.6333 14.393 5.68413 14.2186L5.71314 14.2138C5.70503 14.2774 5.70083 14.3423 5.70083 14.4082V16.6554C5.70083 16.8577 5.86475 17.0216 6.06704 17.0216C6.26934 17.0216 6.43325 16.8577 6.43325 16.6554V14.4082C6.43325 13.9689 6.79063 13.6115 7.22993 13.6115H17.7801C18.2194 13.6115 18.5768 13.9689 18.5768 14.4082V21.1715H6.43325V18.3877C6.43325 18.1854 6.26934 18.0215 6.06704 18.0215C5.86475 18.0215 5.70083 18.1854 5.70083 18.3877V21.1715H4.93081C4.51226 21.1715 4.17173 21.512 4.17173 21.9306C4.17173 22.1492 4.2105 22.3625 4.28472 22.5623H3.48945L2.57627 21.6833C2.20703 21.328 2.07002 20.8025 2.21875 20.312ZM23.7596 24.2676H1.23838C0.970166 24.2676 0.751953 24.0493 0.751953 23.7811C0.751953 23.513 0.970166 23.2948 1.23838 23.2948H23.7596C24.0278 23.2948 24.246 23.513 24.246 23.7811C24.246 24.0493 24.0278 24.2676 23.7596 24.2676Z" fill="#3771E1"/>
</svg>
