<?xml version="1.0" standalone="no"?>
<!DOCTYPE svg PUBLIC "-//W3C//DTD SVG 20010904//EN"
 "http://www.w3.org/TR/2001/REC-SVG-20010904/DTD/svg10.dtd">
<svg version="1.0" xmlns="http://www.w3.org/2000/svg"
 width="315.000000pt" height="315.000000pt" viewBox="0 0 315.000000 315.000000"
 preserveAspectRatio="xMidYMid meet">
<metadata>
Created by potrace 1.11, written by Peter Selinger 2001-2013
</metadata>
<g transform="translate(0.000000,315.000000) scale(0.100000,-0.100000)"
fill="#000000" stroke="none">
<path d="M1505 3137 c-34 -13 -101 -51 -285 -163 -303 -184 -351 -216 -365
-244 -16 -31 -14 -94 5 -129 16 -31 69 -61 108 -61 31 0 99 25 112 40 3 3 21
15 40 26 19 12 129 78 243 147 l208 126 247 -150 c136 -83 254 -154 262 -159
134 -83 282 -170 289 -170 5 0 11 -3 13 -7 2 -5 58 -41 125 -81 67 -40 123
-78 125 -85 2 -7 4 -304 4 -661 l-1 -648 -270 -165 c-148 -91 -283 -173 -300
-183 -16 -9 -51 -30 -77 -46 -26 -16 -96 -58 -155 -93 -60 -35 -110 -67 -113
-70 -3 -4 -16 -12 -30 -19 -14 -7 -46 -25 -72 -41 l-46 -29 -217 131 c-240
147 -227 139 -310 186 -33 19 -62 37 -65 41 -5 5 -32 22 -115 70 -16 10 -91
55 -165 100 -74 45 -148 90 -164 99 l-29 17 -1 617 c-1 339 2 617 7 617 4 0
25 -11 47 -25 22 -14 44 -25 49 -25 5 0 11 -3 13 -8 2 -4 66 -45 143 -91 77
-47 142 -88 143 -93 2 -4 8 -8 13 -8 11 0 213 -123 217 -132 2 -5 8 -8 14 -8
6 0 30 -14 55 -30 24 -16 46 -30 48 -30 4 0 159 -95 174 -107 2 -1 5 -162 5
-356 1 -319 3 -355 19 -380 56 -86 181 -81 228 10 13 26 15 85 15 419 l-1 389
-27 45 c-24 42 -103 110 -127 110 -6 0 -11 4 -11 9 0 5 -8 11 -17 15 -10 3
-34 16 -54 28 -35 23 -299 184 -331 203 -78 46 -164 101 -166 107 -2 5 -9 8
-15 8 -7 1 -50 25 -97 55 -172 109 -288 176 -321 185 -79 23 -161 0 -219 -60
-70 -73 -67 -38 -66 -831 l1 -714 28 -47 c18 -31 49 -62 87 -88 32 -22 61 -40
64 -40 3 0 37 -20 76 -45 39 -25 75 -45 80 -45 6 0 10 -3 10 -7 0 -5 10 -13
23 -19 18 -9 449 -268 512 -308 11 -7 24 -13 29 -14 5 0 12 -4 15 -9 8 -12
207 -133 218 -133 5 0 18 -8 29 -18 55 -50 166 -72 231 -45 25 10 264 150 363
213 42 26 215 131 490 297 330 199 371 232 389 311 7 32 10 274 8 767 -3 805
2 750 -75 815 -56 46 -61 50 -68 50 -3 0 -26 14 -51 30 -24 17 -48 30 -53 30
-5 0 -15 6 -22 13 -7 8 -26 20 -41 28 -23 12 -236 141 -716 434 -68 41 -127
75 -131 75 -5 0 -10 3 -12 8 -1 4 -23 17 -47 30 -53 27 -134 36 -176 19z"/>
</g>
</svg>
